<?xml version="1.0" encoding="UTF-8" standalone="no"?>
<!-- Created with Inkscape (http://www.inkscape.org/) -->
<svg
   xmlns:dc="http://purl.org/dc/elements/1.1/"
   xmlns:cc="http://web.resource.org/cc/"
   xmlns:rdf="http://www.w3.org/1999/02/22-rdf-syntax-ns#"
   xmlns:svg="http://www.w3.org/2000/svg"
   xmlns="http://www.w3.org/2000/svg"
   xmlns:sodipodi="http://inkscape.sourceforge.net/DTD/sodipodi-0.dtd"
   xmlns:inkscape="http://www.inkscape.org/namespaces/inkscape"
   version="1.0"
   width="900pt"
   height="600pt"
   id="svg2"
   sodipodi:version="0.32"
   inkscape:version="0.43"
   sodipodi:docname="broadcast.svg"
   sodipodi:docbase="/home/cyberix/Desktop">
  <metadata
     id="metadata4625">
    <rdf:RDF>
      <cc:Work
         rdf:about="">
        <dc:format>image/svg+xml</dc:format>
        <dc:type
           rdf:resource="http://purl.org/dc/dcmitype/StillImage" />
      </cc:Work>
    </rdf:RDF>
  </metadata>
  <sodipodi:namedview
     inkscape:window-height="555"
     inkscape:window-width="822"
     inkscape:pageshadow="2"
     inkscape:pageopacity="0.0"
     borderopacity="1.0"
     bordercolor="#666666"
     pagecolor="#ffffff"
     id="base"
     inkscape:zoom="0.50133333"
     inkscape:cx="375.02677"
     inkscape:cy="365.03633"
     inkscape:window-x="83"
     inkscape:window-y="46"
     inkscape:current-layer="svg2" />
  <defs
     id="defs4">
    <marker
       refX="0"
       refY="0"
       orient="auto"
       style="overflow:visible"
       id="Arrow2Lend">
      <path
         d="M 8.7185878,4.0337352 L -2.2072895,0.016013256 L 8.7185884,-4.0017078 C 6.97309,-1.6296469 6.9831476,1.6157441 8.7185878,4.0337352 z "
         transform="matrix(-1.1,0,0,-1.1,5.5,0)"
         style="font-size:12px;fill-rule:evenodd;stroke-width:0.625;stroke-linejoin:round"
         id="path3334" />
    </marker>
    <marker
       refX="0"
       refY="0"
       orient="auto"
       style="overflow:visible"
       id="Arrow1Mstart">
      <path
         d="M 0,0 L 5,-5 L -12.5,0 L 5,5 L 0,0 z "
         transform="scale(0.4,0.4)"
         style="fill-rule:evenodd;stroke:#000000;stroke-width:1pt;marker-start:none"
         id="path3349" />
    </marker>
    <marker
       refX="0"
       refY="0"
       orient="auto"
       style="overflow:visible"
       id="Arrow1Lstart">
      <path
         d="M 0,0 L 5,-5 L -12.5,0 L 5,5 L 0,0 z "
         transform="scale(0.8,0.8)"
         style="fill-rule:evenodd;stroke:#000000;stroke-width:1pt;marker-start:none"
         id="path3355" />
    </marker>
    <marker
       refX="0"
       refY="0"
       orient="auto"
       style="overflow:visible"
       id="Arrow2Mend">
      <path
         d="M 8.7185878,4.0337352 L -2.2072895,0.016013256 L 8.7185884,-4.0017078 C 6.97309,-1.6296469 6.9831476,1.6157441 8.7185878,4.0337352 z "
         transform="matrix(-0.6,0,0,-0.6,3,0)"
         style="font-size:12px;fill-rule:evenodd;stroke-width:0.625;stroke-linejoin:round"
         id="path3328" />
    </marker>
    <marker
       refX="0"
       refY="0"
       orient="auto"
       style="overflow:visible"
       id="Arrow1Mend">
      <path
         d="M 0,0 L 5,-5 L -12.5,0 L 5,5 L 0,0 z "
         transform="scale(-0.4,-0.4)"
         style="fill-rule:evenodd;stroke:#000000;stroke-width:1pt;marker-start:none"
         id="path3346" />
    </marker>
    <marker
       refX="0"
       refY="0"
       orient="auto"
       style="overflow:visible"
       id="Arrow1Lend">
      <path
         d="M 0,0 L 5,-5 L -12.5,0 L 5,5 L 0,0 z "
         transform="scale(-0.8,-0.8)"
         style="fill-rule:evenodd;stroke:#000000;stroke-width:1pt;marker-start:none"
         id="path3352" />
    </marker>
  </defs>
  <path
     id="path4289"
     style="fill:#ff5555;fill-opacity:1;stroke:#000000;stroke-width:7.57058573;stroke-miterlimit:4;stroke-dasharray:none;stroke-opacity:1"
     d="M 218.77232,326.87223 C 218.77232,352.39593 198.19902,373.08693 172.82052,373.08693 C 147.44202,373.08693 126.86872,352.39593 126.86872,326.87223 C 126.86872,301.34863 147.44202,280.65763 172.82052,280.65763 C 198.19902,280.65763 218.77232,301.34863 218.77232,326.87223 z " />
  <path
     id="path4291"
     style="fill:#55ff55;fill-opacity:1;stroke:#000000;stroke-width:7.57058573;stroke-miterlimit:4;stroke-dasharray:none;stroke-opacity:1"
     d="M 1033.1723,292.82423 C 1033.1723,318.34793 1012.599,339.03893 987.22052,339.03893 C 961.84202,339.03893 941.26872,318.34793 941.26872,292.82423 C 941.26872,267.30063 961.84202,246.60963 987.22052,246.60963 C 1012.599,246.60963 1033.1723,267.30063 1033.1723,292.82423 z " />
  <path
     id="path4293"
     style="fill:#55ff55;fill-opacity:1;stroke:#000000;stroke-width:7.57058573;stroke-miterlimit:4;stroke-dasharray:none;stroke-opacity:1"
     d="M 627.45732,104.74728 C 627.45732,130.27095 606.88402,150.96197 581.50552,150.96197 C 556.12702,150.96197 535.55372,130.27095 535.55372,104.74728 C 535.55372,79.223604 556.12702,58.532594 581.50552,58.532594 C 606.88402,58.532594 627.45732,79.223604 627.45732,104.74728 z " />
  <path
     id="path4295"
     style="fill:#55ff55;fill-opacity:1;stroke:#000000;stroke-width:7.57058573;stroke-miterlimit:4;stroke-dasharray:none;stroke-opacity:1"
     d="M 598.88632,607.60423 C 598.88632,633.12793 578.31302,653.81893 552.93452,653.81893 C 527.55602,653.81893 506.98272,633.12793 506.98272,607.60423 C 506.98272,582.08063 527.55602,561.38963 552.93452,561.38963 C 578.31302,561.38963 598.88632,582.08063 598.88632,607.60423 z " />
  <path
     id="path4297"
     style="fill:#55ff55;fill-opacity:1;stroke:#000000;stroke-width:7.57058573;stroke-miterlimit:4;stroke-dasharray:none;stroke-opacity:1"
     d="M 898.88632,147.60428 C 898.88632,173.12795 878.31302,193.81893 852.93452,193.81893 C 827.55602,193.81893 806.98272,173.12795 806.98272,147.60428 C 806.98272,122.0806 827.55602,101.38959 852.93452,101.38959 C 878.31302,101.38959 898.88632,122.0806 898.88632,147.60428 z " />
  <path
     id="path4299"
     style="fill:#55ff55;fill-opacity:1;stroke:#000000;stroke-width:7.57058573;stroke-miterlimit:4;stroke-dasharray:none;stroke-opacity:1"
     d="M 813.17232,413.31823 C 813.17232,438.84193 792.59902,459.53293 767.22052,459.53293 C 741.84202,459.53293 721.26872,438.84193 721.26872,413.31823 C 721.26872,387.79463 741.84202,367.10363 767.22052,367.10363 C 792.59902,367.10363 813.17232,387.79463 813.17232,413.31823 z " />
  <path
     id="path4301"
     style="fill:#55ff55;fill-opacity:1;stroke:#000000;stroke-width:7.57058573;stroke-miterlimit:4;stroke-dasharray:none;stroke-opacity:1"
     d="M 910.31532,584.74723 C 910.31532,610.27093 889.74202,630.96193 864.36352,630.96193 C 838.98502,630.96193 818.41172,610.27093 818.41172,584.74723 C 818.41172,559.22363 838.98502,538.53263 864.36352,538.53263 C 889.74202,538.53263 910.31532,559.22363 910.31532,584.74723 z " />
  <path
     id="path4305"
     style="fill:none;fill-opacity:0.75;fill-rule:evenodd;stroke:#000000;stroke-width:4.69999981;stroke-linecap:butt;stroke-linejoin:miter;marker-start:none;marker-end:url(#Arrow2Lend);stroke-miterlimit:4;stroke-dasharray:none;stroke-opacity:1"
     d="M 362.8584,323.60653 L 807.25202,165.63313"
     sodipodi:nodetypes="cc" />
  <path
     id="path4307"
     style="fill:none;fill-opacity:0.75;fill-rule:evenodd;stroke:#000000;stroke-width:4.69999981;stroke-linecap:butt;stroke-linejoin:miter;marker-start:none;marker-end:url(#Arrow2Lend);stroke-miterlimit:4;stroke-dasharray:none;stroke-opacity:1"
     d="M 361.95295,322.18944 L 540.36252,126.24263"
     sodipodi:nodetypes="cc" />
  <path
     id="path4309"
     style="fill:none;fill-opacity:0.75;fill-rule:evenodd;stroke:#000000;stroke-width:4.69999981;stroke-linecap:butt;stroke-linejoin:miter;marker-start:none;marker-end:url(#Arrow2Lend);stroke-miterlimit:4;stroke-dasharray:none;stroke-opacity:1"
     d="M 359.66243,323.49209 L 516.07732,583.39103"
     sodipodi:nodetypes="cc" />
  <path
     id="path4311"
     style="fill:none;fill-opacity:0.75;fill-rule:evenodd;stroke:#000000;stroke-width:4.69999981;stroke-linecap:butt;stroke-linejoin:miter;marker-start:none;marker-end:url(#Arrow2Lend);stroke-miterlimit:4;stroke-dasharray:none;stroke-opacity:1"
     d="M 367.58659,321.23157 L 943.98552,293.22093"
     sodipodi:nodetypes="cc" />
  <path
     id="path4313"
     style="fill:none;fill-opacity:0.75;fill-rule:evenodd;stroke:#000000;stroke-width:4.69999981;stroke-linecap:butt;stroke-linejoin:miter;marker-start:none;marker-end:url(#Arrow2Lend);stroke-miterlimit:4;stroke-dasharray:none;stroke-opacity:1"
     d="M 354.44378,320.49448 L 722.81612,404.45193"
     sodipodi:nodetypes="cc" />
  <path
     id="path4315"
     style="fill:none;fill-opacity:0.75;fill-rule:evenodd;stroke:#000000;stroke-width:4.69999981;stroke-linecap:butt;stroke-linejoin:miter;marker-start:none;marker-end:url(#Arrow2Lend);stroke-miterlimit:4;stroke-dasharray:none;stroke-opacity:1"
     d="M 359.56712,321.89968 L 823.95542,567.83053"
     sodipodi:nodetypes="cc" />
  <path
     style="fill:none;fill-opacity:0.75;fill-rule:evenodd;stroke:#000000;stroke-width:4.69999981;stroke-linecap:butt;stroke-linejoin:miter;stroke-miterlimit:4;stroke-dasharray:none;stroke-opacity:1"
     d="M 221.40957,324.13563 L 357.04787,322.14095"
     id="path1410" />
</svg>
