<?xml version="1.0" encoding="UTF-8" standalone="no"?>
<!-- Created with Inkscape (http://www.inkscape.org/) -->

<svg
   xmlns:dc="http://purl.org/dc/elements/1.1/"
   xmlns:cc="http://creativecommons.org/ns#"
   xmlns:rdf="http://www.w3.org/1999/02/22-rdf-syntax-ns#"
   xmlns:svg="http://www.w3.org/2000/svg"
   xmlns="http://www.w3.org/2000/svg"
   xmlns:sodipodi="http://sodipodi.sourceforge.net/DTD/sodipodi-0.dtd"
   xmlns:inkscape="http://www.inkscape.org/namespaces/inkscape"
   version="1.0"
   width="900pt"
   height="600pt"
   id="svg2"
   sodipodi:version="0.32"
   inkscape:version="0.47pre4 r22446"
   sodipodi:docname="Geocast.svg">
  <metadata
     id="metadata4625">
    <rdf:RDF>
      <cc:Work
         rdf:about="">
        <dc:format>image/svg+xml</dc:format>
        <dc:type
           rdf:resource="http://purl.org/dc/dcmitype/StillImage" />
      </cc:Work>
    </rdf:RDF>
  </metadata>
  <sodipodi:namedview
     inkscape:window-height="739"
     inkscape:window-width="1280"
     inkscape:pageshadow="2"
     inkscape:pageopacity="0.0"
     borderopacity="1.0"
     bordercolor="#666666"
     pagecolor="#ffffff"
     id="base"
     inkscape:zoom="0.42294249"
     inkscape:cx="372.57762"
     inkscape:cy="285.28549"
     inkscape:window-x="-8"
     inkscape:window-y="18"
     inkscape:current-layer="svg2"
     showgrid="false"
     inkscape:window-maximized="1" />
  <defs
     id="defs4">
    <inkscape:perspective
       sodipodi:type="inkscape:persp3d"
       inkscape:vp_x="0 : 375 : 1"
       inkscape:vp_y="0 : 1000 : 0"
       inkscape:vp_z="1125 : 375 : 1"
       inkscape:persp3d-origin="562.5 : 250 : 1"
       id="perspective32" />
    <marker
       refX="0"
       refY="0"
       orient="auto"
       style="overflow:visible"
       id="Arrow2Lend">
      <path
         d="M 8.7185878,4.0337352 L -2.2072895,0.016013256 L 8.7185884,-4.0017078 C 6.97309,-1.6296469 6.9831476,1.6157441 8.7185878,4.0337352 z "
         transform="matrix(-1.1,0,0,-1.1,5.5,0)"
         style="font-size:12px;fill-rule:evenodd;stroke-width:0.625;stroke-linejoin:round"
         id="path3334" />
    </marker>
    <marker
       refX="0"
       refY="0"
       orient="auto"
       style="overflow:visible"
       id="Arrow1Mstart">
      <path
         d="M 0,0 L 5,-5 L -12.5,0 L 5,5 L 0,0 z "
         transform="scale(0.4,0.4)"
         style="fill-rule:evenodd;stroke:#000000;stroke-width:1pt;marker-start:none"
         id="path3349" />
    </marker>
    <marker
       refX="0"
       refY="0"
       orient="auto"
       style="overflow:visible"
       id="Arrow1Lstart">
      <path
         d="M 0,0 L 5,-5 L -12.5,0 L 5,5 L 0,0 z "
         transform="scale(0.8,0.8)"
         style="fill-rule:evenodd;stroke:#000000;stroke-width:1pt;marker-start:none"
         id="path3355" />
    </marker>
    <marker
       refX="0"
       refY="0"
       orient="auto"
       style="overflow:visible"
       id="Arrow2Mend">
      <path
         d="M 8.7185878,4.0337352 L -2.2072895,0.016013256 L 8.7185884,-4.0017078 C 6.97309,-1.6296469 6.9831476,1.6157441 8.7185878,4.0337352 z "
         transform="matrix(-0.6,0,0,-0.6,3,0)"
         style="font-size:12px;fill-rule:evenodd;stroke-width:0.625;stroke-linejoin:round"
         id="path3328" />
    </marker>
    <marker
       refX="0"
       refY="0"
       orient="auto"
       style="overflow:visible"
       id="Arrow1Mend">
      <path
         d="M 0,0 L 5,-5 L -12.5,0 L 5,5 L 0,0 z "
         transform="scale(-0.4,-0.4)"
         style="fill-rule:evenodd;stroke:#000000;stroke-width:1pt;marker-start:none"
         id="path3346" />
    </marker>
    <marker
       refX="0"
       refY="0"
       orient="auto"
       style="overflow:visible"
       id="Arrow1Lend">
      <path
         d="M 0,0 L 5,-5 L -12.5,0 L 5,5 L 0,0 z "
         transform="scale(-0.8,-0.8)"
         style="fill-rule:evenodd;stroke:#000000;stroke-width:1pt;marker-start:none"
         id="path3352" />
    </marker>
    <inkscape:perspective
       id="perspective2928"
       inkscape:persp3d-origin="0.5 : 0.33333333 : 1"
       inkscape:vp_z="1 : 0.5 : 1"
       inkscape:vp_y="0 : 1000 : 0"
       inkscape:vp_x="0 : 0.5 : 1"
       sodipodi:type="inkscape:persp3d" />
    <inkscape:perspective
       id="perspective2851"
       inkscape:persp3d-origin="0.5 : 0.33333333 : 1"
       inkscape:vp_z="1 : 0.5 : 1"
       inkscape:vp_y="0 : 1000 : 0"
       inkscape:vp_x="0 : 0.5 : 1"
       sodipodi:type="inkscape:persp3d" />
    <marker
       refX="0"
       refY="0"
       orient="auto"
       style="overflow:visible"
       id="Arrow2Lend-4">
      <path
         d="M 8.7185878,4.0337352 -2.2072895,0.01601326 8.7185884,-4.0017078 c -1.7454984,2.3720609 -1.7354408,5.6174519 -6e-7,8.035443 z"
         transform="matrix(-1.1,0,0,-1.1,5.5,0)"
         style="font-size:12px;fill-rule:evenodd;stroke-width:0.625;stroke-linejoin:round"
         id="path3334-3" />
    </marker>
    <marker
       refX="0"
       refY="0"
       orient="auto"
       style="overflow:visible"
       id="marker2857">
      <path
         d="M 8.7185878,4.0337352 -2.2072895,0.01601326 8.7185884,-4.0017078 c -1.7454984,2.3720609 -1.7354408,5.6174519 -6e-7,8.035443 z"
         transform="matrix(-1.1,0,0,-1.1,5.5,0)"
         style="font-size:12px;fill-rule:evenodd;stroke-width:0.625;stroke-linejoin:round"
         id="path2859" />
    </marker>
    <marker
       refX="0"
       refY="0"
       orient="auto"
       style="overflow:visible"
       id="marker2861">
      <path
         d="M 8.7185878,4.0337352 -2.2072895,0.01601326 8.7185884,-4.0017078 c -1.7454984,2.3720609 -1.7354408,5.6174519 -6e-7,8.035443 z"
         transform="matrix(-1.1,0,0,-1.1,5.5,0)"
         style="font-size:12px;fill-rule:evenodd;stroke-width:0.625;stroke-linejoin:round"
         id="path2863" />
    </marker>
    <inkscape:perspective
       id="perspective2925"
       inkscape:persp3d-origin="0.5 : 0.33333333 : 1"
       inkscape:vp_z="1 : 0.5 : 1"
       inkscape:vp_y="0 : 1000 : 0"
       inkscape:vp_x="0 : 0.5 : 1"
       sodipodi:type="inkscape:persp3d" />
    <inkscape:perspective
       id="perspective2947"
       inkscape:persp3d-origin="0.5 : 0.33333333 : 1"
       inkscape:vp_z="1 : 0.5 : 1"
       inkscape:vp_y="0 : 1000 : 0"
       inkscape:vp_x="0 : 0.5 : 1"
       sodipodi:type="inkscape:persp3d" />
  </defs>
  <path
     style="fill:#bfbfbf"
     d="m 248.64859,699.37323 c -5.53351,-2.0708 -7.08117,-4.09853 -5.7668,-7.55557 1.46776,-3.86052 2.89045,-3.68802 10.58182,1.28314 3.56981,2.3073 7.93498,4.71957 9.70032,5.36056 3.20972,1.16547 3.20972,1.16547 -0.73903,1.25147 -2.1718,0.0473 -5.35802,0.29033 -7.0805,0.54008 -1.72246,0.24974 -4.73559,-0.14608 -6.69581,-0.87968 z M 236.08945,688.7437 c -1.0419,-0.58308 -2.77894,-0.7794 -3.86008,-0.43625 -1.36151,0.43211 -2.41283,-0.21155 -3.42036,-2.09413 -0.80005,-1.49492 -2.234,-2.9861 -3.18653,-3.31373 -2.18546,-0.75169 -6.76659,-8.17382 -9.3165,-15.09418 -1.28781,-3.49505 -3.01973,-5.91106 -5.07571,-7.08049 -3.64836,-2.07522 -3.90954,-3.0164 -1.08575,-3.91264 3.23062,-1.02536 3.83166,-6.72051 1.11232,-10.53945 -1.29786,-1.82268 -1.98081,-3.96285 -1.58981,-4.98189 0.46146,-1.20249 -0.8121,-3.31249 -3.89588,-6.45465 -3.89247,-3.96609 -4.61227,-5.40786 -4.78635,-9.58688 -0.11271,-2.70531 -0.77141,-5.60131 -1.46377,-6.43557 -0.87218,-1.05091 -1.05008,-4.8229 -0.57921,-12.28042 0.51037,-8.08213 0.21309,-13.07028 -1.19322,-20.02275 -2.08842,-10.32477 -3.15518,-29.56184 -2.61252,-47.1126 0.43393,-14.03382 -5.29027,-22.54257 -20.56527,-30.56936 -7.02159,-3.68973 -8.00897,-4.63573 -10.75375,-10.30302 -1.66228,-3.43213 -4.83908,-8.56164 -7.05963,-11.3989 -2.22055,-2.83728 -4.63478,-7.00387 -5.36497,-9.25913 -2.31762,-7.15811 -6.40316,-14.35044 -9.18816,-16.17524 -4.81068,-3.15209 -5.38412,-8.63525 -1.49434,-14.28881 3.20744,-4.66186 3.24526,-4.85199 1.07769,-5.4188 -5.32602,-1.3928 -3.08609,-8.51165 6.47407,-20.57548 6.35396,-8.01802 8.21539,-14.12625 6.45526,-21.18294 -0.67077,-2.68919 -1.2714,-5.50217 -1.33473,-6.25107 -0.0634,-0.7489 -0.54092,-1.36164 -1.06126,-1.36164 -0.52034,0 -0.4482,-0.93026 0.16019,-2.06726 0.88763,-1.65858 0.61492,-2.3893 -1.37957,-3.69611 -3.12649,-2.04856 -10.12433,0.26654 -9.07458,3.00214 1.05673,2.75375 -1.37407,3.03049 -5.89956,0.67168 -2.39287,-1.24722 -4.88888,-2.26768 -5.54673,-2.26768 -0.65784,0 -3.21623,-1.74025 -5.68532,-3.86725 -2.46909,-2.127 -5.10199,-4.35217 -5.85091,-4.94484 -0.7489,-0.59268 -1.36164,-2.20777 -1.36164,-3.58907 0,-1.38134 -0.96192,-3.38203 -2.13761,-4.44602 -1.17567,-1.06397 -2.69915,-3.63603 -3.38549,-5.71565 -0.90208,-2.73328 -1.57757,-3.45147 -2.43749,-2.59156 -2.86963,2.86963 -15.282003,-1.9213 -19.187427,-7.40594 -4.071415,-5.71778 -7.991192,-7.14354 -13.67327,-4.97354 -10.561645,4.03353 -41.927359,-15.14829 -39.621935,-24.23094 1.370931,-5.40102 -2.949398,-15.88535 -8.892095,-21.57881 -1.821601,-1.74521 -3.092972,-3.74388 -2.82527,-4.4415 0.267715,-0.69759 -1.397984,-4.33311 -3.701543,-8.07888 -2.608503,-4.24165 -4.467445,-8.84031 -4.928416,-12.19191 -0.902306,-6.56059 -4.963023,-9.55963 -7.7636016,-5.73378 -1.8692429,2.55361 -1.3378401,5.24953 2.7952976,14.18129 1.679566,3.62957 3.405459,8.94434 3.835288,11.81065 0.429818,2.86631 1.707651,7.37203 2.839561,10.01275 1.131959,2.64071 1.661287,4.80129 1.176321,4.80129 -1.22015,0 -4.487352,-3.73264 -4.487352,-5.1266 0,-0.62836 -0.75708,-1.7708 -1.6824,-2.53875 -1.135849,-0.94268 -1.467522,-2.37446 -1.020992,-4.4075 0.544935,-2.4812 0.08351,-3.43854 -2.6218865,-5.43867 -3.9811619,-2.94341 -4.8263194,-4.85725 -3.357219,-7.6023 0.8579442,-1.60309 0.4645491,-3.36113 -1.7142613,-7.66083 -2.2126606,-4.36643 -2.6754452,-6.48161 -2.1276261,-9.72415 0.8924894,-5.28259 -1.4791162,-10.09655 -5.8700773,-11.91536 -3.3585246,-1.39114 -7.5008948,-13.33656 -5.4515678,-15.72072 0.4556026,-0.53007 0.055671,-2.14328 -0.8890107,-3.58488 -1.3834453,-2.11141 -1.4728413,-3.15785 -0.45974,-5.38138 0.6917042,-1.51814 0.9528073,-3.25355 0.5801887,-3.85647 -0.372643,-0.6029 0.5559332,-2.40437 2.0634447,-4.0033 1.5075103,-1.59889 3.5145248,-4.78768 4.4600261,-7.08622 0.9455012,-2.29855 3.8592103,-6.55952 6.4749328,-9.46882 2.6156991,-2.90931 5.9317619,-8.00549 7.3690254,-11.3249 2.441269,-5.63816 7.604221,-9.0533 7.12174,-4.7108 -0.338594,3.04719 2.20395,2.02378 4.945192,-1.99053 1.604846,-2.35016 2.46268,-4.43639 1.906299,-4.63609 -0.556368,-0.19971 -1.011597,-1.10125 -1.011597,-2.00345 0,-0.90219 -2.255084,-3.83205 -5.011288,-6.51076 -4.571442,-4.44294 -4.865016,-5.03202 -3.34493,-6.7117 1.231557,-1.36085 1.3764,-2.35943 0.555089,-3.82702 -1.443341,-2.57913 0.834197,-8.35482 3.303724,-8.37804 1.019972,-0.0102 1.311086,-0.35686 0.684819,-0.81698 -1.40498,-1.03223 -2.041511,-3.37643 -1.844129,-6.79149 0.315245,-5.45445 -0.878374,-7.736 -4.933598,-9.43039 -2.18731,-0.91391 -5.5249084,-2.84237 -7.4168796,-4.28547 -1.8919966,-1.44307 -4.2924073,-2.62378 -5.33427458,-2.62378 -1.04185613,0 -5.77772462,-0.99153 -10.52413122,-2.20339 -7.6309126,-1.94835 -8.9758476,-2.0253 -11.6192446,-0.66484 -5.47806,2.81942 -11.281878,3.96855 -13.647979,2.70224 -1.774779,-0.94981 -3.711597,-0.36323 -10.465286,3.16947 -4.558113,2.38426 -10.003132,4.70502 -12.10005,5.15722 -2.096928,0.45221 -6.109944,1.97982 -8.917822,3.39465 -7.964509,4.01321 -19.373645,8.05866 -22.529508,7.98853 -2.03673,-0.0452 -0.659736,-0.93858 4.759254,-3.08753 9.209607,-3.65214 18.672902,-8.40819 19.548249,-9.82451 1.078065,-1.74438 -1.262132,-2.3703 -4.073317,-1.08944 -4.722703,2.15183 -9.944784,-1.41679 -5.463976,-3.73391 3.777227,-1.95329 4.965433,-4.16318 4.097596,-7.62097 -0.840526,-3.34882 3.793721,-5.80941 13.777081,-7.31505 5.364204,-0.809 9.44212,-2.1556 12.187642,-4.0246 4.841404,-3.29574 4.009647,-5.78666 -1.210277,-3.62449 -4.707063,1.94973 -13.753342,-0.42929 -10.54713,-2.7737 3.328533,-2.43392 10.212658,-3.89788 14.735736,-3.13372 6.667624,1.1265 11.893938,-2.04074 8.800681,-5.33337 -3.38457,-3.60271 -0.288368,-6.108401 7.547902,-6.108401 1.636633,0 6.123277,-1.184759 9.970333,-2.632785 11.8096434,-4.445127 30.492523,-6.478449 41.997805,-4.570746 5.249725,0.870471 12.486099,1.908673 16.080813,2.307113 3.594726,0.398429 9.957324,1.663114 14.139123,2.81042 9.712337,2.664619 16.038228,2.632109 26.888477,-0.138194 4.791228,-1.223318 9.633727,-1.93145 10.761114,-1.573619 1.127387,0.357818 3.044261,0.1183 4.259713,-0.532136 1.67476,-0.896305 2.97348,-0.787884 5.36291,0.447761 2.1589,1.116389 4.82376,1.435028 8.452,1.010591 3.82785,-0.447799 7.17958,0.01603 12.0728,1.670507 3.72561,1.259716 7.86335,2.290399 9.19499,2.290399 2.35893,0 2.36682,0.04 0.30671,1.55616 -3.14177,2.31217 0.14976,3.27325 8.29473,2.42194 6.39511,-0.66843 6.45043,-0.64961 8.23369,2.79883 1.79533,3.47177 1.79533,3.47177 4.12578,0.54912 3.60502,-4.52115 11.28697,-6.436 17.80806,-4.43897 3.17219,0.97146 6.96884,1.32536 9.81241,0.91466 3.62077,-0.52294 5.30199,-0.19722 7.66437,1.48495 2.98241,2.12365 3.06505,2.12474 5.71026,0.0747 1.47622,-1.14408 4.51393,-2.58999 6.75043,-3.21312 5.35424,-1.49176 7.17019,-4.670565 3.95477,-6.922742 -2.27387,-1.592681 -2.17442,-1.714199 3.80268,-4.645628 6.80262,-3.336324 9.63668,-2.685024 7.30168,1.678002 -1.52085,2.841709 0.37215,7.137078 2.74421,6.226815 3.36277,-1.29041 4.88631,0.398936 2.98151,3.306013 -4.18826,6.3921 5.20144,4.581 11.55817,-2.22936 2.58439,-2.768808 6.58869,-3.608288 10.34179,-2.168078 6.34417,2.434488 -6.70455,12.410508 -16.23301,12.410508 -3.47244,0 -7.5716,0.75225 -9.48175,1.74003 -2.64403,1.36727 -3.93332,1.48097 -6.01874,0.53079 -3.88792,-1.77145 -5.24142,-0.29701 -2.45249,2.67166 2.74948,2.92671 -2.01835,5.06433 -12.02055,5.38931 -3.90972,0.12695 -4.9034,0.55148 -4.90937,2.097 -0.006,1.3225 -1.90728,2.7143 -5.9912,4.38366 -13.2329,5.40916 -24.4582,15.16204 -20.3941,17.71899 0.7615,0.47909 1.97029,2.20559 2.68621,3.83664 0.82439,1.87823 2.41357,3.18814 4.33429,3.57266 1.66797,0.33393 5.97378,2.05547 9.56851,3.82568 3.59471,1.7702 8.00643,3.53905 9.80377,3.93078 4.94831,1.07845 4.99165,1.19197 2.68704,7.03879 -1.97168,5.00217 -2.0115,5.71595 -0.48354,8.67067 2.94225,5.68968 8.70226,2.9655 11.99434,-5.67271 1.98206,-5.20079 2.88527,-6.17094 8.57419,-9.20947 8.39592,-4.48441 11.88737,-8.90109 10.95697,-13.86055 -0.60605,-3.23048 -0.29125,-3.98856 2.47377,-5.95744 1.74249,-1.24077 4.04951,-4.21041 5.12671,-6.59919 3.28764,-7.29067 11.79471,-8.51365 21.56626,-3.10037 4.6386,2.5697 5.85889,5.11189 4.06378,8.46601 -4.18257,7.81524 5.09299,8.14743 15.25139,0.54624 3.9541,-2.9587 6.70937,-1.0295 4.97704,3.48487 -0.31904,0.83141 -0.0709,2.46302 0.55137,3.6258 0.7001,1.30811 0.75455,2.78765 0.1428,3.88075 -0.68969,1.23246 -0.22874,3.10441 1.52446,6.19099 2.51157,4.4217 2.51176,4.4253 0.30615,5.97018 -2.90224,2.0328 -1.04019,4.18872 2.14532,2.48389 3.16362,-1.69313 6.78514,-1.47294 9.0186,0.5483 6.9893,6.32526 -13.57754,15.98362 -34.4288,16.16808 -12.42477,0.10997 -31.81036,8.19796 -28.23018,11.77814 0.35009,0.35009 3.65885,-0.79332 7.35283,-2.54084 11.82587,-5.59461 18.59715,-3.39555 10.28062,3.33876 -4.96812,4.02295 2.67621,10.61882 10.73148,9.25964 5.32261,-0.89808 0.18898,3.23607 -5.56,4.47751 -1.80905,0.39067 -5.52703,1.83771 -8.26218,3.2157 -2.77643,1.39879 -5.56573,2.13904 -6.31507,1.67591 -1.72391,-1.06543 0.0959,-2.66391 5.69662,-5.00408 2.3051,-0.96314 3.73843,-2.18674 3.33196,-2.84439 -2.12194,-3.43333 -30.45973,8.42462 -31.5049,13.18324 -0.69211,3.15107 -3.05337,4.64149 -11.35508,7.16722 -2.64824,0.80569 -6.07955,2.75277 -7.62516,4.32686 -1.54559,1.57408 -4.50505,3.93084 -6.57653,5.23726 -2.07149,1.30642 -4.05482,3.59528 -4.40739,5.08634 -0.58101,2.45727 -0.71616,2.51553 -1.44357,0.6226 -1.36303,-3.547 -3.41682,-0.0793 -3.53504,5.96868 -0.12115,6.19667 -3.26218,10.42362 -10.1511,13.66038 -16.68911,7.84137 -21.63524,14.83549 -19.91511,28.16089 1.33246,10.32237 -0.12154,16.4922 -3.57435,15.16725 -2.33731,-0.89693 -5.1962,-10.51511 -4.39496,-14.78607 0.8279,-4.41309 -3.23517,-9.18041 -6.84719,-8.034 -1.16708,0.37041 -4.46629,-0.33212 -7.33556,-1.56203 -6.25741,-2.68225 -11.86806,-1.51712 -13.87183,2.88071 -1.34145,2.94414 -4.76478,2.82347 -11.04872,-0.38945 -3.72735,-1.90575 -8.288329,-1.23355 -12.636021,1.86225 -1.689644,1.20313 -3.592514,2.18754 -4.22861,2.18754 -2.917125,0 -8.838276,3.88811 -9.801832,6.4364 -8.056033,21.30533 -8.73193,31.84363 -2.638812,41.14288 5.725235,8.73783 23.055985,5.76431 26.456465,-4.53926 1.54826,-4.69124 9.79431,-7.70712 13.91768,-5.09019 1.52424,0.96737 0.9883,2.55913 -5.8366,17.3356 -4.68296,10.13897 -4.34568,11.04591 3.67734,9.88864 14.54935,-2.09862 15.94668,-0.7006 13.67179,13.67845 -2.18365,13.80213 3.90914,24.39614 11.6485,20.25417 4.72474,-2.52861 9.88415,-2.3264 13.63478,0.53433 3.58137,2.73166 10.29188,-0.40817 10.29188,-4.81555 0,-2.06241 5.59241,-6.59145 8.139,-6.59145 1.30587,0 3.52559,-1.22548 4.93272,-2.72328 2.85762,-3.04178 7.88938,-4.03275 5.43001,-1.0694 -2.06389,2.48682 -3.24397,10.4856 -1.91369,12.97125 1.10759,2.06957 1.19661,2.05761 3.21214,-0.43145 1.43504,-1.77221 1.72437,-2.90863 0.94018,-3.69282 -1.87104,-1.87105 -1.30768,-3.42601 2.17374,-5.99993 3.61451,-2.67231 6.41067,-2.39803 9.52969,0.9348 2.28691,2.44369 14.49761,5.74688 17.99719,4.86856 5.32922,-1.33755 19.72895,7.41782 25.13934,15.2853 2.57621,3.74616 10.80628,7.51615 14.42529,6.60782 7.44416,-1.86836 17.65025,5.59017 20.03701,14.64288 0.71079,2.69605 1.78244,5.20718 2.38142,5.58034 1.58927,0.99007 -0.79133,4.9023 -5.99549,9.85291 -3.32495,3.16294 -4.11889,4.52465 -3.18345,5.46008 0.93544,0.93543 2.47292,0.11556 6.16494,-3.28771 5.36971,-4.94961 7.16166,-5.45199 9.85171,-2.76192 2.01101,2.01099 -1.31764,6.87136 -4.80185,7.01154 -0.99489,0.04 -0.59279,0.51769 0.95645,1.1363 2.12808,0.84972 3.23823,0.61047 5.44656,-1.17381 5.75129,-4.64693 7.10371,-4.87019 12.21257,-2.016 3.32125,1.85554 4.65147,3.26828 4.48399,4.76225 -0.46565,4.15389 0.51395,5.07371 3.39384,3.18674 4.96843,-3.25542 19.31811,-0.37499 24.63894,4.94582 2.90153,2.90154 6.1654,4.80978 10.26528,6.00164 9.6038,2.79191 10.57261,12.54221 2.26586,22.80393 -1.95945,2.42059 -4.36118,5.97412 -5.33717,7.89672 -0.97599,1.92262 -3.05152,4.77266 -4.61229,6.33345 -2.64195,2.64193 -2.78896,3.30278 -2.13035,9.57605 2.04091,19.43989 -7.57625,42.96772 -16.96877,41.5131 -2.45371,-0.38001 -4.27007,-0.13488 -4.74959,0.64101 -0.42703,0.69097 -2.80575,2.14858 -5.286,3.23911 -8.66047,3.80786 -12.09884,7.70035 -10.65811,12.06579 1.36522,4.13665 0.44584,9.03452 -2.47999,13.21171 -0.94594,1.35052 -1.71989,3.64819 -1.71989,5.1059 0,1.45772 -1.13651,4.16724 -2.52561,6.02116 -1.38908,1.8539 -4.06866,6.09768 -5.95463,9.43062 -4.6399,8.1998 -7.42987,9.62045 -14.1577,7.20912 -7.88167,-2.82488 -13.15685,-1.52178 -6.36565,1.57247 11.41533,5.2012 6.3465,19.47175 -6.91626,19.47175 -4.87064,0 -6.07894,1.19131 -4.39663,4.33473 1.03844,1.94036 0.33993,5.06216 -1.66822,7.45568 -0.16272,0.19395 -1.86832,-0.4605 -3.79021,-1.45435 -4.58784,-2.37243 -6.21197,-0.86122 -3.89329,3.6226 0.9431,1.82376 2.73627,3.64014 3.98482,4.0364 2.14593,0.68109 2.16915,0.83207 0.42451,2.7599 -1.01619,1.12285 -1.54338,2.82708 -1.17306,3.7921 0.39794,1.03704 -0.4896,3.2764 -2.17365,5.48428 -3.03275,3.97616 -1.98013,8.23293 2.45687,9.93555 3.28049,1.25886 3.8243,5.55993 1.32286,10.46316 -2.506,4.91217 -2.89058,9.83699 -0.95069,12.17441 1.76325,2.12458 -4.17025,6.26391 -6.83851,4.77068 z M 155.8088,216.95355 c 2.9105,-6.08205 8.32648,-10.61169 12.68813,-10.61169 3.13946,0 3.1764,0.50948 0.30195,4.16377 -2.26024,2.87342 -2.26024,2.87342 0.0588,4.75125 2.76449,2.23854 7.17294,0.83372 8.27443,-2.63679 0.50011,-1.57567 1.31331,-1.94373 3.23122,-1.46238 1.77544,0.44561 2.88694,0.0644 3.61752,-1.24118 2.21338,-3.95508 -3.41929,-9.01324 -7.56579,-6.7941 -2.96686,1.58781 -6.84311,-1.57121 -6.01579,-4.90273 1.50893,-6.07624 -4.89226,-8.72137 -14.59045,-6.02917 -2.69604,0.74841 -5.77033,1.32715 -6.83172,1.2861 -1.06142,-0.041 -1.64523,0.38589 -1.29737,0.94876 0.34788,0.56285 0.23592,1.03428 -0.24877,1.04761 -0.48469,0.0135 -2.10106,0.9614 -3.5919,2.10685 -4.07214,3.12871 1.4481,5.23129 6.90392,2.62961 3.32366,-1.58494 3.91388,-1.58112 7.0602,0.046 1.98559,1.02677 4.5356,1.49884 6.04721,1.11944 1.43762,-0.36081 2.9145,-0.16947 3.28196,0.425 0.37556,0.60768 -1.15893,1.38973 -3.5044,1.78599 -8.76797,1.48134 -20.79347,16.05186 -16.85554,20.42273 2.41205,2.67725 5.55241,0.22547 9.03641,-7.05499 z m 19.79086,6.72373 c 3.87766,-1.97823 4.25073,-2.47515 2.88418,-3.8417 -1.92689,-1.92689 -11.78196,1.86296 -11.78196,4.53085 0,2.24715 3.70457,1.96021 8.89778,-0.68915 z m 19.31461,-8.23104 c 2.26902,-1.58931 2.35298,-1.90104 0.75292,-2.79649 -2.35571,-1.31831 -9.35774,0.9532 -9.35774,3.0357 0,2.14573 5.41478,1.99517 8.60482,-0.23921 z m 81.8078,470.40941 c 0,-0.4793 0.58824,-1.45967 1.30718,-2.17862 0.71895,-0.71893 0.89554,-1.30716 0.39243,-1.30716 -0.50313,0 -1.50253,0.80384 -2.22095,1.78633 -1.03147,1.4106 -1.74405,1.53214 -3.38803,0.57779 -1.17508,-0.68219 -1.46075,-1.223 -0.65588,-1.24169 0.78424,-0.0174 1.12298,-0.52331 0.75269,-1.12243 -0.71112,-1.1506 1.15817,-1.46431 6.53584,-1.09688 4.79971,0.32794 5.28234,1.02872 2.31564,3.36234 -2.76358,2.17383 -5.03892,2.72488 -5.03892,1.22032 z m 909.71673,-27.33869 c -3.1167,-1.97443 3.3735,-6.3345 19.4638,-13.07588 4.4934,-1.88259 11.3403,-5.81968 15.2156,-8.74907 6.5895,-4.98142 7.1361,-5.19714 8.4418,-3.33281 1.9824,2.83031 0.8142,4.87893 -4.0275,7.0622 -2.3135,1.04328 -5.2225,3.06546 -6.4645,4.49374 -1.2418,1.42827 -3.2402,2.59685 -4.4406,2.59685 -1.2005,0 -4.0222,1.65086 -6.2707,3.66861 -7.6963,6.90677 -17.4452,10.16988 -21.9179,7.33636 z m -76.2354,-14.15106 c -1.132,-0.71718 -1.1951,-1.45551 -0.2724,-3.17962 0.6609,-1.23504 1.2017,-3.78137 1.2017,-5.6585 0,-3.06857 0.2473,-3.32594 2.451,-2.55081 1.348,0.47416 4.1666,0.92625 6.2635,1.00465 2.0969,0.0784 4.1915,0.21364 4.6547,0.30058 1.8056,0.33893 -3.0201,5.83161 -7.3559,8.37252 -5.1638,3.02624 -4.9504,2.97363 -6.9426,1.71118 z m 125.8737,-9.52558 c -0.3791,-0.37909 0.5183,-1.63917 1.9942,-2.80013 2.223,-1.74851 2.4821,-2.4872 1.5103,-4.30324 -1.4062,-2.6276 0.6827,-5.44734 5.5201,-7.45106 3.7477,-1.55235 4.6915,-4.70252 3.6865,-12.30505 -0.6913,-5.23019 -0.6067,-5.55659 1.0787,-4.16269 1.3233,1.09443 1.6486,2.47317 1.1768,4.98807 -0.9198,4.90285 3.9922,10.98215 7.3999,9.15839 1.9255,-1.03044 2.1512,-0.93649 1.5449,0.64303 -0.3904,1.01739 -0.7097,2.0422 -0.7097,2.2774 0,0.23516 -1.5932,1.24329 -3.5403,2.24029 -1.9471,0.99698 -5.7461,3.63392 -8.4421,5.85987 -6.7421,5.56644 -9.8737,7.20075 -11.2193,5.85512 z m -115.19,-14.06903 c -2.2937,-2.4415 -2.7177,-2.53556 -4.9217,-1.09154 -4.9571,3.24811 -15.9989,-2.44455 -13.5645,-6.99336 0.993,-1.85524 1.0258,-3.15588 0.1296,-5.12323 -0.6608,-1.4502 -1.2015,-3.59404 -1.2015,-4.7641 0,-2.63926 -1.7133,-2.76517 -3.132,-0.23015 -0.5841,1.04348 -1.3739,1.58514 -1.7553,1.20371 -0.3814,-0.38145 0.8801,-2.48583 2.8035,-4.67641 4.7334,-5.39095 2.8861,-6.85459 -3.3662,-2.66722 -2.6942,1.80431 -5.0729,3.77545 -5.2863,4.3803 -0.2132,0.60487 -1.508,-1.26194 -2.8771,-4.14848 -5.5805,-11.76502 -23.2175,-13.04991 -42.9529,-3.12921 -2.7991,1.40708 -8.2609,2.8475 -12.4731,3.28945 -4.1216,0.43245 -10.6763,1.98422 -14.5662,3.44839 -5.9489,2.23914 -7.6421,2.47424 -10.6561,1.47951 -4.0432,-1.33435 -5.7225,-4.08466 -3.1069,-5.08834 3.6888,-1.41555 6.0368,-9.84226 4.6733,-16.77253 -0.9062,-4.60612 -0.9313,-8.96746 -0.093,-16.05865 0.6331,-5.35433 0.8754,-10.78933 0.5385,-12.07776 -2.122,-8.11444 16.8047,-21.88506 30.0795,-21.88506 4.5024,0 10.0777,-4.28381 13.1513,-10.10496 1.8997,-3.59781 3.2174,-4.96663 4.3573,-4.52612 3.1817,1.22966 3.8098,0.98819 3.5647,-1.37057 -0.1576,-1.5173 0.4941,-2.62082 1.7911,-3.03247 1.1214,-0.35595 3.1937,-2.33944 4.6051,-4.40777 3.7024,-5.4258 10.2171,-7.90109 13.3352,-5.06678 4.5522,4.13778 12.76,5.01595 8.672,0.9278 -1.247,-1.24695 4.4583,-8.40565 7.247,-9.09328 1.4978,-0.36931 4.573,-1.59811 6.8337,-2.73067 3.5254,-1.76614 4.7655,-1.88325 8.7145,-0.82301 8.516,2.2865 8.7988,2.66047 5.6311,7.44711 -4.1511,6.2729 9.4634,23.47424 16.6764,21.06991 3.3356,-1.11186 8.6898,-10.7021 9.2741,-16.61121 1.3486,-13.63906 5.2857,-18.34568 7.8803,-9.42046 0.9321,3.20643 2.8854,6.94845 4.3407,8.31556 3.4008,3.19499 5.3764,12.12885 3.8492,17.4074 -1.0118,3.49751 -0.8166,4.05884 2.6513,7.62515 2.0589,2.11735 5.3151,7.28106 7.236,11.47489 1.9209,4.19383 5.3844,10.12776 7.6966,13.18652 8.0338,10.62745 -2.2218,40.3562 -15.3603,44.52623 -1.1637,0.36928 -3.8592,3.09848 -5.9904,6.06491 -2.1312,2.9664 -4.3545,5.39344 -4.9406,5.39344 -0.5862,0 -3.0781,2.54569 -5.5374,5.65709 -4.1019,5.18917 -4.857,5.66432 -9.1308,5.74464 -3.28,0.0617 -5.7912,0.95115 -8.4844,3.00533 -3.8253,2.91775 -3.8253,2.91775 -6.3353,0.246 z m -531.16776,-22.9029 c -2.30689,-2.30691 -2.69235,-3.48689 -2.1768,-6.66386 0.48519,-2.98993 0.0232,-4.74852 -2.04907,-7.798 -1.47157,-2.16558 -2.67557,-4.47041 -2.67557,-5.12179 0,-0.65139 -1.92627,-3.76615 -4.2806,-6.92168 -3.63877,-4.87706 -4.38644,-6.82569 -4.98649,-12.99609 -1.05878,-10.88765 -4.5352,-22.67225 -9.20802,-31.21409 -6.90481,-12.62186 -6.66816,-19.24694 1.23673,-34.62245 3.23428,-6.29087 3.23428,-6.29087 1.41692,-11.76246 -1.01666,-3.06087 -1.51335,-6.68284 -1.12734,-8.22082 0.45179,-1.8001 -0.0338,-3.94439 -1.40643,-6.21114 -1.15303,-1.90403 -2.8653,-6.15793 -3.80507,-9.45309 -1.25524,-4.40137 -3.00507,-7.26314 -6.59408,-10.78438 -6.90382,-6.77346 -7.80144,-9.43999 -5.65877,-16.8105 4.36179,-15.00405 -0.35037,-23.75498 -11.86189,-22.0287 -4.48187,0.67209 -4.65339,0.58844 -5.28671,-2.57814 -0.48588,-2.42939 -1.80249,-3.85842 -5.10901,-5.54528 -4.29641,-2.19186 -6.13529,-2.20016 -11.41106,-0.0515 -11.0265,4.49083 -19.8187,6.56829 -23.40107,5.52931 -2.97181,-0.86189 -5.47503,-0.63889 -11.5566,1.0296 -12.69441,3.48264 -29.37996,-5.60621 -32.94683,-17.94661 -1.33987,-4.63561 -9.67289,-15.4393 -12.50886,-16.21763 -1.80226,-0.49463 -2.02393,-0.87757 -0.9204,-1.5898 1.10993,-0.71632 0.91671,-1.07863 -0.81698,-1.53201 -2.75288,-0.7199 -3.02681,-2.96977 -0.36439,-2.99305 1.62909,-0.0135 1.66869,-0.17025 0.27232,-1.07262 -1.02913,-0.66507 -1.14352,-1.06213 -0.30907,-1.07264 0.8651,-0.0112 0.53582,-1.35407 -0.94875,-3.87023 -2.08938,-3.54125 -2.13288,-4.00906 -0.53659,-5.77294 4.87349,-5.38517 5.94132,-16.97984 2.23655,-24.28504 -1.76862,-3.48738 -0.63132,-8.30471 3.14287,-13.31296 1.42102,-1.88561 4.19538,-6.47379 6.16529,-10.19596 3.44588,-6.51106 11.12698,-15.5633 13.20591,-15.5633 2.30057,0 9.72306,-7.97981 9.72306,-10.45315 0,-5.58383 3.3386,-11.15127 8.78155,-14.64399 2.92468,-1.87678 6.35188,-5.08579 7.616,-7.13116 2.58565,-4.1837 2.95185,-4.32013 5.96322,-2.22145 4.83701,3.37093 10.45817,3.20342 17.41858,-0.51909 9.40568,-5.0303 15.21813,-6.28653 25.98031,-5.61511 7.09806,0.44284 10.29334,0.15981 13.73405,-1.217 5.06678,-2.02731 9.44723,-0.82754 8.26135,2.2628 -0.35637,0.92866 -0.13874,2.30201 0.48358,3.05187 0.78316,0.94364 0.77706,2.29571 -0.0198,4.3916 -1.42673,3.75257 2.54362,8.58111 7.94406,9.66118 8.75449,1.75092 11.24374,2.88481 13.05159,5.94523 1.3243,2.24188 3.06063,3.39277 5.931,3.93126 2.23221,0.41877 5.47355,1.4931 7.20294,2.38743 3.75049,1.93945 8.94171,-1.55909 7.77376,-5.23898 -2.07683,-6.54349 4.84699,-8.09737 14.51464,-3.25745 7.93754,3.97379 23.67724,7.00059 28.74889,5.52854 5.6195,-1.63107 9.76625,-0.35876 8.98435,2.75655 -0.34762,1.38497 -0.094,2.85054 0.56334,3.25685 0.65743,0.40632 0.94326,1.14663 0.63516,1.64516 -0.30811,0.49851 1.48457,4.26362 3.98373,8.36685 2.49915,4.10329 6.50116,11.38202 8.89335,16.17499 2.39221,4.79294 5.49341,10.2313 6.8916,12.08519 1.43963,1.90888 2.54213,4.89261 2.54213,6.8798 0,4.10478 1.22463,6.66657 6.03518,12.62494 1.93481,2.3965 3.84622,5.89532 4.24757,7.77522 0.51476,2.41104 2.61754,4.93211 7.13785,8.55773 6.86963,5.50992 11.32093,11.26105 12.4257,16.05419 1.54984,6.72388 18.41947,6.87794 31.16941,0.28469 12.831,-6.63516 -5.73552,34.39734 -21.02639,46.46894 -4.66672,3.6842 -9.55028,8.19467 -10.85234,10.02325 -1.30206,1.82857 -5.46788,6.76716 -9.25736,10.97464 -11.0592,12.27904 -12.56252,23.07826 -5.22765,37.55295 1.86302,3.67653 2.59079,6.45972 2.14921,8.21919 -0.36724,1.46318 -0.13178,5.15906 0.52315,8.21307 1.90544,8.88478 -1.67051,14.53535 -12.69475,20.05975 -3.14537,1.57619 -5.71888,3.33137 -5.71888,3.90041 0,0.56902 -2.20585,3.51824 -4.90189,6.55384 -5.64666,6.35785 -5.63043,6.28389 -2.65611,12.11407 3.7031,7.25865 1.21474,12.51853 -7.66159,16.19526 -3.74205,1.54999 -4.97065,4.71453 -4.04496,10.41873 0.485,2.98885 0.17641,3.9833 -1.51695,4.88961 -1.1692,0.62572 -3.28286,2.95481 -4.69708,5.17577 -8.96429,14.07797 -25.3739,26.10154 -32.81787,24.04615 -3.15192,-0.87026 -5.69565,-0.73242 -10.98026,0.59504 -8.5598,2.15016 -7.65173,2.23922 -10.96657,-1.07561 z m 113.4672,-43.16005 c -5.5199,-3.1301 -6.28487,-12.75762 -1.61649,-20.34466 3.12387,-5.07693 3.34868,-6.05489 2.65968,-11.56956 -0.99484,-7.96239 0.69843,-12.14667 5.3263,-13.1619 4.36016,-0.95653 13.79421,-9.28521 16.05477,-14.17371 1.72738,-3.73553 1.72738,-3.73553 2.92803,-1.10037 3.02089,6.63013 2.7135,9.54251 -2.54216,24.08475 -2.81204,7.78085 -5.82894,17.08813 -6.70423,20.68285 -2.80122,11.5044 -4.39273,14.27831 -8.98082,15.65293 -4.88485,1.46354 -4.412,1.46821 -7.12508,-0.0703 z m 536.59396,-18.93831 c -3.4756,-3.80288 -5.5559,-7.06577 -5.5559,-8.71448 0,-3.65506 0.5869,-3.336 3.7304,2.02783 1.5031,2.5648 4.2198,6.08784 6.0372,7.82895 1.8172,1.74112 3.3042,3.56413 3.3042,4.05117 0,2.09523 -2.3188,0.49295 -7.5159,-5.19347 z m 59.371,-16.35015 c -1.061,-2.76494 0.2858,-3.73402 3.2883,-2.36601 2.5916,1.18077 2.6484,1.36154 0.8423,2.68219 -2.526,1.84706 -3.3239,1.78596 -4.1306,-0.31618 z m -116.669,-35.73464 c -6.8935,-2.17377 -10.0192,-4.19299 -12.7322,-8.22517 -5.571,-8.28014 -12.102,-9.37208 -16.0485,-2.68324 -2.6914,4.56152 -8.2233,4.42174 -13.3277,-0.33671 -2.023,-1.88565 -3.5731,-2.48147 -5.1524,-1.98025 -4.0784,1.29448 -6.2185,-0.91952 -2.9554,-3.05762 6.3344,-4.15042 -9.8898,-18.14449 -21.036,-18.14449 -4.0509,0 -5.7236,-3.73393 -2.6722,-5.96516 1.8151,-1.32725 1.5495,-1.65713 -3.1857,-3.9577 -5.0284,-2.44295 -5.1002,-2.54628 -2.6984,-3.88002 5.1443,-2.85669 10.6373,-0.17971 10.6373,5.18388 0,4.07302 4.5179,8.0118 6.4389,5.61367 5.2652,-6.57269 11.3269,-8.11789 18.7351,-4.77585 3.8283,1.72707 9.2629,3.96983 12.0767,4.9839 11.9411,4.30331 24.549,15.00526 21.7091,18.4271 -1.5767,1.89977 4.617,10.5539 11.0284,15.40932 7.0469,5.33679 6.9278,5.83054 -0.817,3.38834 z m -117.2031,-5.96159 c 3.0889,-4.33817 7.9237,-6.19487 12.3934,-4.75948 3.2567,1.04585 3.3076,1.13313 0.7216,1.23647 -1.5302,0.0613 -5.1012,1.58179 -7.9352,3.37915 -6.4674,4.10143 -8.0288,4.14479 -5.1798,0.14395 z m -38.0234,1.8554 c 0,-1.02591 25.0266,-72.05073 25.5847,-72.60891 1.0645,-1.0644 0.4984,0.65145 -11.9672,36.26943 -11.0616,31.60649 -13.6175,38.42712 -13.6175,36.33948 z m 6.8014,-4.8761 c -0.7527,-0.31745 -1.0914,-1.02551 -0.7527,-1.57344 0.832,-1.3464 7.8137,-1.27135 8.6569,0.0929 0.3703,0.59913 0.031,1.09599 -0.7527,1.10419 -0.7842,0.0102 -2.4062,0.22605 -3.6045,0.48412 -1.1983,0.25809 -2.7944,0.20952 -3.547,-0.10798 z m 16.172,-0.81771 c -1.9794,-2.38507 0.3016,-3.111 5.4334,-1.72916 5.17,1.3921 5.1525,1.60955 -0.2062,2.57698 -2.783,0.5024 -4.3126,0.25429 -5.2272,-0.84782 z m -33.8665,-1.94761 c -3.8943,-0.53989 -9.385,-1.73775 -12.2016,-2.66191 -2.8165,-0.92415 -6.13512,-1.3584 -7.37464,-0.96503 -2.49397,0.79158 -13.10308,-2.32711 -13.10308,-3.85183 0,-3.48202 9.76545,-3.74647 14.95471,-0.405 1.93721,1.24745 3.46441,1.33084 7.56071,0.41287 4.5376,-1.01691 5.4829,-0.8917 8.149,1.07947 1.6588,1.22638 3.5094,2.22981 4.1124,2.22981 2.1536,0 8.6917,3.64397 8.14,4.53674 -0.3093,0.50039 -1.1462,0.84156 -1.8597,0.75815 -0.7135,-0.0836 -4.4836,-0.59337 -8.3778,-1.13327 z m 165.5918,-10.09414 c -2.7064,-1.49807 -2.7064,-1.49807 1.4889,-2.28514 2.3076,-0.43291 5.854,-2.24311 7.8806,-4.0227 2.2127,-1.94266 3.6787,-2.64646 3.6687,-1.76117 -0.025,2.21508 -1.3649,3.92195 -5.4366,6.92588 -4.253,3.13783 -4.0525,3.10768 -7.6016,1.14313 z m -204.33796,-4.24144 c -4.00219,-2.27991 -11.22032,-11.10087 -13.57033,-16.5836 -1.26758,-2.95739 -4.17262,-7.828 -6.45565,-10.82362 -2.28302,-2.99557 -4.90363,-6.9171 -5.82355,-8.71445 -0.91996,-1.79736 -3.71419,-5.2287 -6.20942,-7.62516 -5.26103,-5.05279 -8.49663,-10.36248 -6.29152,-10.32453 2.85806,0.0494 10.21614,4.14032 13.37201,7.43485 8.70605,9.08857 10.48987,10.706 14.59962,13.23811 3.96632,2.44373 5.84426,4.98692 6.03275,8.16981 0.0355,0.59913 1.16347,2.31479 2.50665,3.81259 1.34319,1.49779 3.87737,4.31479 5.63156,6.25999 6.74757,7.48238 3.75226,19.45385 -3.79212,15.15601 z m 68.69616,-0.72888 c -0.3737,-0.60448 -0.3766,-2.05271 -0.011,-3.21827 0.3704,-1.16705 -0.079,-3.26733 -1.0018,-4.6745 -1.517,-2.31531 -1.5025,-2.80037 0.1536,-5.16504 1.0054,-1.43536 2.1917,-5.2897 2.6361,-8.56517 1.2095,-8.91307 4.141,-11.41751 11.6887,-9.98611 4.5886,0.87022 6.3942,0.76281 8.8921,-0.52892 4.183,-2.16309 4.4882,-2.06636 3.0991,0.98232 -1.7658,3.87535 -5.2937,5.11392 -9.014,3.16462 -6.6428,-3.48052 -15.4567,1.69218 -10.8067,6.3422 1.7092,1.70922 2.6551,1.86462 5.8211,0.9566 5.4265,-1.55632 7.5661,-1.27053 4.1962,0.56052 -3.8145,2.07254 -4.5383,4.37254 -2.5725,8.17402 0.8945,1.72964 1.6263,4.41189 1.6263,5.96049 0,4.03282 -3.7998,1.82466 -6.0251,-3.50138 -2.5032,-5.99106 -6.5887,-2.1289 -4.7587,4.49866 1.327,4.80597 -1.6811,8.6352 -3.9279,4.99996 z m 149.4538,-5.81005 c -1.0269,-1.56714 -3.3785,-3.63098 -5.2259,-4.5863 -1.8474,-0.95531 -3.1138,-1.98204 -2.8142,-2.28159 1.6938,-1.69384 11.1463,5.99941 10.3407,8.41617 -0.2475,0.74245 -1.2353,0.0776 -2.3006,-1.54828 z m -171.0612,-3.62549 c -1.6434,-0.86102 -3.8574,-1.2895 -4.9202,-0.95218 -9.845,3.12469 -15.5225,-2.17011 -19.22,-17.92458 -0.95938,-4.08757 1.6723,-7.17638 4.7231,-5.54359 2.084,1.11527 2.526,0.92446 3.6687,-1.58341 0.7146,-1.56832 3.0932,-3.76675 5.2859,-4.88534 2.3222,-1.18471 4.5535,-3.40241 5.3445,-5.31183 0.9117,-2.20133 2.5769,-3.6804 5.0697,-4.5031 2.0417,-0.67381 4.9904,-2.90096 6.5526,-4.94924 3.5237,-4.61977 4.5403,-4.6344 8.9079,-0.12812 3.4853,3.59594 3.4853,3.59594 0.6914,7.35282 -3.1738,4.26801 -3.0074,7.93879 0.5886,12.98915 2.1774,3.05769 2.1774,3.05769 -0.5356,4.83533 -1.4921,0.9777 -2.711,2.37908 -2.7086,3.11417 0.026,7.93594 -9.0794,19.77898 -13.448,17.48999 z m 63.2794,-0.0201 c -2.2542,-0.58913 -2.5671,-2.51707 -0.4084,-2.51707 4.4785,0 8.7189,1.46178 6.621,2.28248 -2.3654,0.92531 -3.4173,0.96501 -6.2126,0.23455 z m -3.816,-16.84494 c -0.8708,-0.87082 -0.9222,-1.88024 -0.1676,-3.29044 0.5988,-1.11883 0.7984,-2.50417 0.4433,-3.07854 -0.9822,-1.58952 1.4786,-5.44655 3.4752,-5.44655 1.6015,0 1.5951,0.18705 -0.069,2.0263 -1.4394,1.59046 -1.5995,2.64269 -0.7441,4.89241 1.729,4.54767 -0.1517,7.68272 -2.9376,4.89682 z m -114.10167,-10.8119 c -4.99328,-3.77367 -7.72675,-8.53338 -10.23209,-17.81674 -1.4721,-5.45471 -2.49606,-7.06313 -6.25947,-9.83223 -4.83976,-3.56104 -5.26363,-6.09125 -3.0478,-18.19287 0.56555,-3.08867 0.0978,-5.30166 -2.072,-9.80379 -1.54132,-3.19807 -3.36392,-8.10972 -4.05021,-10.91481 -1.53323,-6.26658 -3.69857,-7.31607 -7.527,-3.6482 -1.5828,1.51645 -3.18365,2.75715 -3.5574,2.75715 -1.73369,0 -4.11578,-3.69055 -3.54431,-5.49113 1.03776,-3.2697 -5.34395,-14.66747 -9.0786,-16.2144 -2.04329,-0.84638 -3.91144,-2.89906 -5.1617,-5.67162 -2.17217,-4.81702 -4.60897,-6.66026 -7.04351,-5.32779 -0.8832,0.48339 -4.41887,1.4558 -7.85701,2.16091 -6.30284,1.29263 -8.56415,3.20136 -7.70134,6.50071 0.31769,1.21488 -0.78512,2.38833 -3.42995,3.64957 -2.14402,1.0224 -4.45398,3.0787 -5.13324,4.56954 -0.67928,1.49084 -2.17485,3.0089 -3.32351,3.37348 -1.14867,0.36456 -2.92089,2.03166 -3.93831,3.70465 -1.01739,1.67301 -4.04727,4.73055 -6.73302,6.79456 -3.6759,2.82493 -4.8232,4.40535 -4.64052,6.3924 1.30333,14.17737 -2.4591,28.37159 -8.51205,32.11252 -2.08675,1.28966 -6.2721,-2.11268 -6.93308,-5.63601 -0.37959,-2.02342 -2.57363,-7.72428 -4.87564,-12.6686 -13.92847,-29.91589 -15.98785,-35.62401 -14.80131,-41.02619 0.80178,-3.65056 -1.1219,-9.15874 -2.98076,-8.53499 -0.74523,0.25004 -1.36791,1.14773 -1.38374,1.99483 -0.0929,4.97211 -5.67874,5.73548 -10.04188,1.37232 -2.89115,-2.89114 -2.89115,-2.89114 -0.40391,-3.81123 2.79854,-1.03526 2.54171,-3.82719 -0.30501,-3.31546 -1.01151,0.18183 -3.32666,-0.92111 -5.14479,-2.45095 -1.81811,-1.52985 -3.72524,-2.78155 -4.23801,-2.78155 -0.51279,0 -1.24519,-0.98577 -1.62758,-2.19057 -1.004,-3.16334 -6.78256,-5.9155 -9.67865,-4.60964 -7.8033,3.5185 -31.54001,0.31495 -36.06854,-4.8679 -3.24789,-3.71719 -3.29798,-3.73202 -8.16989,-2.41874 -7.00973,1.88954 -17.06638,-3.03497 -20.1464,-9.86522 -3.4789,-7.71482 -10.59988,-9.60129 -12.00989,-3.18161 -0.55261,2.51599 0.0112,4.1507 2.68164,7.78265 1.85965,2.52873 3.88581,6.47187 4.50265,8.76252 1.32486,4.92018 3.94106,6.38377 6.10971,3.41798 1.57653,-2.15603 4.08271,-0.39369 3.22617,2.26865 -1.96919,6.1207 9.97899,5.07905 15.6508,-1.36445 3.76334,-4.27535 5.07732,-4.56392 4.43403,-0.97369 -0.43297,2.41632 1.4683,5.24866 4.61537,6.87555 10.53648,5.44693 13.15061,9.46113 8.80359,13.51864 -1.55611,1.45243 -3.79572,4.52569 -4.97695,6.82944 -2.86994,5.59735 -11.18848,13.78496 -14.00537,13.78496 -3.25539,0 -8.09859,2.7492 -10.02638,5.69136 -1.76828,2.69873 -3.65536,3.77264 -18.36261,10.44987 -17.25941,7.83594 -20.18745,6.71491 -22.24376,-8.51606 -0.57863,-4.28568 -1.7008,-7.00979 -3.94207,-9.56935 -1.72321,-1.96799 -3.13315,-4.05073 -3.13315,-4.62831 0,-0.57761 -1.96573,-3.07572 -4.36828,-5.55142 -2.99224,-3.08328 -4.92574,-6.42936 -6.13781,-10.62201 -0.97323,-3.36642 -2.96091,-7.59133 -4.41705,-9.3887 -9.78288,-12.07529 -13.59644,-17.79352 -14.64565,-21.96022 -1.3185,-5.23629 -3.86355,-6.31683 -4.39974,-1.86801 -0.33269,2.76028 -0.5093,2.66405 -5.07461,-2.76541 -5.44707,-6.4781 -5.29594,-8.22513 0.8548,-9.88136 4.01235,-1.08041 4.46871,-1.57315 5.09721,-5.50362 0.37968,-2.37436 0.99531,-4.31699 1.36807,-4.31699 0.70712,0 1.07582,-3.15431 1.17788,-10.07612 0.0331,-2.2467 0.56413,-4.08491 1.18002,-4.08491 0.73362,0 0.6975,-0.78907 -0.10476,-2.28803 -1.33967,-2.5032 -4.05624,-2.44604 -10.55812,0.22213 -3.08348,1.26537 -3.94168,1.2116 -6.70391,-0.4201 -3.58171,-2.11577 -7.25764,-2.43315 -8.31757,-0.71814 -0.78816,1.27526 -6.35786,0.38136 -9.37876,-1.50521 -2.17038,-1.3554 -4.19823,-5.38963 -4.19823,-8.35183 0,-1.13607 -1.10293,-2.8425 -2.45095,-3.79205 -2.98028,-2.09929 -0.82336,-4.25123 3.29092,-3.28329 1.73549,0.40829 3.33117,-0.27522 5.34588,-2.28994 1.89597,-1.89597 4.20177,-2.94251 6.78518,-3.07964 2.15229,-0.1142 5.26986,-1.10166 6.92796,-2.19427 3.59959,-2.37198 11.77195,-1.71285 18.11251,1.46087 8.95164,4.48067 16.36995,4.05246 19.42619,-1.12134 3.76355,-6.3712 34.06427,6.50817 34.06427,14.47907 0,5.86025 13.02904,12.99708 18.53223,10.15127 3.80427,-1.96725 4.78019,-9.89707 1.54814,-12.57943 -2.87763,-2.38822 -5.46976,-8.04413 -3.30617,-7.21387 2.09525,0.80401 5.01196,-0.16309 5.01196,-1.66171 0,-3.08076 -4.53433,-7.38631 -6.60932,-6.27583 -1.4101,0.75468 -2.10515,0.76165 -2.10515,0.021 0,-0.60804 -1.94436,-2.09744 -4.32081,-3.3098 -8.77804,-4.47822 -7.01342,-14.36223 2.05052,-11.48543 1.14782,0.36432 2.37144,0.20207 2.71913,-0.3605 0.58186,-0.9415 -0.58169,-2.29659 -8.52869,-9.93252 -1.54375,-1.48329 -3.11727,-4.42444 -3.49671,-6.53585 -0.75371,-4.19387 -2.20284,-6.56216 -4.01534,-6.56216 -0.64026,0 -0.39572,0.61273 0.54342,1.36164 0.93915,0.74888 2.01904,3.04512 2.39976,5.10273 0.3807,2.0576 1.42617,4.55214 2.32329,5.54343 1.48119,1.63671 1.25479,1.91562 -2.46387,3.03519 -8.31444,2.50317 -16.50531,12.09889 -12.2648,14.36835 1.19823,0.64127 2.17861,1.89494 2.17861,2.78594 0,0.89098 1.93758,3.722 4.30574,6.29115 4.2179,4.57588 7.2287,10.25223 6.05853,11.42239 -0.32435,0.32436 -6.09781,-2.16787 -12.82985,-5.5383 -6.73206,-3.37043 -14.32339,-6.44293 -16.86964,-6.82778 -2.54626,-0.38486 -4.62957,-1.10166 -4.62957,-1.59289 0,-0.49121 -4.14123,-3.21762 -9.20269,-6.05867 -9.20268,-5.16553 -9.20268,-5.16553 -7.6686,-8.13214 0.84374,-1.63161 1.25946,-3.24121 0.92377,-3.57687 -0.33564,-0.33567 -0.20732,-1.25565 0.28514,-2.04439 2.98198,-4.77589 1.35948,-4.81243 -9.0608,-0.20408 -6.21181,2.74714 -6.73339,5.77983 -1.01453,5.89863 1.78786,0.0371 1.36447,0.551 -1.85231,2.24822 -4.8862,2.57803 -11.06412,0.42064 -8.30741,-2.90101 1.02153,-1.23086 0.869,-1.70448 -0.74407,-2.31058 -1.11594,-0.41929 -2.5547,-1.46305 -3.19724,-2.31948 -3.12018,-4.15869 -13.01918,6.78145 -15.89815,17.57032 -1.35132,5.06405 -1.30632,5.32751 1.23767,7.24646 3.19295,2.40845 -4.34374,4.72736 -10.18146,3.13268 -3.18171,-0.86916 -7.21372,0.44072 -7.21372,2.34348 0,0.55923 -0.74152,0.73224 -1.64782,0.38445 -3.87871,-1.4884 -4.89356,1.66432 -2.17912,6.76951 4.34825,8.17792 -0.61609,14.86258 -5.23311,7.04655 -1.80487,-3.05536 -1.79298,-3.16709 0.37311,-3.50608 2.76433,-0.43261 2.97308,-2.40873 0.30234,-2.86218 -6.58366,-1.11782 -10.13365,-4.69451 -10.13365,-10.21 0,-4.36169 -4.04323,-9.16987 -8.94633,-10.63886 -2.54793,-0.76339 -5.31783,-2.36626 -6.15533,-3.56194 -0.83747,-1.1957 -3.28881,-2.91192 -5.44739,-3.81383 -2.1586,-0.90192 -4.57447,-2.56752 -5.36863,-3.70133 -1.63694,-2.33704 -5.67228,-1.08539 -5.67228,1.75937 0,2.82826 13.88444,15.62336 20.67104,19.04922 7.19587,3.63247 8.31993,4.92958 3.32035,3.83146 -4.45728,-0.97896 -5.67146,0.001 -4.14686,3.34718 1.0709,2.35037 0.89566,3.06538 -1.25865,5.1353 -2.50275,2.40479 -2.50275,2.40479 -1.93322,-0.84018 0.90403,-5.15092 -5.8874,-12.55002 -11.51936,-12.55002 -2.06446,0 -9.99617,-7.69396 -12.07404,-11.71214 -2.22026,-4.29348 -4.69086,-5.12292 -8.19072,-2.74983 -5.27227,3.57486 -9.22537,4.78346 -13.36067,4.0848 -5.49371,-0.92816 -8.95001,0.98754 -8.07458,4.47549 0.45703,1.82094 0.20265,2.63374 -0.82427,2.63374 -0.8169,0 -2.90954,1.22489 -4.65031,2.72198 -1.74077,1.49704 -3.53988,2.72253 -3.99801,2.72324 -1.3476,0.002 -5.14971,6.884 -5.15414,9.32899 -0.0102,4.63942 -8.31802,10.27992 -15.14445,10.27992 -3.32237,0 -4.68354,0.5475 -5.59492,2.25041 -1.19352,2.23012 -1.22979,2.22498 -4.02151,-0.56673 -2.61906,-2.61905 -4.1269,-3.27461 -9.41253,-4.09223 -2.77708,-0.42957 -3.24597,-6.71596 -1.16895,-15.67194 0.88792,-3.82856 1.32377,-8.11888 0.96859,-9.53402 -1.03219,-4.11257 2.19899,-6.53774 7.60438,-5.70742 19.53814,3.00121 22.61614,2.23372 23.92736,-5.96625 1.17664,-7.35811 -0.77768,-11.44593 -6.52057,-13.63917 -5.64906,-2.1574 -5.76814,-4.24433 -0.2453,-4.2998 2.10415,-0.0212 5.13966,-0.89934 6.74557,-1.95156 1.60587,-1.05224 3.38173,-1.62763 3.94633,-1.2787 1.53991,0.95169 7.37093,-2.40928 9.30745,-5.36476 0.93584,-1.42831 2.77866,-2.87149 4.09514,-3.2071 1.31651,-0.33559 4.84457,-2.89324 7.84017,-5.68365 4.24684,-3.95591 6.47525,-5.19622 10.11677,-5.63096 4.51154,-0.53854 9.04837,-4.24857 6.91846,-5.65762 -3.34597,-2.21351 -2.34487,-8.88335 1.7345,-11.55625 2.7918,-1.82927 2.7918,-1.82927 2.07506,2.65291 -0.78385,4.90191 0.30616,5.38684 5.58712,2.48565 2.0661,-1.13505 2.5728,-1.07989 3.11745,0.33948 0.93351,2.43266 -1.6619,5.29312 -3.45351,3.80621 -0.98961,-0.82132 -1.61745,-0.79155 -2.17024,0.10276 -0.57022,0.92264 -1.01635,0.8725 -1.6717,-0.18782 -0.49166,-0.79552 -1.14398,-1.19635 -1.44961,-0.89072 -2.08245,2.08247 4.59714,6.74364 7.97594,5.56578 2.81876,-0.98262 4.17239,-0.9156 6.57221,0.32542 2.7093,1.40102 3.62399,1.33427 8.83128,-0.64432 4.5624,-1.73358 6.36066,-1.95587 8.37991,-1.03582 4.80613,2.18981 11.5012,-2.86412 10.60831,-8.00794 -0.90163,-5.19409 0.74963,-6.89545 5.09901,-5.25376 5.43097,2.04999 7.8664,-0.70316 4.13529,-4.67476 -3.52661,-3.75388 -1.4516,-5.18437 6.3254,-4.36062 5.78563,0.61283 12.99553,-1.6473 11.73927,-3.67997 -1.10014,-1.78007 -7.74082,-2.29444 -13.36687,-1.03537 -11.83296,2.64808 -18.64121,-3.89151 -12.68858,-12.18788 5.24362,-7.30822 6.20249,-9.63718 4.70878,-11.43698 -2.21175,-2.66502 -4.38464,-1.79614 -9.43736,3.77367 -2.6699,2.94313 -6.30809,5.95332 -8.08487,6.68929 -6.9199,2.86633 -7.54076,11.46621 -0.97819,13.54911 3.34152,1.06055 2.68052,3.05119 -2.0991,6.3215 -1.47006,1.0058 -3.4308,3.85139 -4.35724,6.3235 -3.55712,9.4918 -12.83173,10.83171 -14.74294,2.12995 -1.51007,-6.87519 -6.18039,-10.38792 -10.39513,-7.81854 -6.44019,3.92601 -13.1843,1.49848 -13.68407,-4.92559 -0.13314,-1.711 -0.57773,-3.95018 -0.98809,-4.97593 -0.97602,-2.43982 3.90196,-7.01564 8.97101,-8.41527 5.08748,-1.40473 15.40609,-8.63636 17.1646,-12.02953 0.78221,-1.50937 3.35701,-4.479 5.72177,-6.59919 2.36474,-2.12017 4.50572,-4.47341 4.75772,-5.22939 0.41688,-1.25067 8.36712,-4.536789 20.23014,-8.361825 7.92957,-2.55676 22.14288,-1.352927 30.11596,2.550719 4.24237,2.077101 7.72909,3.091233 9.45851,2.751109 3.46907,-0.682271 23.5317,5.673277 24.30979,7.700977 1.50518,3.92239 -6.47152,4.55258 -20.27103,1.60144 -7.58445,-1.62199 -10.77424,-0.0697 -5.4812,2.66745 1.74955,0.90475 3.74703,2.88726 4.43883,4.40556 1.80678,3.96549 9.14011,7.50218 12.72755,6.13824 3.50125,-1.33116 3.47698,-1.75103 -0.21718,-3.75515 -3.41676,-1.85362 -1.83973,-2.25435 2.45135,-0.62289 3.42615,1.30262 7.30777,-0.31794 6.40386,-2.67354 -0.42337,-1.10332 0.76711,-1.8999 4.12548,-2.76045 7.29593,-1.86948 7.71487,-2.09858 7.01221,-3.83446 -0.36171,-0.89365 -0.97019,-2.39915 -1.35218,-3.34557 -0.55361,-1.37162 -0.0563,-1.64791 2.45095,-1.36164 1.75063,0.19989 3.02948,0.94852 2.88396,1.68826 -0.70779,3.59762 4.23491,3.82131 10.60899,0.4801 7.62393,-3.99636 13.55948,-5.299283 15.77284,-3.46233 1.2342,1.02428 3.28043,1.03147 9.20381,0.0324 4.18921,-0.7066 8.09263,-0.99065 8.6742,-0.63121 0.58159,0.35944 1.37861,0.13387 1.77113,-0.50127 0.95145,-1.539492 -1.45379,-4.33515 -3.16486,-3.67855 -0.7442,0.285584 -2.54658,0.06051 -4.00526,-0.5003 -6.72747,-2.586148 1.55825,-2.091838 12.86733,0.767642 19.99136,5.054798 21.16478,7.767448 6.53901,15.116828 -2.84582,1.42997 -5.17396,2.94184 -5.17366,3.35965 9.1e-4,1.27629 4.49028,12.67031 5.44969,13.83137 0.49508,0.5991 1.2501,4.64095 1.6778,8.98185 0.51971,5.27463 1.45375,8.67211 2.81599,10.24279 1.12109,1.29263 2.03836,2.72534 2.03836,3.18377 0,2.23666 -1.51166,4.27966 -3.16661,4.27966 -3.89417,0 -4.47293,2.30511 -1.54316,6.14625 3.18982,4.18207 5.19386,4.59711 7.14118,1.47891 2.57629,-4.12529 7.26939,-0.46645 5.70876,4.45065 -0.38224,1.20437 -0.22076,2.77897 0.35886,3.49912 4.00339,4.97401 -2.2342,7.95773 -10.59043,5.06587 -5.78101,-2.00062 -7.46477,-2.16922 -11.50451,-1.15201 -2.6028,0.65538 -6.23813,0.89046 -8.0785,0.5224 -3.93263,-0.78654 -5.46596,1.51576 -3.58003,5.37539 0.99613,2.03867 1.07186,1.84429 0.51406,-1.31966 -0.65121,-3.69392 -0.63838,-3.70731 2.87898,-3.00384 1.94322,0.38866 5.64795,0.17411 8.23273,-0.47673 4.01726,-1.01155 5.74571,-0.83001 11.90498,1.25048 6.80732,2.29941 7.31875,2.33125 9.25782,0.57639 2.46331,-2.22926 3.56994,-5.8146 2.07914,-6.73599 -0.59143,-0.36553 -0.76813,-1.88848 -0.39271,-3.38435 1.3894,-5.53575 -4.55814,-10.39806 -7.04194,-5.75703 -1.61671,3.02084 -3.54437,2.72391 -6.27256,-0.96617 -2.47821,-3.35192 -2.21856,-4.48033 1.03093,-4.48033 3.54575,0 4.90442,-4.98344 2.31393,-8.48729 -1.43075,-1.93516 -2.49535,-5.67438 -3.01674,-10.59565 -0.44316,-4.18283 -1.2043,-8.09532 -1.69145,-8.69444 -0.94648,-1.16409 -5.43436,-12.57126 -5.43528,-13.8153 -2.8e-4,-0.40896 1.07551,-1.08509 2.39067,-1.50253 9.04564,-2.87094 14.11835,-8.17331 11.05633,-11.55679 -2.13137,-2.35516 -0.59927,-2.64751 2.39609,-0.45724 1.44782,1.05868 2.69521,1.21576 4.0208,0.50632 3.01527,-1.61372 2.30116,-2.974437 -2.88258,-5.492911 -7.98285,-3.878358 -8.80874,-9.314887 -1.8188,-11.972463 4.58825,-1.744453 7.18494,-0.177796 13.35269,8.056142 8.07862,10.784922 7.8693,10.229472 5.24435,13.915862 -2.88822,4.05611 -0.88337,5.42576 4.13978,2.82819 5.9438,-3.07366 5.49694,-9.89951 -0.86337,-13.188557 -6.02767,-3.117041 -7.41584,-8.771982 -1.90628,-7.765627 3.53121,0.644993 6.4521,-0.635648 14.44878,-6.334855 1.82878,-1.303379 4.92046,-2.162277 8.03776,-2.232976 6.32315,-0.1434 8.36974,-1.204913 6.55014,-3.397402 -2.29244,-2.762229 14.10131,-6.629622 22.66135,-5.345963 4.57473,0.686022 12.29887,-3.143598 12.29887,-6.097768 0,-1.331513 -9.51911,-1.212585 -10.34844,0.129294 -1.14112,1.846365 -2.62025,1.203901 -2.20403,-0.957323 0.35141,-1.824798 -0.57042,-2.121734 -8.50468,-2.739497 -21.66614,-1.68692 -23.4271,-2.082767 -20.82792,-4.681948 2.28523,-2.285218 7.89013,-2.240915 12.5815,0.09944 1.92219,0.958912 5.1063,1.743472 7.07581,1.743472 1.9695,0 3.88387,0.490189 4.25415,1.08931 0.37028,0.59912 2.27821,1.08931 4.23987,1.08931 5.43296,0 15.93706,2.346683 15.27792,3.413188 -0.3209,0.519227 0.69529,0.944046 2.25819,0.944046 1.56293,0 4.41045,0.844158 6.32784,1.875908 2.57853,1.387523 6.18034,1.886699 13.83458,1.917355 8.22766,0.03294 10.96235,0.455523 13.34405,2.061955 3.96536,2.674623 3.87386,2.902051 -2.60666,6.477361 -7.39974,4.082441 -5.83517,5.861595 3.11509,3.542355 5.79723,-1.502214 7.12933,-1.511871 11.92918,-0.08647 3.93802,1.169465 6.39688,1.3196 9.06759,0.553649 2.66617,-0.764648 5.40289,-0.600444 10.04629,0.602776 4.84492,1.25545 7.35603,1.383159 10.42683,0.530307 7.00774,-1.946261 15.629,-1.396578 20.63062,1.315384 2.48612,1.34802 7.0708,3.842241 10.18819,5.542721 5.52592,3.0143 5.76647,3.047615 9.59928,1.329315 3.20813,-1.438258 4.99795,-1.558545 9.72965,-0.653952 6.84999,1.309557 13.43884,-0.932068 11.08307,-3.770613 -1.91263,-2.304575 4.87361,-3.161272 13.21164,-1.667863 3.8189,0.683999 8.65912,1.366777 10.75604,1.517277 2.09692,0.150512 6.19381,1.34546 9.10423,2.655456 4.43841,1.997833 7.78771,2.450391 20.77431,2.807091 12.3225,0.338445 16.2452,0.831576 19.2178,2.415844 3.0174,1.60809 6.4563,2.017118 17.8962,2.128657 10.5243,0.102643 15.2397,0.601699 18.3615,1.94348 5.0395,2.16595 7.0556,1.37156 4.3126,-1.699189 -3.0061,-3.365272 27.6666,0.268262 38.8718,4.604809 2.696,1.0434 7.8345,2.25585 11.4188,2.69435 3.5842,0.43848 8.8144,1.96146 11.6224,3.38437 4.262,2.15976 5.6471,2.39834 8.3838,1.44429 3.7426,-1.30467 6.1706,-0.36516 11.8862,4.59917 5.6084,4.87135 -5.2931,5.55728 -11.4012,0.71738 -0.7227,-0.57262 -1.736,-0.7803 -2.2518,-0.46149 -0.5158,0.3188 -3.0636,-0.15267 -5.6616,-1.04784 -6.085,-2.09645 -8.7869,-1.30899 -6.0156,1.75323 1.8927,2.09143 1.8518,2.13537 -1.758,1.88359 -6.597,-0.46015 -4.5873,1.64524 5.2222,5.47119 11.2464,4.38627 14.1696,7.68183 5.3123,5.98865 -2.6928,-0.51477 -9.3285,2.37533 -9.3285,4.06289 0,3.14191 -4.6321,5.37482 -7.7766,3.74875 -2.6797,-1.38569 -3.5364,-1.40006 -6.1121,-0.10264 -1.6476,0.82998 -4.4635,1.86237 -6.2575,2.29416 -7.5534,1.8181 -6.3634,7.37087 2.4995,11.66129 2.9649,1.43535 5.1119,3.35855 5.7501,5.15107 0.5602,1.57328 1.7476,4.15709 2.6389,5.74184 1.4528,2.58277 1.4402,2.95056 -0.1204,3.54944 -1.144,0.43897 -1.481,1.31874 -0.9827,2.56521 0.4171,1.04343 0.8885,3.12257 1.0476,4.62039 0.159,1.49779 0.6392,3.53681 1.0673,4.53114 1.8466,4.28977 -3.8124,3.55793 -7.9623,-1.02972 -2.1693,-2.39799 -5.7874,-5.69947 -8.0404,-7.3366 -7.9289,-5.76167 -14.1178,-15.41548 -12.2269,-19.0722 0.8897,-1.72034 1.6348,-4.25513 1.6561,-5.63289 0.022,-1.37778 0.7125,-3.72245 1.5361,-5.2104 1.5733,-2.84202 0.967,-5.1111 -2.3965,-8.96967 -2.2083,-2.53347 -6.1375,-0.63434 -5.1466,2.4876 0.9129,2.87615 -1.8881,3.80817 -5.1089,1.7001 -8.1842,-5.35631 -15.2018,-2.22467 -13.5541,6.0485 0.7712,3.872 -3.5949,5.00123 -9.6136,2.48645 -2.6839,-1.1214 -5.2115,-1.46043 -7.0311,-0.94306 -1.5625,0.44425 -6.8454,0.84757 -11.7398,0.89625 -10.5921,0.10537 -13.5274,2.0378 -15.5748,10.25418 -0.6968,2.79656 -1.974,6.17578 -2.838,7.50939 -2.7009,4.16896 9.3178,8.83588 16.4351,6.38173 2.9539,-1.01864 11.9657,6.00717 14.7794,11.52254 1.1526,2.25918 3.0577,4.62252 4.2336,5.25184 9.6842,5.18285 1.9338,39.79375 -8.0602,35.99404 -1.6177,-0.61503 -3.105,-1.11825 -3.3051,-1.11825 -1.4423,0 -4.8668,9.12518 -3.8735,10.32202 1.5875,1.91279 0.4125,4.40065 -2.7613,5.84671 -3.9695,1.8086 -3.3833,2.82738 4.9102,8.53503 6.7384,4.63743 12.6626,12.20136 10.8428,13.84392 -5.7553,5.19476 -9.5153,4.79904 -12.1636,-1.2802 -3.0339,-6.96393 -5.6363,-9.76448 -10.2207,-10.99832 -2.3084,-0.6213 -3.1125,-1.50214 -3.1125,-3.40958 0,-4.75926 -6.1693,-7.26087 -10.8191,-4.38709 -4.0042,2.47474 -6.0652,1.2321 -6.0652,-3.65689 0,-4.07531 -3.9506,-3.97358 -7.8088,0.20111 -2.0567,2.2254 -4.6916,4.58767 -5.8553,5.24947 -2.7195,1.54656 -1.1693,3.6171 5.4983,7.34366 4.1086,2.29634 4.8951,2.42675 6.2804,1.04137 1.3171,-1.317 2.3887,-1.36518 6.3641,-0.28617 4.7804,1.29754 4.7804,1.29754 2.1162,3.07822 -7.6426,5.10824 -9.7976,10.12357 -5.242,12.1993 1.4657,0.66781 3.6938,3.33201 4.9514,5.92044 1.2575,2.58842 3.7695,5.58229 5.5821,6.65298 3.9867,2.35503 5.1432,4.85722 2.8405,6.14587 -2.1466,1.20131 -1.1215,2.99668 1.7112,2.99668 3.3925,0 3.4121,2.02367 0.1331,13.70406 -4.6541,16.57906 -12.8329,24.15465 -26.9196,24.93442 -4.178,0.23125 -7.4179,2.00039 -10.24455,5.5938 -2.24356,2.85229 -2.24356,2.85229 -3.28995,0.10012 -1.36511,-3.59054 -4.49557,-4.49334 -8.98875,-2.59234 -10.57964,4.47607 -10.45826,13.00444 0.30646,21.53024 11.99598,9.501 14.98989,27.68939 5.27864,32.06855 -2.34007,1.05521 -4.52982,2.78559 -4.86616,3.84531 -0.8077,2.54485 -5.64448,5.71324 -6.53126,4.27838 -0.3695,-0.59783 -0.38393,-1.99389 -0.0321,-3.10237 1.10498,-3.48156 -0.37768,-5.73186 -2.89053,-4.38703 -1.79141,0.95873 -2.48235,0.71576 -3.92887,-1.38159 -7.03671,-10.20268 -18.37716,-16.28804 -17.93755,-9.62541 0.13836,2.09692 -0.2888,6.1852 -0.94922,9.08505 -1.076,4.72475 -0.96569,5.59038 1.06191,8.33286 1.24446,1.68323 2.5719,4.29255 2.94987,5.79848 0.38387,1.52941 3.53447,5.02178 7.13722,7.91145 6.00454,4.81606 6.63749,5.76687 9.16475,13.76706 3.90211,12.35235 3.40715,13.18067 -4.36577,7.30625 z m 97.50417,-22.2192 c -2.0774,-4.84676 -2.3548,-5.06468 -5.552,-4.36246 -3.1874,0.70005 -3.2987,0.61453 -2.1044,-1.61699 0.989,-1.84783 1.9057,-2.21457 4.2491,-1.69987 3.4245,0.75215 8.8255,-3.346 8.8668,-6.72797 0.034,-2.74942 4.0793,6.47104 5.0022,11.4007 0.7009,3.74303 0.6134,3.94677 -1.0889,2.5366 -2.5268,-2.0932 -4.9595,0.0783 -2.8863,2.57647 0.8274,0.99679 0.9333,1.68013 0.2608,1.68013 -0.6235,0 -1.9046,0.29588 -2.8469,0.6575 -1.2647,0.48524 -2.2864,-0.67908 -3.9004,-4.44411 z m -198.61215,1.92465 c -1.21781,-1.97806 -1.91028,-10.85475 -1.03055,-13.21024 1.01599,-2.72025 5.60683,2.35091 7.23481,7.9917 0.97462,3.37693 -4.50203,7.98345 -6.20426,5.21854 z m 167.01115,-12.05652 c 0,-2.24164 9.7071,-11.63744 9.755,-9.44217 0.027,1.23094 -1.6105,4.04953 -3.6384,6.26353 -3.4387,3.75426 -6.1166,5.14585 -6.1166,3.17864 z m 32.7432,-14.02515 c -1.2501,-1.58927 -2.0912,-3.07138 -1.869,-3.29357 0.8852,-0.88518 3.9485,1.06536 5.5775,3.55133 2.505,3.8232 -0.6722,3.60237 -3.7085,-0.25776 z m -6.951,-8.16952 c -1.0918,-0.61595 -3.1621,-0.82451 -4.6006,-0.46345 -5.0388,1.26464 -14.9577,-11.07514 -12.5375,-15.59743 0.6323,-1.18147 1.1497,-3.62201 1.1497,-5.42341 0,-5.91286 3.9605,-5.67387 6.8637,0.41422 1.6084,3.37288 1.6186,4.09702 0.1069,7.71478 -2.0228,4.84133 2.0627,10.76164 6.6346,9.61418 1.4005,-0.35154 2.911,0.084 3.7351,1.07717 1.9617,2.3636 1.1057,4.05029 -1.3519,2.66394 z M 156.08112,340.69467 c -0.7489,-0.30218 -1.36164,-0.99876 -1.36164,-1.54794 0,-1.57058 4.80846,-1.16622 7.14463,0.60077 2.21304,1.67386 -2.19345,2.3956 -5.78299,0.94717 z m 27.56413,-0.61797 c -0.97694,-0.54672 -3.13526,-0.69555 -4.79623,-0.33073 -1.66098,0.36481 -4.21575,0.18493 -5.67726,-0.39964 -2.34993,-0.93999 -2.14191,-1.05092 1.79837,-0.95878 5.79148,0.13545 7.3375,-0.80779 5.85739,-3.57341 -2.15327,-4.02341 15.45651,-1.88523 17.97016,2.18195 0.81717,1.32217 -13.20164,4.17234 -15.15243,3.08061 z m 808.9843,-1.04345 c -2.88439,-2.8844 -0.0293,-6.33161 5.24371,-6.33161 2.33754,0 2.33944,0.0194 0.33398,3.45281 -2.33777,4.00274 -3.73338,4.72309 -5.57769,2.8788 z M 166.45364,331.001 c -0.33624,-0.33626 -2.63572,-0.6393 -5.10994,-0.67345 -3.41343,-0.0471 -4.23239,-0.38285 -3.39506,-1.39177 3.25765,-3.92523 -15.35146,-11.44745 -21.86862,-8.83978 -7.02868,2.81231 -7.9171,1.03354 -1.03406,-2.07031 5.56442,-2.5092 15.16883,-1.86165 21.85215,1.47326 17.55288,8.7588 19.63958,10.17886 16.33962,11.11975 -3.53155,1.00691 -6.01928,1.14711 -6.78409,0.3823 z m 875.39876,-11.12431 c -3.1554,-2.08343 -3.8884,-5.71984 -1.855,-9.20146 2.5407,-4.35035 4.2564,-4.89317 5.0812,-1.60752 0.8675,3.45635 -1.6397,11.85651 -3.2262,10.80898 z m 31.1546,-45.36951 c 0,-0.85269 -1.19,-2.96455 -2.6444,-4.69299 -3.4525,-4.10302 -2.2296,-6.84149 1.8589,-4.16262 2.9391,1.92574 4.4752,5.86033 3.3911,8.68548 -0.8222,2.14263 -2.6056,2.25907 -2.6056,0.17023 z m 6.0707,-7.89396 c -0.7062,-1.84046 0.9611,-3.58005 3.4606,-3.61068 1.7311,-0.0213 1.7634,2.41397 0.055,4.12271 -1.7761,1.77614 -2.688,1.64333 -3.5151,-0.51203 z m 9.9527,-3.97628 c -2.1149,-3.22774 -5.1025,-3.6709 -11.942,-1.77145 -2.7811,0.77234 -4.697,0.78097 -5.9912,0.0271 -1.0466,-0.60961 -1.3277,-1.12326 -0.6248,-1.14147 0.7029,-0.0174 2.7549,-1.2758 4.5599,-2.79463 2.3287,-1.95942 4.0351,-2.57247 5.875,-2.11068 1.9495,0.48932 4.0542,-0.44695 8.4807,-3.77296 8.6176,-6.47522 9.3969,-8.51712 5.8907,-15.43611 -3.3651,-6.64078 -2.4272,-8.77879 2.5592,-5.8333 3.6291,2.14373 7.0487,8.28448 6.0552,10.87347 -0.3575,0.93185 0.1756,3.85624 1.1847,6.49867 2.7733,7.26189 -0.56,11.45311 -9.1087,11.45311 -2.4809,0 -3.2221,0.63656 -4.0328,3.46365 -0.9933,3.46364 -0.9933,3.46364 -2.9059,0.54465 z M 610.59528,257.034 c -3.26793,-1.49636 -3.26793,-1.49636 1.0893,-1.56996 5.42688,-0.0916 9.42468,0.92614 8.63795,2.19912 -0.87636,1.41797 -5.977,1.08805 -9.72725,-0.62916 z m -44.00426,-10.86632 c -4.35964,-2.23192 -4.56493,-2.51045 -2.28899,-3.10563 2.7257,-0.71277 8.75871,0.17411 8.63553,1.2694 -0.4475,3.97921 -1.54203,4.29589 -6.34654,1.83623 z M 544.75724,234.3825 c -0.94276,-2.7044 -0.86841,-3.73951 0.35665,-4.96457 2.21466,-2.21466 3.93542,-0.65818 3.93542,3.55968 0,4.9818 -2.73327,5.87646 -4.29207,1.40489 z m 543.62306,-11.52835 c -1.9942,-2.8004 -2.049,-3.31656 -0.5765,-5.4188 1.4464,-2.06513 1.441,-2.68411 -0.049,-5.56515 -2.4506,-4.73887 -2.1063,-5.02558 2.1433,-1.78429 2.1007,1.60234 6.2464,3.63401 9.2123,4.51482 6.1289,1.82011 7.608,3.24898 4.4128,4.2631 -1.207,0.38306 -2.1945,1.40808 -2.1945,2.27779 0,1.1847 -0.7513,1.38906 -2.9956,0.81478 -5.7473,-1.47064 -7.3808,-1.11138 -7.0119,1.54201 0.452,3.25121 -0.2818,3.09045 -2.9411,-0.64426 z m -6.9124,-21.68657 c -0.9243,-1.04846 -3.1518,-4.84837 -4.9501,-8.44421 -1.7982,-3.59587 -6.5524,-10.19927 -10.565,-14.67424 -4.4831,-4.99953 -6.7611,-8.31447 -5.9089,-8.5985 0.7628,-0.25425 2.3983,0.88479 3.6347,2.5312 2.9968,3.99092 6.6873,7.45633 12.5108,11.74775 4.8269,3.5571 7.2139,6.84959 4.0992,5.65441 -3.5915,-1.37815 -2.695,1.89312 1.9528,7.12625 2.7096,3.0509 4.9265,5.77579 4.9265,6.05534 0,1.32479 -4.21,0.29223 -5.7,-1.398 z m -802.81272,-5.42149 c -4.05814,-0.42569 -4.05814,-0.42569 3.57826,-7.9867 6.6338,-6.56831 13.20408,-11.0168 8.35084,-5.65404 -2.26775,2.50587 -0.72143,5.321 3.42277,6.23123 1.80913,0.39735 3.61242,1.78385 4.30927,3.31329 1.87208,4.10878 -5.29901,5.60281 -19.66114,4.09622 z M 13.224518,187.93116 c -3.773355,-3.52485 -4.1942497,-5.00981 -1.692092,-5.96997 2.930546,-1.12456 9.202046,4.76179 9.202046,8.63689 0,1.65558 -4.65066,0.004 -7.509954,-2.66692 z m 479.725392,-5.53445 c 1.19823,-0.59101 3.55614,-1.57159 5.23977,-2.17905 3.70967,-1.33851 3.09466,-2.7641 -1.59725,-3.70247 -3.21852,-0.64371 -3.33182,-0.80745 -1.49019,-2.15405 1.09617,-0.80158 1.67371,-1.97422 1.2833,-2.60584 -0.3988,-0.6453 0.72147,-1.64741 2.55687,-2.28723 1.79665,-0.62632 3.26663,-1.62253 3.26663,-2.21381 0,-2.51607 -2.27062,-6.74855 -3.53215,-6.58399 -2.90793,0.37934 -4.25519,-0.13352 -3.78633,-1.44108 0.26853,-0.7489 0.0471,-2.21947 -0.49221,-3.26792 -1.40216,-2.72627 1.81996,-8.36432 4.81509,-8.42548 0.44934,-0.0102 0.69443,0.58443 0.54466,1.31912 -0.14977,0.73465 0.87816,1.51026 2.28432,1.72356 2.55663,0.3878 2.55663,0.3878 0.11383,2.98814 -2.4429,2.60031 -2.4429,2.60031 0.31091,3.64733 2.95576,1.12376 5.80463,4.7849 8.70565,11.1878 1.38992,3.06772 2.30376,3.86962 3.92617,3.44536 3.32888,-0.87053 3.72379,1.38532 0.60069,3.43165 -2.11584,1.38636 -2.5174,2.16752 -1.59066,3.09425 0.92673,0.92671 -0.90011,1.54853 -7.23637,2.46297 -4.66187,0.67279 -10.19177,1.54096 -12.28869,1.92926 -2.91655,0.5401 -3.30057,0.4535 -1.63398,-0.36852 z m -18.36997,-6.0173 c -0.37263,-0.97107 0.0526,-3.17729 0.94475,-4.90267 1.02374,-1.97973 1.22185,-3.38458 0.53695,-3.80789 -1.88775,-1.16667 -1.17997,-2.65552 1.59325,-3.35156 1.47325,-0.36976 3.24892,-1.35949 3.94598,-2.19937 3.33763,-4.02161 11.06987,-1.10633 8.14422,3.0706 -0.93338,1.33261 -1.69707,3.72629 -1.69707,5.31934 0,2.42926 -0.74667,3.15562 -4.62956,4.50342 -2.54626,0.88384 -5.42415,1.95051 -6.39528,2.37034 -1.13878,0.49232 -2.00628,0.13644 -2.44324,-1.00221 z M 346.98252,133.605 c -6.89327,-3.75911 -10.18844,-9.53459 -8.19105,-14.35667 0.9453,-2.28213 0.97418,-3.71719 0.10749,-5.33671 -1.80383,-3.37048 0.54965,-7.32038 6.56828,-11.02366 8.03814,-4.945925 9.78103,-12.705587 3.4969,-15.568821 -1.53684,-0.700229 -2.37321,-1.807488 -2.03366,-2.692335 0.77329,-2.015208 -2.8534,-8.897831 -6.46552,-12.270009 -2.65852,-2.481926 -3.80222,-2.729071 -12.90537,-2.788686 -12.39627,-0.08118 -14.70548,-0.770292 -14.50045,-4.327171 0.0853,-1.477512 0.41281,-2.686731 0.72808,-2.687156 7.6567,-0.01018 20.65203,-2.96143 29.32295,-6.659054 11.18665,-4.770434 12.03878,-4.863639 38.73028,-4.236263 8.42853,0.198109 16.18245,-0.425668 26.14342,-2.103156 9.27621,-1.562168 16.10188,-2.151064 19.78757,-1.707209 3.13164,0.377137 7.666,0.128425 10.22597,-0.560906 5.94061,-1.59964 21.37533,0.32456 27.44607,3.42162 3.58895,1.830949 5.48782,2.07272 11.54378,1.469807 9.30507,-0.92638 6.52887,1.99957 -3.1002,3.267432 -7.15033,0.941488 -13.72057,6.037774 -11.9791,9.291745 0.75122,1.403661 0.2125,2.601732 -2.21614,4.928521 -1.76475,1.690733 -3.46693,3.887882 -3.78262,4.882552 -0.75843,2.389566 -10.38861,6.83682 -15.16369,7.002639 -5.30343,0.184173 -5.85809,1.311591 -1.75659,3.570658 7.75307,4.270331 9.37515,6.019934 6.55004,7.06502 -1.91441,0.708182 -3.46735,0.251623 -6.65283,-1.95593 -4.32283,-2.995723 -8.97381,-3.010787 -6.49252,-0.021 0.96764,1.165946 0.73469,1.61884 -1.07623,2.09241 -4.04807,1.058594 -1.18469,3.151898 3.27968,2.397639 2.84144,-0.480057 4.43946,-0.227055 5.32797,0.843555 1.53196,1.845907 -13.80603,5.47387 -23.77134,5.62275 -6.12143,0.0914 -10.53288,1.8488 -17.02221,6.78098 -2.11609,1.60832 -6.6131,3.20223 -11.8753,4.20906 -10.99829,2.10432 -14.71496,4.53794 -21.34188,13.97435 -7.97783,11.36001 -10.19826,12.2366 -18.93174,7.47402 z m -77.23705,-7.28551 c -2.33933,-1.43737 -5.20604,-4.11809 -6.37049,-5.95719 -2.27331,-3.59044 -4.36923,-4.04656 -10.50633,-2.28646 -2.07759,0.59583 -4.40897,0.65324 -5.34122,0.13158 -3.22569,-1.80518 2.60071,-3.58059 9.08979,-2.76983 4.93512,0.61661 6.0317,0.44089 6.60716,-1.05881 1.1563,-3.01324 6.44839,-5.17269 9.39091,-3.83199 3.95537,1.80219 9.89156,-0.66795 6.8942,-2.8688 -1.16297,-0.85391 -2.49033,-1.55258 -2.9497,-1.55258 -0.45933,0 -2.1176,-2.1883 -3.68502,-4.86289 -4.14824,-7.078419 -9.16911,-9.945964 -13.49649,-7.70819 -2.68857,1.390317 -4.24172,1.487653 -8.49577,0.532459 -2.86314,-0.642905 -6.86075,-0.859422 -8.88356,-0.481175 -10.35528,1.936383 -12.16184,-3.137508 -3.40267,-9.556748 6.21849,-4.557276 13.46861,-5.347874 9.41245,-1.026388 -4.29645,4.577514 -2.68072,6.684112 1.98478,2.58775 5.65704,-4.966941 10.55025,-5.358914 16.62959,-1.332117 5.61977,3.722375 6.05281,3.822212 9.22205,2.12607 1.90848,-1.02138 2.61626,-0.740861 4.68877,1.858296 1.43351,1.797818 4.63491,3.755451 7.75671,4.743227 4.96402,1.570673 5.31575,1.922578 5.31575,5.318456 0,3.58518 0.44301,4.13607 7.19018,8.94068 2.10928,1.50202 2.20428,1.94136 0.87874,4.06388 -2.17975,3.49032 -3.8865,3.74412 -8.69206,1.2925 -6.18236,-3.15401 -9.47903,-1.48201 -6.90236,3.50071 2.76394,5.34484 0.60593,9.22421 -3.84957,6.92019 -6.07445,-3.14123 -10.16494,-1.0742 -4.49836,2.27314 1.77534,1.04871 2.98054,2.30701 2.67819,2.7962 -1.05504,1.7071 -6.44462,0.8016 -10.66567,-1.79192 z m -41.07207,-4.44775 c -2.14753,-1.12905 -3.81544,-1.22568 -6.82281,-0.3953 -6.84767,1.89073 -7.10649,-2.10967 -0.36979,-5.71505 4.07248,-2.17953 12.84355,2.63809 10.938,6.00781 -0.77549,1.37136 -1.30446,1.38585 -3.7454,0.10239 z m 216.34692,-0.49603 c -1.79736,-1.18182 -4.08515,-1.89022 -5.08394,-1.57428 -1.37558,0.43515 -1.68082,0.0575 -1.25856,-1.55723 0.64807,-2.47825 10.21904,-6.05521 13.45448,-5.02833 1.12802,0.35801 4.01113,0.0636 6.40691,-0.65414 3.76107,-1.12684 4.7581,-1.04158 7.30066,0.62436 4.61792,3.02578 0.94901,5.30627 -15.91765,9.8939 -0.89869,0.24444 -3.10453,-0.52249 -4.9019,-1.70428 z m -295.74738,-20.3346 c -9.54737,-1.508904 -13.54209,-5.260451 -6.18529,-5.808767 8.96671,-0.668305 9.54327,-2.516349 1.03178,-3.307116 -4.37007,-0.406008 -5.36147,-0.737831 -3.25476,-1.089313 3.6904,-0.615741 4.00804,-2.451055 0.57507,-3.32273 -2.35574,-0.598142 -2.27232,-0.743314 1.31544,-2.289131 6.52165,-2.80993 13.46816,-3.348206 19.62258,-1.520533 5.053,1.500578 5.84244,1.494172 8.22474,-0.06678 1.68478,-1.10392 2.68433,-1.288614 2.77139,-0.512089 0.0748,0.668023 0.19745,1.786482 0.27232,2.485447 0.25285,2.359881 2.42571,2.054514 5.01839,-0.705273 4.87627,-5.190511 7.992,-3.479562 4.39796,2.415031 -2.14942,3.525281 -2.14942,3.525281 1.36572,5.359146 5.53752,2.888992 -5.38212,7.73732 -13.20152,5.861478 -4.52651,-1.085894 -5.82512,-0.961693 -10.38599,0.993318 -5.15135,2.208134 -6.23775,2.349694 -11.56783,1.507304 z m 43.6881,-0.76742 c -1.63716,-1.972643 4.08129,-4.49543 7.63395,-3.367856 2.35928,0.748803 2.30494,0.866555 -1.28132,2.776508 -4.57548,2.436768 -4.80346,2.457998 -6.35263,0.591348 z m 500.42171,-8.063451 c -5.56927,-2.199811 -5.45489,-2.079536 -3.83442,-4.032089 0.75787,-0.913156 0.95026,-1.675868 0.42756,-1.69492 -0.5227,-0.01912 0.0302,-0.775447 1.22824,-1.680858 1.19826,-0.905425 2.18683,-1.992753 2.19685,-2.416303 0.0995,-4.206599 8.52816,-8.590449 17.95539,-9.338887 3.89427,-0.309169 9.11043,-0.875606 11.59147,-1.258743 2.64056,-0.407778 4.79253,-0.24104 5.19003,0.402127 0.77234,1.249668 -0.70161,1.780853 -9.15636,3.299794 -14.86247,2.670124 -24.25142,11.87961 -17.15661,16.828697 3.47051,2.420902 -2.22347,2.347512 -8.44215,-0.108855 z M 122.86242,89.051855 c -5.31488,-5.314893 19.63441,-13.569987 30.76775,-10.180273 4.90188,1.492456 4.90188,1.492456 -1.63395,2.788417 -5.34525,1.059881 -16.67285,4.847827 -25.61818,8.566711 -0.91252,0.379366 -2.48784,-0.147079 -3.51562,-1.174855 z m 78.69735,-1.409884 c 0,-0.579992 -1.34802,-1.828243 -2.99561,-2.773904 -2.99559,-1.719379 -2.99559,-1.719379 1.01532,-1.088622 2.84991,0.448185 4.26884,0.181216 4.9019,-0.922294 0.75291,-1.312402 7.686,-3.938494 10.45039,-3.95837 0.46473,-0.0033 0.0854,1.462811 -0.84304,3.258114 -2.1866,4.228472 -12.52896,8.756262 -12.52896,5.485076 z m 16.95976,-3.180608 c -1.56065,-2.525175 9.09829,-6.434034 13.62607,-4.996968 3.29988,1.047347 1.09439,2.847089 -4.66149,3.803879 -2.57554,0.428122 -5.49107,1.122753 -6.47892,1.543608 -0.98787,0.420865 -2.10643,0.263133 -2.48566,-0.350519 z m 34.78241,-8.021349 c -14.61846,-1.162801 -13.90193,-0.982132 -13.01906,-3.282863 1.33221,-3.471743 6.39309,-4.435859 10.99376,-2.094357 3.4302,1.745804 5.64128,2.035992 12.01374,1.576726 11.43812,-0.82435 15.25411,0.315242 10.16379,3.035284 -2.09691,1.1205 -4.54787,1.985007 -5.44656,1.921126 -0.89868,-0.06388 -7.51622,-0.584046 -14.70567,-1.155916 z m 313.47899,-4.451888 c -5.3511,-2.739451 -5.86734,-3.981788 -1.66429,-4.005191 1.64756,-0.0091 3.73088,-0.545603 4.62956,-1.192065 1.41254,-1.016105 1.39362,-1.099189 -0.1395,-0.613098 -0.97547,0.309259 -2.34391,-0.008 -3.04099,-0.705121 -0.96367,-0.963667 -1.46566,-0.9466 -2.09472,0.07123 -0.58239,0.942356 -1.7782,1.053861 -4.03953,0.376673 -11.72773,-3.512037 -10.0664,-6.08145 3.32362,-5.140226 6.78459,0.47691 10.34842,0.344708 10.34842,-0.383873 0,-2.14433 3.02237,-1.085465 3.82383,1.339651 0.80998,2.450944 0.80998,2.450944 1.29212,0 0.26518,-1.348027 1.18331,-2.450952 2.04032,-2.450952 0.85702,0 1.5582,-0.588226 1.5582,-1.30717 0,-1.016688 0.2905,-1.016688 1.30717,0 0.76039,0.760381 4.40564,1.30717 8.71447,1.30717 7.788,0 9.61703,1.392405 4.42304,3.367156 -2.69922,1.026242 -7.39355,0.735944 -12.53838,-0.775368 -1.04846,-0.307989 -1.90317,-0.159305 -1.89941,0.330406 0.007,1.005265 6.12822,4.702969 7.78437,4.702969 2.23491,0 4.29695,2.994243 2.52919,3.672591 -0.88328,0.338948 -1.60597,0.08692 -1.60597,-0.560082 0,-0.760561 -1.38548,-0.916433 -3.9198,-0.44099 -2.74452,0.514871 -3.69624,0.373609 -3.17416,-0.471141 0.41011,-0.663577 0.15324,-1.920314 -0.57079,-2.792749 -1.39684,-1.683074 -5.40696,-2.198389 -5.40696,-0.694813 0,4.655086 -7.27527,8.619832 -11.67974,6.365002 z M 277.81138,69.591725 c -1.88839,-1.108539 -4.55993,-1.429651 -8.71445,-1.047453 -3.8832,0.357237 -6.8689,0.04923 -8.48573,-0.875376 -2.22902,-1.274714 -1.6842,-1.41998 5.11911,-1.364892 8.50718,0.06889 12.2434,-1.752243 7.63618,-3.722068 -2.1887,-0.935776 -1.86953,-1.02073 1.88216,-0.501 4.89778,0.678498 6.80181,-0.633749 4.13317,-2.848536 -2.84559,-2.361618 0.28327,-3.094762 10.40819,-2.438796 6.26536,0.405915 10.20247,0.178241 11.81183,-0.683073 3.08312,-1.650038 1.87338,-3.75045 -1.65067,-2.865969 -2.43557,0.611293 -19.33842,-0.39179 -18.62494,-1.105278 0.5099,-0.50989 24.45696,-2.72774 40.18105,-3.721354 8.15606,-0.515386 17.22454,-1.234334 20.1522,-1.597661 5.32304,-0.660599 5.32304,-0.660599 -3.46418,3.560256 -8.23862,3.957343 -21.6362,7.81531 -27.14026,7.81531 -1.33998,0 -5.19209,1.470568 -8.56027,3.267927 -3.36818,1.79736 -6.79944,3.267927 -7.625,3.267927 -0.82557,0 -4.3887,1.464359 -7.91808,3.254128 -3.52936,1.78977 -6.41703,3.242966 -6.41703,3.229326 0,-0.01372 -1.22546,-0.744178 -2.72328,-1.623418 z m -21.24151,-9.952066 c -5.27933,-1.168176 -5.47283,-1.607614 -1.59326,-3.618331 9.32121,-4.831061 19.91571,-2.995973 11.47051,1.986822 -3.94278,2.326305 -5.54286,2.590601 -9.87725,1.631509 z"
     id="path2918" />
  <path
     id="path4289"
     style="fill:#ff5555;fill-opacity:1;stroke:#000000;stroke-width:7.57058573;stroke-miterlimit:4;stroke-opacity:1;stroke-dasharray:none"
     d="m 245.2463,444.2478 c 0,25.5237 -20.5733,46.2147 -45.9518,46.2147 -25.3785,0 -45.9518,-20.691 -45.9518,-46.2147 0,-25.5236 20.5733,-46.2146 45.9518,-46.2146 25.3785,0 45.9518,20.691 45.9518,46.2146 z" />
  <path
     id="path4291"
     style="fill:#55ff55;fill-opacity:1;stroke:#000000;stroke-width:7.57058573;stroke-miterlimit:4;stroke-opacity:1;stroke-dasharray:none"
     d="m 667.54054,376.34895 c 0,25.5237 -20.5733,46.2147 -45.9518,46.2147 -25.3785,0 -45.9518,-20.691 -45.9518,-46.2147 0,-25.5236 20.5733,-46.2146 45.9518,-46.2146 25.3785,0 45.9518,20.691 45.9518,46.2146 z" />
  <path
     id="path4293"
     style="fill:#55ff55;fill-opacity:1;stroke:#000000;stroke-width:7.57058573;stroke-miterlimit:4;stroke-opacity:1;stroke-dasharray:none"
     d="m 555.19963,323.67542 c 0,25.52367 -20.5733,46.21469 -45.9518,46.21469 -25.3785,0 -45.9518,-20.69102 -45.9518,-46.21469 0,-25.52368 20.5733,-46.21469 45.9518,-46.21469 25.3785,0 45.9518,20.69101 45.9518,46.21469 z" />
  <path
     id="path4295"
     style="fill:#ffff33;fill-opacity:1;stroke:#000000;stroke-width:7.57058573;stroke-miterlimit:4;stroke-opacity:1;stroke-dasharray:none"
     d="m 615.80712,178.6003 c 0,25.5237 -20.5733,46.2147 -45.9518,46.2147 -25.3785,0 -45.9518,-20.691 -45.9518,-46.2147 0,-25.5236 20.5733,-46.2146 45.9518,-46.2146 25.3785,0 45.9518,20.691 45.9518,46.2146 z" />
  <path
     id="path4297"
     style="fill:#55ff55;fill-opacity:1;stroke:#000000;stroke-width:7.57058573;stroke-miterlimit:4;stroke-opacity:1;stroke-dasharray:none"
     d="m 663.01616,499.11494 c 0,25.52367 -20.5733,46.21465 -45.9518,46.21465 -25.3785,0 -45.9518,-20.69098 -45.9518,-46.21465 0,-25.52368 20.5733,-46.21469 45.9518,-46.21469 25.3785,0 45.9518,20.69101 45.9518,46.21469 z" />
  <path
     id="path4299"
     style="fill:#ffff33;fill-opacity:1;stroke:#000000;stroke-width:7.57058573;stroke-miterlimit:4;stroke-opacity:1;stroke-dasharray:none"
     d="m 973.51657,250.88591 c 0,25.5237 -20.5733,46.2147 -45.9518,46.2147 -25.3785,0 -45.9518,-20.691 -45.9518,-46.2147 0,-25.5236 20.5733,-46.2146 45.9518,-46.2146 25.3785,0 45.9518,20.691 45.9518,46.2146 z" />
  <path
     id="path4301"
     style="fill:#ffff33;fill-opacity:1;stroke:#000000;stroke-width:7.57058573;stroke-miterlimit:4;stroke-opacity:1;stroke-dasharray:none"
     d="m 1108.8645,561.07757 c 0,25.5237 -20.5733,46.2147 -45.9518,46.2147 -25.3785,0 -45.9518,-20.691 -45.9518,-46.2147 0,-25.5236 20.5733,-46.2146 45.9518,-46.2146 25.3785,0 45.9518,20.691 45.9518,46.2146 z" />
  <path
     id="path4299-8"
     style="fill:#ffff33;fill-opacity:1;stroke:#000000;stroke-width:7.57058573;stroke-miterlimit:4;stroke-opacity:1;stroke-dasharray:none"
     d="m 153.14616,199.92353 c 0,25.5237 -20.57328,46.2147 -45.95178,46.2147 -25.378503,0 -45.951803,-20.691 -45.951803,-46.2147 0,-25.5236 20.5733,-46.2146 45.951803,-46.2146 25.3785,0 45.95178,20.691 45.95178,46.2146 z" />
  <path
     id="path4299-6"
     style="fill:#ffff33;fill-opacity:1;stroke:#000000;stroke-width:7.57058573;stroke-miterlimit:4;stroke-opacity:1;stroke-dasharray:none"
     d="m 786.1656,160.32752 c 0,25.5237 -20.5733,46.2147 -45.9518,46.2147 -25.3785,0 -45.9518,-20.691 -45.9518,-46.2147 0,-25.5236 20.5733,-46.2146 45.9518,-46.2146 25.3785,0 45.9518,20.691 45.9518,46.2146 z" />
  <path
     style="fill:none;stroke:#000000;stroke-width:4;stroke-linecap:round;stroke-linejoin:miter;stroke-opacity:1;stroke-miterlimit:4;stroke-dasharray:none"
     d="m 242.59781,442.11725 136.81388,0"
     id="path2963" />
  <path
     style="fill:none;stroke:#000000;stroke-width:4;stroke-linecap:round;stroke-linejoin:miter;stroke-opacity:1;stroke-miterlimit:4;stroke-dasharray:none;marker-end:url(#Arrow2Lend)"
     d="m 376.99468,441.82181 94.74734,-87.76596"
     id="path4797" />
  <path
     style="fill:none;stroke:#000000;stroke-width:4;stroke-linecap:round;stroke-linejoin:miter;stroke-opacity:1;stroke-miterlimit:4;stroke-dasharray:none;marker-start:none;marker-mid:none;marker-end:url(#Arrow2Lend)"
     d="m 378.89312,441.44741 c 15.95962,-0.5911 198.01747,-45.51446 198.01747,-45.51446"
     id="path5001" />
  <path
     style="fill:none;stroke:#000000;stroke-width:4;stroke-linecap:round;stroke-linejoin:miter;stroke-opacity:1;stroke-miterlimit:4;stroke-dasharray:none;marker-start:none;marker-mid:none;marker-end:url(#Arrow2Lend)"
     d="m 378.30203,442.6296 192.1065,46.10556"
     id="path5003" />
</svg>
