<?xml version="1.0" encoding="UTF-8" standalone="no"?><svg id="svg5249" xmlns:rdf="http://www.w3.org/1999/02/22-rdf-syntax-ns#" xmlns="http://www.w3.org/2000/svg" height="600pt" width="900pt" version="1.0" xmlns:cc="http://creativecommons.org/ns#" xmlns:xlink="http://www.w3.org/1999/xlink" xmlns:dc="http://purl.org/dc/elements/1.1/"> <defs id="defs5253">  <marker style="overflow:visible;" id="Arrow2Lend" refY="0.0" refX="0.0" orient="auto">   <path id="path4644" stroke-linejoin="round" d="M8.7,4l-11-4,11-4c-1.7,2.4-1.7,5.6,0,8z" fill-rule="evenodd" transform="scale(1.1) rotate(180) translate(1,0)" stroke-width="0.62"/>  </marker> </defs> <path id="path4270" d="m300,400a50,50,0,1,1,-100,0,50,50,0,1,1,100,0z" transform="translate(-350,-150)" stroke="#000" stroke-dasharray="none" stroke-miterlimit="4" stroke-width="7" height="750" width="1125" y="0" x="0"/> <g id="g5259" fill="#FF3">  <use id="use3843" xlink:href="#path4270" transform="translate(685.82979,-182.16691)"/>  <use id="use3845" xlink:href="#use3843" transform="translate(414.17021,182.16691)"/>  <use id="use3847" xlink:href="#use3845" transform="translate(-226.58004,129.54307)"/>  <use id="use3849" xlink:href="#use3847" transform="translate(101.55257,170.45693)"/>  <use id="use5265" xlink:href="#use3849" transform="translate(-308.88907,25.59595)"/> </g> <use id="use5267" xlink:href="#path4270" transform="translate(271.80852,50.025141)" fill="#f55"/> <use id="use5269" xlink:href="#path4270" transform="translate(945.30643,-114.46735)" fill="#5f5"/> <path id="path5271" stroke-linejoin="miter" style="marker-end:url(#Arrow2Lend);" d="m 220,300 260,0 349.09483,-154.22414" stroke="#000" stroke-linecap="butt" stroke-miterlimit="4" stroke-dasharray="none" stroke-width="6" fill="none"/></svg>