<?xml version="1.0" standalone="no"?>
<!DOCTYPE svg PUBLIC "-//W3C//DTD SVG 1.1//EN"
  "http://www.w3.org/Graphics/SVG/1.1/DTD/svg11.dtd">
<!-- Created with matplotlib (http://matplotlib.sourceforge.net/) -->
<svg width="540pt" height="180pt" viewBox="0 0 540 180"
   xmlns="http://www.w3.org/2000/svg"
   xmlns:xlink="http://www.w3.org/1999/xlink"
   version="1.1"
   id="svg1">
<g id="figure1">
<path style="fill: #ffffff; stroke: #ffffff; stroke-width: 1.0; stroke-linejoin: miter; stroke-linecap: square;  opacity: 0.0"  d="M0.0 180.0L540.0 180.0L540.0 0.0L0.0 0.0L0.0 180.0"/>
<g id="axes1">
<path style="fill: #ffffff; opacity: 0.0"  d="M27.0 162.0L513.0 162.0L513.0 18.0L27.0 18.0L27.0 162.0"/>
<g id="LineCollection1">
<defs>
<path id="coll0_0_2ea2e3a0683c0d2a7d954c608634f09a" d="M49.0909090909 -90.0L49.0909090909 -69.7734330955"/>
<path id="coll0_1_bdcc7d0e6554a75d7a44a434960b8641" d="M93.2727272727 -90.0L93.2727272727 -110.226450248"/>
<path id="coll0_2_3bf03d591a52a691fd101ae3730d9119" d="M137.454545455 -90.0L137.454545455 -142.953839632"/>
<path id="coll0_3_dc8cba8a0d60c6fa96dd2fb6c0e02b07" d="M181.636363636 -90.0L181.636363636 -155.454167947"/>
<path id="coll0_4_135c90d81405799ec87e1c203307b6bc" d="M225.818181818 -90.0L225.818181818 -142.953839632"/>
<path id="coll0_5_ef2e797563fe675d49eb03b719b798ee" d="M270.0 -90.0L270.0 -110.226450248"/>
<path id="coll0_6_31d1ba47a16e02b8ea796c13275c23ae" d="M314.181818182 -90.0L314.181818182 -69.7734330955"/>
<path id="coll0_7_59754782c96ed6e6a67bd3feed9c0737" d="M358.363636364 -90.0L358.363636364 -37.0464657782"/>
<path id="coll0_8_992c85aa515416d5f1d5f2b2a74f8ec3" d="M402.545454545 -90.0L402.545454545 -24.5454545455"/>
<path id="coll0_9_b1aaf6d84ca8d905f8ef77bafd855aee" d="M446.727272727 -90.0L446.727272727 -37.0464657782"/>
<path id="coll0_a_7e282eb69764c8ce5c85afbb7c9231bb" d="M490.909090909 -90.0L490.909090909 -69.7734330955"/>
</defs>
<defs>
  <clipPath id="p12632432c599d5a3f93cdf6d5a4d19e3">
<rect x="27.0" y="18.0" width="486.0" height="144.0"/>
  </clipPath>
</defs><g clip-path="url(#p12632432c599d5a3f93cdf6d5a4d19e3)"><use style="fill: none; stroke: #000000; stroke-width: 1.0; stroke-linejoin: miter; stroke-linecap: butt;  opacity: 1.0" xlink:href="#coll0_0_2ea2e3a0683c0d2a7d954c608634f09a" x="0.000000" y="180.000000"/>
</g><g clip-path="url(#p12632432c599d5a3f93cdf6d5a4d19e3)"><use style="fill: none; stroke: #000000; stroke-width: 1.0; stroke-linejoin: miter; stroke-linecap: butt;  opacity: 1.0" xlink:href="#coll0_1_bdcc7d0e6554a75d7a44a434960b8641" x="0.000000" y="180.000000"/>
</g><g clip-path="url(#p12632432c599d5a3f93cdf6d5a4d19e3)"><use style="fill: none; stroke: #000000; stroke-width: 1.0; stroke-linejoin: miter; stroke-linecap: butt;  opacity: 1.0" xlink:href="#coll0_2_3bf03d591a52a691fd101ae3730d9119" x="0.000000" y="180.000000"/>
</g><g clip-path="url(#p12632432c599d5a3f93cdf6d5a4d19e3)"><use style="fill: none; stroke: #000000; stroke-width: 1.0; stroke-linejoin: miter; stroke-linecap: butt;  opacity: 1.0" xlink:href="#coll0_3_dc8cba8a0d60c6fa96dd2fb6c0e02b07" x="0.000000" y="180.000000"/>
</g><g clip-path="url(#p12632432c599d5a3f93cdf6d5a4d19e3)"><use style="fill: none; stroke: #000000; stroke-width: 1.0; stroke-linejoin: miter; stroke-linecap: butt;  opacity: 1.0" xlink:href="#coll0_4_135c90d81405799ec87e1c203307b6bc" x="0.000000" y="180.000000"/>
</g><g clip-path="url(#p12632432c599d5a3f93cdf6d5a4d19e3)"><use style="fill: none; stroke: #000000; stroke-width: 1.0; stroke-linejoin: miter; stroke-linecap: butt;  opacity: 1.0" xlink:href="#coll0_5_ef2e797563fe675d49eb03b719b798ee" x="0.000000" y="180.000000"/>
</g><g clip-path="url(#p12632432c599d5a3f93cdf6d5a4d19e3)"><use style="fill: none; stroke: #000000; stroke-width: 1.0; stroke-linejoin: miter; stroke-linecap: butt;  opacity: 1.0" xlink:href="#coll0_6_31d1ba47a16e02b8ea796c13275c23ae" x="0.000000" y="180.000000"/>
</g><g clip-path="url(#p12632432c599d5a3f93cdf6d5a4d19e3)"><use style="fill: none; stroke: #000000; stroke-width: 1.0; stroke-linejoin: miter; stroke-linecap: butt;  opacity: 1.0" xlink:href="#coll0_7_59754782c96ed6e6a67bd3feed9c0737" x="0.000000" y="180.000000"/>
</g><g clip-path="url(#p12632432c599d5a3f93cdf6d5a4d19e3)"><use style="fill: none; stroke: #000000; stroke-width: 1.0; stroke-linejoin: miter; stroke-linecap: butt;  opacity: 1.0" xlink:href="#coll0_8_992c85aa515416d5f1d5f2b2a74f8ec3" x="0.000000" y="180.000000"/>
</g><g clip-path="url(#p12632432c599d5a3f93cdf6d5a4d19e3)"><use style="fill: none; stroke: #000000; stroke-width: 1.0; stroke-linejoin: miter; stroke-linecap: butt;  opacity: 1.0" xlink:href="#coll0_9_b1aaf6d84ca8d905f8ef77bafd855aee" x="0.000000" y="180.000000"/>
</g><g clip-path="url(#p12632432c599d5a3f93cdf6d5a4d19e3)"><use style="fill: none; stroke: #000000; stroke-width: 1.0; stroke-linejoin: miter; stroke-linecap: butt;  opacity: 1.0" xlink:href="#coll0_a_7e282eb69764c8ce5c85afbb7c9231bb" x="0.000000" y="180.000000"/>
</g></g>
<g id="line2d1">
<path style="fill: none; stroke: #ff0000; stroke-width: 1.0; stroke-linejoin: miter; stroke-linecap: square;  opacity: 1.0" clip-path="url(#p12632432c599d5a3f93cdf6d5a4d19e3)" d="M31.4181818182 29.1419027419L31.8958230958 27.7834656759
L32.3734643735 26.6574798371L32.8511056511 25.7681520941
L33.3287469287 25.1188051219L33.8063882064 24.711864988
L34.284029484 24.5488520876L34.7616707617 24.6303754638
L35.2393120393 24.956130532L35.716953317 25.5249002173
L36.1945945946 26.3345595027L36.6722358722 27.3820833675
L37.1498771499 28.6635580898L37.6275184275 30.174195869
L38.1051597052 31.9083527132L38.5828009828 33.8595495268
L39.0604422604 36.0204963167L39.5380835381 38.3831194296
L40.0157248157 40.9385917161L40.4933660934 43.6773655105
L40.971007371 46.5892083026L41.4486486486 49.6632409677
L41.9262899263 52.887978413L42.4039312039 56.2513724881
L42.8815724816 59.7408569982L43.3592137592 63.343394654
L43.8368550369 67.0455257811L44.3144963145 70.8334186074
L44.7921375921 74.6929209409L45.2697788698 78.6096130447
L45.7474201474 82.5688615117L46.2250614251 86.5558739369
L46.7027027027 90.5557541848L47.1803439803 94.5535580434
L47.657985258 98.5343490586L48.1356265356 102.483254339
L48.6132678133 106.385520124L49.0909090909 110.226566905
L49.5685503686 113.992043897L50.0461916462 117.66788266
L50.5238329238 121.240349652L51.0014742015 124.696097549
L51.4791154791 128.022215107L51.9567567568 131.206275402
L52.4343980344 134.23638226L52.912039312 137.101214703
L53.3896805897 139.790069244L53.8673218673 142.29289988
L54.344963145 144.600355622L54.8226044226 146.703815436
L55.3002457002 148.59542045L55.7778869779 150.268103315
L56.2555282555 151.715614612L56.7331695332 152.932546201
L57.2108108108 153.914351424L57.6884520885 154.657362095
L58.1660933661 155.158802204L58.6437346437 155.416798289
L59.1213759214 155.430386432L59.599017199 155.199515868
L60.0766584767 154.725049165L60.5542997543 154.008759011
L61.0319410319 153.053321582L61.5095823096 151.862306551
L61.9872235872 150.440163747L62.4648648649 148.792206528
L62.9425061425 146.924591936L63.4201474201 144.844297685
L63.8977886978 142.559096098L64.3754299754 140.077525066
L64.8530712531 137.408856145L65.3307125307 134.563059924
L65.8083538084 131.550768766L66.285995086 128.383237087
L66.7636363636 125.072299308L67.2412776413 121.630325637
L67.7189189189 118.070175857L68.1965601966 114.405151273
L68.6742014742 110.648945021L69.1518427518 106.815590907
L69.6294840295 102.919410974L70.1071253071 98.9749619918
L70.5847665848 94.9969810724L71.0624078624 91.0003306082
L71.54004914 86.9999427438L72.0176904177 83.0107635879
L72.4953316953 79.0476973712L72.972972973 75.1255507624
L73.4506142506 71.2589775476L73.9282555283 67.4624238817
L74.4058968059 63.7500743149L74.8835380835 60.1357987972
L75.3611793612 56.6331008576L75.8388206388 53.2550671529
L76.3164619165 50.0143185738L76.7941031941 46.9229630912
L77.2717444717 43.9925505188L77.7493857494 41.2340293608
L78.227027027 38.657705907L78.7046683047 36.2732057265
L79.1823095823 34.089437705L79.65995086 32.1145607597
L80.1375921376 30.3559533564L80.6152334152 28.8201859423
L81.0928746929 27.5129963975L81.5705159705 26.4392685977
L82.0481572482 25.6030141669L82.5257985258 25.0073574894
L83.0034398034 24.6545240368L83.4810810811 24.545832053
L83.9587223587 24.6816876293L84.4363636364 25.0615831867
L84.914004914 25.6840993729L85.3916461916 26.5469103647
L85.8692874693 27.6467925581L86.3469287469 28.979636612
L86.8245700246 30.5404628012L87.3022113022 32.3234396219
L87.7798525799 34.3219055787L88.2574938575 36.5283940735
L88.7351351351 38.9346613016L89.2127764128 41.5317170519
L89.6904176904 44.3098582961L90.1680589681 47.2587054407
L90.6457002457 50.3672411066L91.1233415233 53.6238512923
L91.600982801 57.0163687652L92.0786240786 60.532118521
L92.5562653563 64.1579651391L93.0339066339 67.8803618589
L93.5115479115 71.6854011926L93.9891891892 75.5588668863
L94.4668304668 79.4862870335L94.9444717445 83.4529881452
L95.4221130221 87.4441499724L95.8997542998 91.4448608766
L96.3773955774 95.4401735424L96.855036855 99.4151608231
L97.3326781327 103.354971511L97.8103194103 107.244885824
L98.287960688 111.070370402L98.7656019656 114.817132602
L99.2432432432 118.471173905L99.7208845209 122.018842209
L100.198525799 125.446882841L100.676167076 128.742488077
L101.153808354 131.893344991L101.631449631 134.887681463
L102.109090909 137.714310158L102.586732187 140.362670327
L103.064373464 142.822867257L103.542014742 145.08570925
L104.01965602 147.142741952L104.497297297 148.986279953
L104.974938575 150.609435489L105.452579853 152.006144183
L105.93022113 153.171187703L106.407862408 154.100213254
L106.885503686 154.789749842L107.363144963 155.237221246
L107.840786241 155.440955639L108.318427518 155.400191835
L108.796068796 155.115082134L109.273710074 154.586691754
L109.751351351 153.816994849L110.228992629 152.808867131
L110.706633907 151.566075134L111.184275184 150.093262132
L111.661916462 148.395930798L112.13955774 146.480422641
L112.617199017 144.353894316L113.094840295 142.024290883
L113.572481572 139.500316124L114.05012285 136.791400025
L114.527764128 133.907663543L115.005405405 130.859880793
L115.483046683 127.659438794L115.960687961 124.318294924
L116.438329238 120.848932247L116.915970516 117.264312875
L117.393611794 113.577829537L117.871253071 109.803255541
L118.348894349 105.954693318L118.826535627 102.046521731
L119.304176904 98.0933423533L119.781818182 94.1099249146
L120.259459459 90.1111521191L120.737100737 86.1119640409
L121.214742015 82.1273023059L121.692383292 78.1720542671
L122.17002457 74.2609973831L122.647665848 70.4087440071
L123.125307125 66.6296867926L123.602948403 62.9379449203
L124.080589681 59.3473113464L124.558230958 55.8712012695
L125.035872236 52.5226020101L125.513513514 49.3140244868
L125.991154791 46.2574564741L126.468796069 43.3643178139
L126.946437346 40.6454177492L127.424078624 38.1109145386
L127.901719902 35.770277504L128.379361179 33.6322516512
L128.857002457 31.704824997L129.334643735 29.9951987252
L129.812285012 28.5097602813L130.28992629 27.2540595082
L130.767567568 26.2327879109L131.245208845 25.4497611285
L131.722850123 24.907904678L132.2004914 24.6092430246
L132.678132678 24.5548920173L133.155773956 24.7450547204
L133.633415233 25.1790206549L134.111056511 25.8551684524
L134.588697789 26.7709719132L135.066339066 27.9230094448
L135.543980344 29.306976845L136.021621622 30.9177033835
L136.499262899 32.7491711205L136.976904177 34.7945373905
L137.454545455 37.0461603682L137.932186732 39.4956276189
L138.40982801 42.1337875292L138.887469287 44.950783499
L139.365110565 47.9360907668L139.842751843 51.0785557328
L140.32039312 54.3664376298L140.798034398 57.7874523892
L141.275675676 61.3288185359L141.753316953 64.9773049424
L142.230958231 68.7192802619L142.708599509 72.540763858
L143.186240786 76.4274780381L143.663882064 80.3649013973
L144.141523342 84.338323073L144.619164619 88.3328977069
L145.096805897 92.3337009098L145.574447174 96.3257850214
L146.052088452 100.294234957L146.52972973 104.224223935
L147.007371007 108.101068867L147.485012285 111.910285223
L147.962653563 115.637641142L148.44029484 119.269210607
L148.917936118 122.791425478L149.395577396 126.191126178
L149.873218673 129.455610865L150.350859951 132.572682887
L150.828501229 135.530696348L151.306142506 138.318599623
L151.783783784 140.925976646L152.261425061 143.343085827
L152.739066339 145.560896446L153.216707617 147.571122398
L153.694348894 149.366253148L154.171990172 150.939581791
L154.64963145 152.285230112L155.127272727 153.398170547
L155.604914005 154.274244967L156.082555283 154.910180214
L156.56019656 155.303600328L157.037837838 155.453035429
L157.515479115 155.3579272L157.993120393 155.018630983
L158.470761671 154.436414443L158.948402948 153.613452839
L159.426044226 152.552820889L159.903685504 151.258481291
L160.381326781 149.735269909L160.858968059 147.988877713
L161.336609337 146.025829512L161.814250614 143.853459577
L162.291891892 141.479884241L162.76953317 138.913971572
L163.247174447 136.165308243L163.724815725 133.244163713
L164.202457002 130.16145186L164.68009828 126.928690202
L165.157739558 123.557956872L165.635380835 120.061845483
L166.113022113 116.453418085L166.590663391 112.746156357
L167.068304668 108.953911239L167.545945946 105.090851185
L168.023587224 101.171409223L168.501228501 97.210229035
L168.978869779 93.2221102431L169.456511057 89.2219531162
L169.934152334 85.2247029007L170.411793612 81.2452939822
L170.889434889 77.2985940884L171.367076167 73.3993487407
L171.844717445 69.5621261622L172.322358722 65.8012628492
L172.8 62.1308100066L173.277641278 58.5644810515
L173.755282555 55.1156003766L174.232923833 51.7970535685
L174.710565111 48.6212392651L175.188206388 45.6000228321
L175.665847666 42.7446920321L176.143488943 40.0659148515
L176.621130221 37.5736996435L177.098771499 35.2773577349
L177.576412776 33.1854686374L178.054054054 31.3058479936
L178.531695332 29.6455183761L179.009336609 28.2106830499
L179.486977887 27.0067027963L179.964619165 26.038075884
L180.442260442 25.3084212627L180.91990172 24.8204650425
L181.397542998 24.5760303082L181.875184275 24.5760303082
L182.352825553 24.8204650425L182.83046683 25.3084212627
L183.308108108 26.038075884L183.785749386 27.0067027963
L184.263390663 28.2106830499L184.741031941 29.6455183761
L185.218673219 31.3058479936L185.696314496 33.1854686374
L186.173955774 35.2773577349L186.651597052 37.5736996435
L187.129238329 40.0659148515L187.606879607 42.7446920321
L188.084520885 45.6000228321L188.562162162 48.6212392651
L189.03980344 51.7970535685L189.517444717 55.1156003766
L189.995085995 58.5644810515L190.472727273 62.1308100066
L190.95036855 65.8012628492L191.428009828 69.5621261622
L191.905651106 73.3993487407L192.383292383 77.2985940884
L192.860933661 81.2452939822L193.338574939 85.2247029007
L193.816216216 89.2219531162L194.293857494 93.2221102431
L194.771498771 97.210229035L195.249140049 101.171409223
L195.726781327 105.090851185L196.204422604 108.953911239
L196.682063882 112.746156357L197.15970516 116.453418085
L197.637346437 120.061845483L198.114987715 123.557956872
L198.592628993 126.928690202L199.07027027 130.16145186
L199.547911548 133.244163713L200.025552826 136.165308243
L200.503194103 138.913971572L200.980835381 141.479884241
L201.458476658 143.853459577L201.936117936 146.025829512
L202.413759214 147.988877713L202.891400491 149.735269909
L203.369041769 151.258481291L203.846683047 152.552820889
L204.324324324 153.613452839L204.801965602 154.436414443
L205.27960688 155.018630983L205.757248157 155.3579272
L206.234889435 155.453035429L206.712530713 155.303600328
L207.19017199 154.910180214L207.667813268 154.274244967
L208.145454545 153.398170547L208.623095823 152.285230112
L209.100737101 150.939581791L209.578378378 149.366253148
L210.056019656 147.571122398L210.533660934 145.560896446
L211.011302211 143.343085827L211.488943489 140.925976646
L211.966584767 138.318599623L212.444226044 135.530696348
L212.921867322 132.572682887L213.3995086 129.455610865
L213.877149877 126.191126178L214.354791155 122.791425478
L214.832432432 119.269210607L215.31007371 115.637641142
L215.787714988 111.910285223L216.265356265 108.101068867
L216.742997543 104.224223935L217.220638821 100.294234957
L217.698280098 96.3257850214L218.175921376 92.3337009098
L218.653562654 88.3328977069L219.131203931 84.338323073
L219.608845209 80.3649013973L220.086486486 76.4274780381
L220.564127764 72.540763858L221.041769042 68.7192802619
L221.519410319 64.9773049424L221.997051597 61.3288185359
L222.474692875 57.7874523892L222.952334152 54.3664376298
L223.42997543 51.0785557328L223.907616708 47.9360907668
L224.385257985 44.950783499L224.862899263 42.1337875292
L225.340540541 39.4956276189L225.818181818 37.0461603682
L226.295823096 34.7945373905L226.773464373 32.7491711205
L227.251105651 30.9177033835L227.728746929 29.306976845
L228.206388206 27.9230094448L228.684029484 26.7709719132
L229.161670762 25.8551684524L229.639312039 25.1790206549
L230.116953317 24.7450547204L230.594594595 24.5548920173
L231.072235872 24.6092430246L231.54987715 24.907904678
L232.027518428 25.4497611285L232.505159705 26.2327879109
L232.982800983 27.2540595082L233.46044226 28.5097602813
L233.938083538 29.9951987252L234.415724816 31.704824997
L234.893366093 33.6322516512L235.371007371 35.770277504
L235.848648649 38.1109145386L236.326289926 40.6454177492
L236.803931204 43.3643178139L237.281572482 46.2574564741
L237.759213759 49.3140244868L238.236855037 52.5226020101
L238.714496314 55.8712012695L239.192137592 59.3473113464
L239.66977887 62.9379449203L240.147420147 66.6296867926
L240.625061425 70.4087440071L241.102702703 74.2609973831
L241.58034398 78.1720542671L242.057985258 82.1273023059
L242.535626536 86.1119640409L243.013267813 90.1111521191
L243.490909091 94.1099249146L243.968550369 98.0933423533
L244.446191646 102.046521731L244.923832924 105.954693318
L245.401474201 109.803255541L245.879115479 113.577829537
L246.356756757 117.264312875L246.834398034 120.848932247
L247.312039312 124.318294924L247.78968059 127.659438794
L248.267321867 130.859880793L248.744963145 133.907663543
L249.222604423 136.791400025L249.7002457 139.500316124
L250.177886978 142.024290883L250.655528256 144.353894316
L251.133169533 146.480422641L251.610810811 148.395930798
L252.088452088 150.093262132L252.566093366 151.566075134
L253.043734644 152.808867131L253.521375921 153.816994849
L253.999017199 154.586691754L254.476658477 155.115082134
L254.954299754 155.400191835L255.431941032 155.440955639
L255.90958231 155.237221246L256.387223587 154.789749842
L256.864864865 154.100213254L257.342506143 153.171187703
L257.82014742 152.006144183L258.297788698 150.609435489
L258.775429975 148.986279953L259.253071253 147.142741952
L259.730712531 145.08570925L260.208353808 142.822867257
L260.685995086 140.362670327L261.163636364 137.714310158
L261.641277641 134.887681463L262.118918919 131.893344991
L262.596560197 128.742488077L263.074201474 125.446882841
L263.551842752 122.018842209L264.029484029 118.471173905
L264.507125307 114.817132602L264.984766585 111.070370402
L265.462407862 107.244885824L265.94004914 103.354971511
L266.417690418 99.4151608231L266.895331695 95.4401735424
L267.372972973 91.4448608766L267.850614251 87.4441499724
L268.328255528 83.4529881452L268.805896806 79.4862870335
L269.283538084 75.5588668863L269.761179361 71.6854011926
L270.238820639 67.8803618589L270.716461916 64.1579651391
L271.194103194 60.532118521L271.671744472 57.0163687652
L272.149385749 53.6238512923L272.627027027 50.3672411066
L273.104668305 47.2587054407L273.582309582 44.3098582961
L274.05995086 41.5317170519L274.537592138 38.9346613016
L275.015233415 36.5283940735L275.492874693 34.3219055787
L275.970515971 32.3234396219L276.448157248 30.5404628012
L276.925798526 28.979636612L277.403439803 27.6467925581
L277.881081081 26.5469103647L278.358722359 25.6840993729
L278.836363636 25.0615831867L279.314004914 24.6816876293
L279.791646192 24.545832053L280.269287469 24.6545240368
L280.746928747 25.0073574894L281.224570025 25.6030141669
L281.702211302 26.4392685977L282.17985258 27.5129963975
L282.657493857 28.8201859423L283.135135135 30.3559533564
L283.612776413 32.1145607597L284.09041769 34.089437705
L284.568058968 36.2732057265L285.045700246 38.657705907
L285.523341523 41.2340293608L286.000982801 43.9925505188
L286.478624079 46.9229630912L286.956265356 50.0143185738
L287.433906634 53.2550671529L287.911547912 56.6331008576
L288.389189189 60.1357987972L288.866830467 63.7500743149
L289.344471744 67.4624238817L289.822113022 71.2589775476
L290.2997543 75.1255507624L290.777395577 79.0476973712
L291.255036855 83.0107635879L291.732678133 86.9999427438
L292.21031941 91.0003306082L292.687960688 94.9969810724
L293.165601966 98.9749619918L293.643243243 102.919410974
L294.120884521 106.815590907L294.598525799 110.648945021
L295.076167076 114.405151273L295.553808354 118.070175857
L296.031449631 121.630325637L296.509090909 125.072299308
L296.986732187 128.383237087L297.464373464 131.550768766
L297.942014742 134.563059924L298.41965602 137.408856145
L298.897297297 140.077525066L299.374938575 142.559096098
L299.852579853 144.844297685L300.33022113 146.924591936
L300.807862408 148.792206528L301.285503686 150.440163747
L301.763144963 151.862306551L302.240786241 153.053321582
L302.718427518 154.008759011L303.196068796 154.725049165
L303.673710074 155.199515868L304.151351351 155.430386432
L304.628992629 155.416798289L305.106633907 155.158802204
L305.584275184 154.657362095L306.061916462 153.914351424
L306.53955774 152.932546201L307.017199017 151.715614612
L307.494840295 150.268103315L307.972481572 148.59542045
L308.45012285 146.703815436L308.927764128 144.600355622
L309.405405405 142.29289988L309.883046683 139.790069244
L310.360687961 137.101214703L310.838329238 134.23638226
L311.315970516 131.206275402L311.793611794 128.022215107
L312.271253071 124.696097549L312.748894349 121.240349652
L313.226535627 117.66788266L313.704176904 113.992043897
L314.181818182 110.226566905L314.659459459 106.385520124
L315.137100737 102.483254339L315.614742015 98.5343490586
L316.092383292 94.5535580434L316.57002457 90.5557541848
L317.047665848 86.5558739369L317.525307125 82.5688615117
L318.002948403 78.6096130447L318.480589681 74.6929209409
L318.958230958 70.8334186074L319.435872236 67.0455257811
L319.913513514 63.343394654L320.391154791 59.7408569982
L320.868796069 56.2513724881L321.346437346 52.887978413
L321.824078624 49.6632409677L322.301719902 46.5892083026
L322.779361179 43.6773655105L323.257002457 40.9385917161
L323.734643735 38.3831194296L324.212285012 36.0204963167
L324.68992629 33.8595495268L325.167567568 31.9083527132
L325.645208845 30.174195869L326.122850123 28.6635580898
L326.6004914 27.3820833675L327.078132678 26.3345595027
L327.555773956 25.5249002173L328.033415233 24.956130532
L328.511056511 24.6303754638L328.988697789 24.5488520876
L329.466339066 24.711864988L329.943980344 25.1188051219
L330.421621622 25.7681520941L330.899262899 26.6574798371
L331.376904177 27.7834656759L331.854545455 29.1419027419
L332.332186732 30.7277156902L332.80982801 32.5349796623
L333.287469287 34.5569424221L333.765110565 36.7860495835
L334.242751843 39.2139728346L334.72039312 41.8316410542
L335.198034398 44.6292742021L335.675675676 47.5964198599
L336.153316953 50.7219922823L336.630958231 53.9943138156
L337.108599509 57.4011585271L337.586240786 60.9297978835
L338.063882064 64.5670483066L338.541523342 68.2993204292
L339.019164619 72.1126698675L339.496805897 75.9928493194
L339.974447174 79.9253617951L340.452088452 83.8955147796
L340.92972973 87.8884751271L341.407371007 91.8893244796
L341.885012285 95.8831150044L342.362653563 99.8549252419
L342.84029484 103.789915854L343.317936118 107.673385068
L343.795577396 111.490823602L344.273218673 115.227968877
L344.750859951 118.870858302L345.228501229 122.405881442
L345.706142506 125.819830867L346.183783784 129.099951501
L346.661425061 132.23398827L347.139066339 135.210231898
L347.616707617 138.017562648L348.094348894 140.64549187
L348.571990172 143.084201186L349.04963145 145.324579177
L349.527272727 147.358255421L350.004914005 149.177631769
L350.482555283 150.77591073L350.96019656 152.147120872
L351.437837838 153.286139126L351.915479115 154.188709934
L352.393120393 154.851461141L352.870761671 155.2719166
L353.348402948 155.44850542L353.826044226 155.380567837
L354.303685504 155.068357675L354.781326781 154.513041405
L355.258968059 153.716693778L355.736609337 152.682290081
L356.214250614 151.413695017L356.691891892 149.915648265
L357.16953317 148.193746776L357.647174447 146.254423857
L358.124815725 144.104925139L358.602457002 141.753281502
L359.08009828 139.208279075L359.557739558 136.479426407
L360.035380835 133.576918941L360.513022113 130.511600923
L360.990663391 127.294924886L361.468304668 123.938908863
L361.945945946 120.456091483L362.423587224 116.859485124
L362.901228501 113.162527302L363.378869779 109.379030461
L363.856511057 105.523130367L364.334152334 101.6092333
L364.811793612 97.6519622237L365.289434889 93.6661021553
L365.767076167 89.6665449249L366.244717445 85.6682335376
L366.722358722 81.6861063438L367.2 77.7350412271L367.677641278 73.829800018
L368.155282555 69.9849733412L368.632923833 66.214926103
L369.110565111 62.5337438213L369.588206388 58.9551799999
L370.065847666 55.4926047429L370.543488943 52.1589548024
L371.021130221 48.9666852439L371.498771499 45.9277229127
L371.976412776 43.0534218729L372.454054054 40.354520987
L372.931695332 37.8411037936L373.409336609 35.5225608336
L373.886977887 33.4075545656L374.364619165 31.5039870016
L374.842260442 29.8189701838L375.31990172 28.3587996129
L375.797542998 27.1289307266L376.275184275 26.133958518
L376.752825553 25.3776003671L377.23046683 24.8626821527
L377.708108108 24.5911276941L378.185749386 24.5639515635
L378.663390663 24.7812552954L379.141031941 25.2422270073
L379.618673219 25.9451444328L380.096314496 26.8873813567
L380.573955774 28.0654174264L381.051597052 29.474851305
L381.529238329 31.1104171153L382.006879607 32.9660041137
L382.484520885 35.0346795215L382.962162162 37.3087144263
L383.43980344 39.7796126588L383.917444717 42.4381425361
L384.395085995 45.2743713524L384.872727273 48.2777024892
L385.35036855 51.4369150064L385.828009828 54.7402055653
L386.305651106 58.175232528L386.783292383 61.7291620676
L387.260933661 65.3887161173L387.738574939 69.1402219803
L388.216216216 72.9696634122L388.693857494 76.8627329886
L389.171498771 80.8048855599L389.649140049 84.7813925944
L390.126781327 88.7773972063L390.604422604 92.7779696637
L391.082063882 96.7681631687L391.55970516 100.7330697
L392.037346437 104.657875715L392.514987715 108.527917489
L392.992628993 112.32873591L393.47027027 116.046130493
L393.947911548 119.66621244L394.425552826 123.175456527
L394.903194103 126.560751641L395.380835381 129.80944976
L395.858476658 132.909413213L396.336117936 135.849060026
L396.813759214 138.617407193L397.291400491 141.204111714
L397.769041769 143.599509234L398.246683047 145.794650153
L398.724324324 147.781333062L399.201965602 149.552135387
L399.67960688 151.100441118L400.157248157 152.420465531
L400.634889435 153.507276796L401.112530713 154.356814407
L401.59017199 154.965904351L402.067813268 155.332270969
L402.545454545 155.454545455L403.023095823 155.332270969
L403.500737101 154.965904351L403.978378378 154.356814407
L404.456019656 153.507276796L404.933660934 152.420465531
L405.411302211 151.100441118L405.888943489 149.552135387
L406.366584767 147.781333062L406.844226044 145.794650153
L407.321867322 143.599509234L407.7995086 141.204111714
L408.277149877 138.617407193L408.754791155 135.849060026
L409.232432432 132.909413213L409.71007371 129.80944976
L410.187714988 126.560751641L410.665356265 123.175456527
L411.142997543 119.66621244L411.620638821 116.046130493
L412.098280098 112.32873591L412.575921376 108.527917489
L413.053562654 104.657875715L413.531203931 100.7330697
L414.008845209 96.7681631687L414.486486486 92.7779696637
L414.964127764 88.7773972063L415.441769042 84.7813925944
L415.919410319 80.8048855599L416.397051597 76.8627329886
L416.874692875 72.9696634122L417.352334152 69.1402219803
L417.82997543 65.3887161173L418.307616708 61.7291620676
L418.785257985 58.175232528L419.262899263 54.7402055653
L419.740540541 51.4369150064L420.218181818 48.2777024892
L420.695823096 45.2743713524L421.173464373 42.4381425361
L421.651105651 39.7796126588L422.128746929 37.3087144263
L422.606388206 35.0346795215L423.084029484 32.9660041137
L423.561670762 31.1104171153L424.039312039 29.474851305
L424.516953317 28.0654174264L424.994594595 26.8873813567
L425.472235872 25.9451444328L425.94987715 25.2422270073
L426.427518428 24.7812552954L426.905159705 24.5639515635
L427.382800983 24.5911276941L427.86044226 24.8626821527
L428.338083538 25.3776003671L428.815724816 26.133958518
L429.293366093 27.1289307266L429.771007371 28.3587996129
L430.248648649 29.8189701838L430.726289926 31.5039870016
L431.203931204 33.4075545656L431.681572482 35.5225608336
L432.159213759 37.8411037936L432.636855037 40.354520987
L433.114496314 43.0534218729L433.592137592 45.9277229127
L434.06977887 48.9666852439L434.547420147 52.1589548024
L435.025061425 55.4926047429L435.502702703 58.9551799999
L435.98034398 62.5337438213L436.457985258 66.214926103
L436.935626536 69.9849733412L437.413267813 73.829800018
L437.890909091 77.7350412271L438.368550369 81.6861063438
L438.846191646 85.6682335376L439.323832924 89.6665449249
L439.801474201 93.6661021553L440.279115479 97.6519622237
L440.756756757 101.6092333L441.234398034 105.523130367
L441.712039312 109.379030461L442.18968059 113.162527302
L442.667321867 116.859485124L443.144963145 120.456091483
L443.622604423 123.938908863L444.1002457 127.294924886
L444.577886978 130.511600923L445.055528256 133.576918941
L445.533169533 136.479426407L446.010810811 139.208279075
L446.488452088 141.753281502L446.966093366 144.104925139
L447.443734644 146.254423857L447.921375921 148.193746776
L448.399017199 149.915648265L448.876658477 151.413695017
L449.354299754 152.682290081L449.831941032 153.716693778
L450.30958231 154.513041405L450.787223587 155.068357675
L451.264864865 155.380567837L451.742506143 155.44850542
L452.22014742 155.2719166L452.697788698 154.851461141
L453.175429975 154.188709934L453.653071253 153.286139126
L454.130712531 152.147120872L454.608353808 150.77591073
L455.085995086 149.177631769L455.563636364 147.358255421
L456.041277641 145.324579177L456.518918919 143.084201186
L456.996560197 140.64549187L457.474201474 138.017562648
L457.951842752 135.210231898L458.429484029 132.23398827
L458.907125307 129.099951501L459.384766585 125.819830867
L459.862407862 122.405881442L460.34004914 118.870858302
L460.817690418 115.227968877L461.295331695 111.490823602
L461.772972973 107.673385068L462.250614251 103.789915854
L462.728255528 99.8549252419L463.205896806 95.8831150044
L463.683538084 91.8893244796L464.161179361 87.8884751271
L464.638820639 83.8955147796L465.116461916 79.9253617951
L465.594103194 75.9928493194L466.071744472 72.1126698675
L466.549385749 68.2993204292L467.027027027 64.5670483066
L467.504668305 60.9297978835L467.982309582 57.4011585271
L468.45995086 53.9943138156L468.937592138 50.7219922823
L469.415233415 47.5964198599L469.892874693 44.6292742021
L470.370515971 41.8316410542L470.848157248 39.2139728346
L471.325798526 36.7860495835L471.803439803 34.5569424221
L472.281081081 32.5349796623L472.758722359 30.7277156902
L473.236363636 29.1419027419L473.714004914 27.7834656759
L474.191646192 26.6574798371L474.669287469 25.7681520941
L475.146928747 25.1188051219L475.624570025 24.711864988
L476.102211302 24.5488520876L476.57985258 24.6303754638
L477.057493857 24.956130532L477.535135135 25.5249002173
L478.012776413 26.3345595027L478.49041769 27.3820833675
L478.968058968 28.6635580898L479.445700246 30.174195869
L479.923341523 31.9083527132L480.400982801 33.8595495268
L480.878624079 36.0204963167L481.356265356 38.3831194296
L481.833906634 40.9385917161L482.311547912 43.6773655105
L482.789189189 46.5892083026L483.266830467 49.6632409677
L483.744471744 52.887978413L484.222113022 56.2513724881
L484.6997543 59.7408569982L485.177395577 63.343394654
L485.655036855 67.0455257811L486.132678133 70.8334186074
L486.61031941 74.6929209409L487.087960688 78.6096130447
L487.565601966 82.5688615117L488.043243243 86.5558739369
L488.520884521 90.5557541848L488.998525799 94.5535580434
L489.476167076 98.5343490586L489.953808354 102.483254339
L490.431449631 106.385520124L490.909090909 110.226566905
L491.386732187 113.992043897L491.864373464 117.66788266
L492.342014742 121.240349652L492.81965602 124.696097549
L493.297297297 128.022215107L493.774938575 131.206275402
L494.252579853 134.23638226L494.73022113 137.101214703
L495.207862408 139.790069244L495.685503686 142.29289988
L496.163144963 144.600355622L496.640786241 146.703815436
L497.118427518 148.59542045L497.596068796 150.268103315
L498.073710074 151.715614612L498.551351351 152.932546201
L499.028992629 153.914351424L499.506633907 154.657362095
L499.984275184 155.158802204L500.461916462 155.416798289
L500.93955774 155.430386432L501.417199017 155.199515868
L501.894840295 154.725049165L502.372481572 154.008759011
L502.85012285 153.053321582L503.327764128 151.862306551
L503.805405405 150.440163747L504.283046683 148.792206528
L504.760687961 146.924591936L505.238329238 144.844297685
L505.715970516 142.559096098L506.193611794 140.077525066
L506.671253071 137.408856145L507.148894349 134.563059924
L507.626535627 131.550768766L508.104176904 128.383237087
L508.581818182 125.072299308"/>
</g>
<g id="line2d2">
<path style="fill: none; stroke: #0000ff; stroke-width: 1.0; stroke-linejoin: miter; stroke-linecap: square;  opacity: 1.0" clip-path="url(#p12632432c599d5a3f93cdf6d5a4d19e3)" d="M31.4181818182 125.072299308L31.8958230958 124.696097549
L32.3734643735 124.318294924L32.8511056511 123.938908863
L33.3287469287 123.557956872L33.8063882064 123.175456527
L34.284029484 122.791425478L34.7616707617 122.405881442
L35.2393120393 122.018842209L35.716953317 121.630325637
L36.1945945946 121.240349652L36.6722358722 120.848932247
L37.1498771499 120.456091483L37.6275184275 120.061845483
L38.1051597052 119.66621244L38.5828009828 119.269210607
L39.0604422604 118.870858302L39.5380835381 118.471173905
L40.0157248157 118.070175857L40.4933660934 117.66788266
L40.971007371 117.264312875L41.4486486486 116.859485124
L41.9262899263 116.453418085L42.4039312039 116.046130493
L42.8815724816 115.637641142L43.3592137592 115.227968877
L43.8368550369 114.817132602L44.3144963145 114.405151273
L44.7921375921 113.992043897L45.2697788698 113.577829537
L45.7474201474 113.162527302L46.2250614251 112.746156357
L46.7027027027 112.32873591L47.1803439803 111.910285223
L47.657985258 111.490823602L48.1356265356 111.070370402
L48.6132678133 110.648945021L49.0909090909 110.226566905
L49.5685503686 109.803255541L50.0461916462 109.379030461
L50.5238329238 108.953911239L51.0014742015 108.527917489
L51.4791154791 108.101068867L51.9567567568 107.673385068
L52.4343980344 107.244885824L52.912039312 106.815590907
L53.3896805897 106.385520124L53.8673218673 105.954693318
L54.344963145 105.523130367L54.8226044226 105.090851185
L55.3002457002 104.657875715L55.7778869779 104.224223935
L56.2555282555 103.789915854L56.7331695332 103.354971511
L57.2108108108 102.919410974L57.6884520885 102.483254339
L58.1660933661 102.046521731L58.6437346437 101.6092333
L59.1213759214 101.171409223L59.599017199 100.7330697
L60.0766584767 100.294234957L60.5542997543 99.8549252419
L61.0319410319 99.4151608231L61.5095823096 98.9749619918
L61.9872235872 98.5343490586L62.4648648649 98.0933423533
L62.9425061425 97.6519622237L63.4201474201 97.210229035
L63.8977886978 96.7681631687L64.3754299754 96.3257850214
L64.8530712531 95.8831150044L65.3307125307 95.4401735424
L65.8083538084 94.9969810724L66.285995086 94.5535580434
L66.7636363636 94.1099249146L67.2412776413 93.6661021553
L67.7189189189 93.2221102431L68.1965601966 92.7779696637
L68.6742014742 92.3337009098L69.1518427518 91.8893244796
L69.6294840295 91.4448608766L70.1071253071 91.0003306082
L70.5847665848 90.5557541848L71.0624078624 90.1111521191
L71.54004914 89.6665449249L72.0176904177 89.2219531162
L72.4953316953 88.7773972063L72.972972973 88.3328977069
L73.4506142506 87.8884751271L73.9282555283 87.4441499724
L74.4058968059 86.9999427438L74.8835380835 86.5558739369
L75.3611793612 86.1119640409L75.8388206388 85.6682335376
L76.3164619165 85.2247029007L76.7941031941 84.7813925944
L77.2717444717 84.338323073L77.7493857494 83.8955147796
L78.227027027 83.4529881452L78.7046683047 83.0107635879
L79.1823095823 82.5688615117L79.65995086 82.1273023059
L80.1375921376 81.6861063438L80.6152334152 81.2452939822
L81.0928746929 80.8048855599L81.5705159705 80.3649013973
L82.0481572482 79.9253617951L82.5257985258 79.4862870335
L83.0034398034 79.0476973712L83.4810810811 78.6096130447
L83.9587223587 78.1720542671L84.4363636364 77.7350412271
L84.914004914 77.2985940884L85.3916461916 76.8627329886
L85.8692874693 76.4274780381L86.3469287469 75.9928493194
L86.8245700246 75.5588668863L87.3022113022 75.1255507624
L87.7798525799 74.6929209409L88.2574938575 74.2609973831
L88.7351351351 73.829800018L89.2127764128 73.3993487407
L89.6904176904 72.9696634122L90.1680589681 72.540763858
L90.6457002457 72.1126698675L91.1233415233 71.6854011926
L91.600982801 71.2589775476L92.0786240786 70.8334186074
L92.5562653563 70.4087440071L93.0339066339 69.9849733412
L93.5115479115 69.5621261622L93.9891891892 69.1402219803
L94.4668304668 68.7192802619L94.9444717445 68.2993204292
L95.4221130221 67.8803618589L95.8997542998 67.4624238817
L96.3773955774 67.0455257811L96.855036855 66.6296867926
L97.3326781327 66.214926103L97.8103194103 65.8012628492
L98.287960688 65.3887161173L98.7656019656 64.9773049424
L99.2432432432 64.5670483066L99.7208845209 64.1579651391
L100.198525799 63.7500743149L100.676167076 63.343394654
L101.153808354 62.9379449203L101.631449631 62.5337438213
L102.109090909 62.1308100066L102.586732187 61.7291620676
L103.064373464 61.3288185359L103.542014742 60.9297978835
L104.01965602 60.532118521L104.497297297 60.1357987972
L104.974938575 59.7408569982L105.452579853 59.3473113464
L105.93022113 58.9551799999L106.407862408 58.5644810515
L106.885503686 58.175232528L107.363144963 57.7874523892
L107.840786241 57.4011585271L108.318427518 57.0163687652
L108.796068796 56.6331008576L109.273710074 56.2513724881
L109.751351351 55.8712012695L110.228992629 55.4926047429
L110.706633907 55.1156003766L111.184275184 54.7402055653
L111.661916462 54.3664376298L112.13955774 53.9943138156
L112.617199017 53.6238512923L113.094840295 53.2550671529
L113.572481572 52.887978413L114.05012285 52.5226020101
L114.527764128 52.1589548024L115.005405405 51.7970535685
L115.483046683 51.4369150064L115.960687961 51.0785557328
L116.438329238 50.7219922823L116.915970516 50.3672411066
L117.393611794 50.0143185738L117.871253071 49.6632409677
L118.348894349 49.3140244868L118.826535627 48.9666852439
L119.304176904 48.6212392651L119.781818182 48.2777024892
L120.259459459 47.9360907668L120.737100737 47.5964198599
L121.214742015 47.2587054407L121.692383292 46.9229630912
L122.17002457 46.5892083026L122.647665848 46.2574564741
L123.125307125 45.9277229127L123.602948403 45.6000228321
L124.080589681 45.2743713524L124.558230958 44.950783499
L125.035872236 44.6292742021L125.513513514 44.3098582961
L125.991154791 43.9925505188L126.468796069 43.6773655105
L126.946437346 43.3643178139L127.424078624 43.0534218729
L127.901719902 42.7446920321L128.379361179 42.4381425361
L128.857002457 42.1337875292L129.334643735 41.8316410542
L129.812285012 41.5317170519L130.28992629 41.2340293608
L130.767567568 40.9385917161L131.245208845 40.6454177492
L131.722850123 40.354520987L132.2004914 40.0659148515
L132.678132678 39.7796126588L133.155773956 39.4956276189
L133.633415233 39.2139728346L134.111056511 38.9346613016
L134.588697789 38.657705907L135.066339066 38.3831194296
L135.543980344 38.1109145386L136.021621622 37.8411037936
L136.499262899 37.5736996435L136.976904177 37.3087144263
L137.454545455 37.0461603682L137.932186732 36.7860495835
L138.40982801 36.5283940735L138.887469287 36.2732057265
L139.365110565 36.0204963167L139.842751843 35.770277504
L140.32039312 35.5225608336L140.798034398 35.2773577349
L141.275675676 35.0346795215L141.753316953 34.7945373905
L142.230958231 34.5569424221L142.708599509 34.3219055787
L143.186240786 34.089437705L143.663882064 33.8595495268
L144.141523342 33.6322516512L144.619164619 33.4075545656
L145.096805897 33.1854686374L145.574447174 32.9660041137
L146.052088452 32.7491711205L146.52972973 32.5349796623
L147.007371007 32.3234396219L147.485012285 32.1145607597
L147.962653563 31.9083527132L148.44029484 31.704824997
L148.917936118 31.5039870016L149.395577396 31.3058479936
L149.873218673 31.1104171153L150.350859951 30.9177033835
L150.828501229 30.7277156902L151.306142506 30.5404628012
L151.783783784 30.3559533564L152.261425061 30.174195869
L152.739066339 29.9951987252L153.216707617 29.8189701838
L153.694348894 29.6455183761L154.171990172 29.474851305
L154.64963145 29.306976845L155.127272727 29.1419027419
L155.604914005 28.979636612L156.082555283 28.8201859423
L156.56019656 28.6635580898L157.037837838 28.5097602813
L157.515479115 28.3587996129L157.993120393 28.2106830499
L158.470761671 28.0654174264L158.948402948 27.9230094448
L159.426044226 27.7834656759L159.903685504 27.6467925581
L160.381326781 27.5129963975L160.858968059 27.3820833675
L161.336609337 27.2540595082L161.814250614 27.1289307266
L162.291891892 27.0067027963L162.76953317 26.8873813567
L163.247174447 26.7709719132L163.724815725 26.6574798371
L164.202457002 26.5469103647L164.68009828 26.4392685977
L165.157739558 26.3345595027L165.635380835 26.2327879109
L166.113022113 26.133958518L166.590663391 26.038075884
L167.068304668 25.9451444328L167.545945946 25.8551684524
L168.023587224 25.7681520941L168.501228501 25.6840993729
L168.978869779 25.6030141669L169.456511057 25.5249002173
L169.934152334 25.4497611285L170.411793612 25.3776003671
L170.889434889 25.3084212627L171.367076167 25.2422270073
L171.844717445 25.1790206549L172.322358722 25.1188051219
L172.8 25.0615831867L173.277641278 25.0073574894L173.755282555 24.956130532
L174.232923833 24.907904678L174.710565111 24.8626821527
L175.188206388 24.8204650425L175.665847666 24.7812552954
L176.143488943 24.7450547204L176.621130221 24.711864988
L177.098771499 24.6816876293L177.576412776 24.6545240368
L178.054054054 24.6303754638L178.531695332 24.6092430246
L179.009336609 24.5911276941L179.486977887 24.5760303082
L179.964619165 24.5639515635L180.442260442 24.5548920173
L180.91990172 24.5488520876L181.397542998 24.545832053
L181.875184275 24.545832053L182.352825553 24.5488520876
L182.83046683 24.5548920173L183.308108108 24.5639515635
L183.785749386 24.5760303082L184.263390663 24.5911276941
L184.741031941 24.6092430246L185.218673219 24.6303754638
L185.696314496 24.6545240368L186.173955774 24.6816876293
L186.651597052 24.711864988L187.129238329 24.7450547204
L187.606879607 24.7812552954L188.084520885 24.8204650425
L188.562162162 24.8626821527L189.03980344 24.907904678
L189.517444717 24.956130532L189.995085995 25.0073574894
L190.472727273 25.0615831867L190.95036855 25.1188051219
L191.428009828 25.1790206549L191.905651106 25.2422270073
L192.383292383 25.3084212627L192.860933661 25.3776003671
L193.338574939 25.4497611285L193.816216216 25.5249002173
L194.293857494 25.6030141669L194.771498771 25.6840993729
L195.249140049 25.7681520941L195.726781327 25.8551684524
L196.204422604 25.9451444328L196.682063882 26.038075884
L197.15970516 26.133958518L197.637346437 26.2327879109
L198.114987715 26.3345595027L198.592628993 26.4392685977
L199.07027027 26.5469103647L199.547911548 26.6574798371
L200.025552826 26.7709719132L200.503194103 26.8873813567
L200.980835381 27.0067027963L201.458476658 27.1289307266
L201.936117936 27.2540595082L202.413759214 27.3820833675
L202.891400491 27.5129963975L203.369041769 27.6467925581
L203.846683047 27.7834656759L204.324324324 27.9230094448
L204.801965602 28.0654174264L205.27960688 28.2106830499
L205.757248157 28.3587996129L206.234889435 28.5097602813
L206.712530713 28.6635580898L207.19017199 28.8201859423
L207.667813268 28.979636612L208.145454545 29.1419027419
L208.623095823 29.306976845L209.100737101 29.474851305
L209.578378378 29.6455183761L210.056019656 29.8189701838
L210.533660934 29.9951987252L211.011302211 30.174195869
L211.488943489 30.3559533564L211.966584767 30.5404628012
L212.444226044 30.7277156902L212.921867322 30.9177033835
L213.3995086 31.1104171153L213.877149877 31.3058479936
L214.354791155 31.5039870016L214.832432432 31.704824997
L215.31007371 31.9083527132L215.787714988 32.1145607597
L216.265356265 32.3234396219L216.742997543 32.5349796623
L217.220638821 32.7491711205L217.698280098 32.9660041137
L218.175921376 33.1854686374L218.653562654 33.4075545656
L219.131203931 33.6322516512L219.608845209 33.8595495268
L220.086486486 34.089437705L220.564127764 34.3219055787
L221.041769042 34.5569424221L221.519410319 34.7945373905
L221.997051597 35.0346795215L222.474692875 35.2773577349
L222.952334152 35.5225608336L223.42997543 35.770277504
L223.907616708 36.0204963167L224.385257985 36.2732057265
L224.862899263 36.5283940735L225.340540541 36.7860495835
L225.818181818 37.0461603682L226.295823096 37.3087144263
L226.773464373 37.5736996435L227.251105651 37.8411037936
L227.728746929 38.1109145386L228.206388206 38.3831194296
L228.684029484 38.657705907L229.161670762 38.9346613016
L229.639312039 39.2139728346L230.116953317 39.4956276189
L230.594594595 39.7796126588L231.072235872 40.0659148515
L231.54987715 40.354520987L232.027518428 40.6454177492
L232.505159705 40.9385917161L232.982800983 41.2340293608
L233.46044226 41.5317170519L233.938083538 41.8316410542
L234.415724816 42.1337875292L234.893366093 42.4381425361
L235.371007371 42.7446920321L235.848648649 43.0534218729
L236.326289926 43.3643178139L236.803931204 43.6773655105
L237.281572482 43.9925505188L237.759213759 44.3098582961
L238.236855037 44.6292742021L238.714496314 44.950783499
L239.192137592 45.2743713524L239.66977887 45.6000228321
L240.147420147 45.9277229127L240.625061425 46.2574564741
L241.102702703 46.5892083026L241.58034398 46.9229630912
L242.057985258 47.2587054407L242.535626536 47.5964198599
L243.013267813 47.9360907668L243.490909091 48.2777024892
L243.968550369 48.6212392651L244.446191646 48.9666852439
L244.923832924 49.3140244868L245.401474201 49.6632409677
L245.879115479 50.0143185738L246.356756757 50.3672411066
L246.834398034 50.7219922823L247.312039312 51.0785557328
L247.78968059 51.4369150064L248.267321867 51.7970535685
L248.744963145 52.1589548024L249.222604423 52.5226020101
L249.7002457 52.887978413L250.177886978 53.2550671529
L250.655528256 53.6238512923L251.133169533 53.9943138156
L251.610810811 54.3664376298L252.088452088 54.7402055653
L252.566093366 55.1156003766L253.043734644 55.4926047429
L253.521375921 55.8712012695L253.999017199 56.2513724881
L254.476658477 56.6331008576L254.954299754 57.0163687652
L255.431941032 57.4011585271L255.90958231 57.7874523892
L256.387223587 58.175232528L256.864864865 58.5644810515
L257.342506143 58.9551799999L257.82014742 59.3473113464
L258.297788698 59.7408569982L258.775429975 60.1357987972
L259.253071253 60.532118521L259.730712531 60.9297978835
L260.208353808 61.3288185359L260.685995086 61.7291620676
L261.163636364 62.1308100066L261.641277641 62.5337438213
L262.118918919 62.9379449203L262.596560197 63.343394654
L263.074201474 63.7500743149L263.551842752 64.1579651391
L264.029484029 64.5670483066L264.507125307 64.9773049424
L264.984766585 65.3887161173L265.462407862 65.8012628492
L265.94004914 66.214926103L266.417690418 66.6296867926
L266.895331695 67.0455257811L267.372972973 67.4624238817
L267.850614251 67.8803618589L268.328255528 68.2993204292
L268.805896806 68.7192802619L269.283538084 69.1402219803
L269.761179361 69.5621261622L270.238820639 69.9849733412
L270.716461916 70.4087440071L271.194103194 70.8334186074
L271.671744472 71.2589775476L272.149385749 71.6854011926
L272.627027027 72.1126698675L273.104668305 72.540763858
L273.582309582 72.9696634122L274.05995086 73.3993487407
L274.537592138 73.829800018L275.015233415 74.2609973831
L275.492874693 74.6929209409L275.970515971 75.1255507624
L276.448157248 75.5588668863L276.925798526 75.9928493194
L277.403439803 76.4274780381L277.881081081 76.8627329886
L278.358722359 77.2985940884L278.836363636 77.7350412271
L279.314004914 78.1720542671L279.791646192 78.6096130447
L280.269287469 79.0476973712L280.746928747 79.4862870335
L281.224570025 79.9253617951L281.702211302 80.3649013973
L282.17985258 80.8048855599L282.657493857 81.2452939822
L283.135135135 81.6861063438L283.612776413 82.1273023059
L284.09041769 82.5688615117L284.568058968 83.0107635879
L285.045700246 83.4529881452L285.523341523 83.8955147796
L286.000982801 84.338323073L286.478624079 84.7813925944
L286.956265356 85.2247029007L287.433906634 85.6682335376
L287.911547912 86.1119640409L288.389189189 86.5558739369
L288.866830467 86.9999427438L289.344471744 87.4441499724
L289.822113022 87.8884751271L290.2997543 88.3328977069
L290.777395577 88.7773972063L291.255036855 89.2219531162
L291.732678133 89.6665449249L292.21031941 90.1111521191
L292.687960688 90.5557541848L293.165601966 91.0003306082
L293.643243243 91.4448608766L294.120884521 91.8893244796
L294.598525799 92.3337009098L295.076167076 92.7779696637
L295.553808354 93.2221102431L296.031449631 93.6661021553
L296.509090909 94.1099249146L296.986732187 94.5535580434
L297.464373464 94.9969810724L297.942014742 95.4401735424
L298.41965602 95.8831150044L298.897297297 96.3257850214
L299.374938575 96.7681631687L299.852579853 97.210229035
L300.33022113 97.6519622237L300.807862408 98.0933423533
L301.285503686 98.5343490586L301.763144963 98.9749619918
L302.240786241 99.4151608231L302.718427518 99.8549252419
L303.196068796 100.294234957L303.673710074 100.7330697
L304.151351351 101.171409223L304.628992629 101.6092333
L305.106633907 102.046521731L305.584275184 102.483254339
L306.061916462 102.919410974L306.53955774 103.354971511
L307.017199017 103.789915854L307.494840295 104.224223935
L307.972481572 104.657875715L308.45012285 105.090851185
L308.927764128 105.523130367L309.405405405 105.954693318
L309.883046683 106.385520124L310.360687961 106.815590907
L310.838329238 107.244885824L311.315970516 107.673385068
L311.793611794 108.101068867L312.271253071 108.527917489
L312.748894349 108.953911239L313.226535627 109.379030461
L313.704176904 109.803255541L314.181818182 110.226566905
L314.659459459 110.648945021L315.137100737 111.070370402
L315.614742015 111.490823602L316.092383292 111.910285223
L316.57002457 112.32873591L317.047665848 112.746156357
L317.525307125 113.162527302L318.002948403 113.577829537
L318.480589681 113.992043897L318.958230958 114.405151273
L319.435872236 114.817132602L319.913513514 115.227968877
L320.391154791 115.637641142L320.868796069 116.046130493
L321.346437346 116.453418085L321.824078624 116.859485124
L322.301719902 117.264312875L322.779361179 117.66788266
L323.257002457 118.070175857L323.734643735 118.471173905
L324.212285012 118.870858302L324.68992629 119.269210607
L325.167567568 119.66621244L325.645208845 120.061845483
L326.122850123 120.456091483L326.6004914 120.848932247
L327.078132678 121.240349652L327.555773956 121.630325637
L328.033415233 122.018842209L328.511056511 122.405881442
L328.988697789 122.791425478L329.466339066 123.175456527
L329.943980344 123.557956872L330.421621622 123.938908863
L330.899262899 124.318294924L331.376904177 124.696097549
L331.854545455 125.072299308L332.332186732 125.446882841
L332.80982801 125.819830867L333.287469287 126.191126178
L333.765110565 126.560751641L334.242751843 126.928690202
L334.72039312 127.294924886L335.198034398 127.659438794
L335.675675676 128.022215107L336.153316953 128.383237087
L336.630958231 128.742488077L337.108599509 129.099951501
L337.586240786 129.455610865L338.063882064 129.80944976
L338.541523342 130.16145186L339.019164619 130.511600923
L339.496805897 130.859880793L339.974447174 131.206275402
L340.452088452 131.550768766L340.92972973 131.893344991
L341.407371007 132.23398827L341.885012285 132.572682887
L342.362653563 132.909413213L342.84029484 133.244163713
L343.317936118 133.576918941L343.795577396 133.907663543
L344.273218673 134.23638226L344.750859951 134.563059924
L345.228501229 134.887681463L345.706142506 135.210231898
L346.183783784 135.530696348L346.661425061 135.849060026
L347.139066339 136.165308243L347.616707617 136.479426407
L348.094348894 136.791400025L348.571990172 137.101214703
L349.04963145 137.408856145L349.527272727 137.714310158
L350.004914005 138.017562648L350.482555283 138.318599623
L350.96019656 138.617407193L351.437837838 138.913971572
L351.915479115 139.208279075L352.393120393 139.500316124
L352.870761671 139.790069244L353.348402948 140.077525066
L353.826044226 140.362670327L354.303685504 140.64549187
L354.781326781 140.925976646L355.258968059 141.204111714
L355.736609337 141.479884241L356.214250614 141.753281502
L356.691891892 142.024290883L357.16953317 142.29289988
L357.647174447 142.559096098L358.124815725 142.822867257
L358.602457002 143.084201186L359.08009828 143.343085827
L359.557739558 143.599509234L360.035380835 143.853459577
L360.513022113 144.104925139L360.990663391 144.353894316
L361.468304668 144.600355622L361.945945946 144.844297685
L362.423587224 145.08570925L362.901228501 145.324579177
L363.378869779 145.560896446L363.856511057 145.794650153
L364.334152334 146.025829512L364.811793612 146.254423857
L365.289434889 146.480422641L365.767076167 146.703815436
L366.244717445 146.924591936L366.722358722 147.142741952
L367.2 147.358255421L367.677641278 147.571122398
L368.155282555 147.781333062L368.632923833 147.988877713
L369.110565111 148.193746776L369.588206388 148.395930798
L370.065847666 148.59542045L370.543488943 148.792206528
L371.021130221 148.986279953L371.498771499 149.177631769
L371.976412776 149.366253148L372.454054054 149.552135387
L372.931695332 149.735269909L373.409336609 149.915648265
L373.886977887 150.093262132L374.364619165 150.268103315
L374.842260442 150.440163747L375.31990172 150.609435489
L375.797542998 150.77591073L376.275184275 150.939581791
L376.752825553 151.100441118L377.23046683 151.258481291
L377.708108108 151.413695017L378.185749386 151.566075134
L378.663390663 151.715614612L379.141031941 151.862306551
L379.618673219 152.006144183L380.096314496 152.147120872
L380.573955774 152.285230112L381.051597052 152.420465531
L381.529238329 152.552820889L382.006879607 152.682290081
L382.484520885 152.808867131L382.962162162 152.932546201
L383.43980344 153.053321582L383.917444717 153.171187703
L384.395085995 153.286139126L384.872727273 153.398170547
L385.35036855 153.507276796L385.828009828 153.613452839
L386.305651106 153.716693778L386.783292383 153.816994849
L387.260933661 153.914351424L387.738574939 154.008759011
L388.216216216 154.100213254L388.693857494 154.188709934
L389.171498771 154.274244967L389.649140049 154.356814407
L390.126781327 154.436414443L390.604422604 154.513041405
L391.082063882 154.586691754L391.55970516 154.657362095
L392.037346437 154.725049165L392.514987715 154.789749842
L392.992628993 154.851461141L393.47027027 154.910180214
L393.947911548 154.965904351L394.425552826 155.018630983
L394.903194103 155.068357675L395.380835381 155.115082134
L395.858476658 155.158802204L396.336117936 155.199515868
L396.813759214 155.237221246L397.291400491 155.2719166
L397.769041769 155.303600328L398.246683047 155.332270969
L398.724324324 155.3579272L399.201965602 155.380567837
L399.67960688 155.400191835L400.157248157 155.416798289
L400.634889435 155.430386432L401.112530713 155.440955639
L401.59017199 155.44850542L402.067813268 155.453035429
L402.545454545 155.454545455L403.023095823 155.453035429
L403.500737101 155.44850542L403.978378378 155.440955639
L404.456019656 155.430386432L404.933660934 155.416798289
L405.411302211 155.400191835L405.888943489 155.380567837
L406.366584767 155.3579272L406.844226044 155.332270969
L407.321867322 155.303600328L407.7995086 155.2719166
L408.277149877 155.237221246L408.754791155 155.199515868
L409.232432432 155.158802204L409.71007371 155.115082134
L410.187714988 155.068357675L410.665356265 155.018630983
L411.142997543 154.965904351L411.620638821 154.910180214
L412.098280098 154.851461141L412.575921376 154.789749842
L413.053562654 154.725049165L413.531203931 154.657362095
L414.008845209 154.586691754L414.486486486 154.513041405
L414.964127764 154.436414443L415.441769042 154.356814407
L415.919410319 154.274244967L416.397051597 154.188709934
L416.874692875 154.100213254L417.352334152 154.008759011
L417.82997543 153.914351424L418.307616708 153.816994849
L418.785257985 153.716693778L419.262899263 153.613452839
L419.740540541 153.507276796L420.218181818 153.398170547
L420.695823096 153.286139126L421.173464373 153.171187703
L421.651105651 153.053321582L422.128746929 152.932546201
L422.606388206 152.808867131L423.084029484 152.682290081
L423.561670762 152.552820889L424.039312039 152.420465531
L424.516953317 152.285230112L424.994594595 152.147120872
L425.472235872 152.006144183L425.94987715 151.862306551
L426.427518428 151.715614612L426.905159705 151.566075134
L427.382800983 151.413695017L427.86044226 151.258481291
L428.338083538 151.100441118L428.815724816 150.939581791
L429.293366093 150.77591073L429.771007371 150.609435489
L430.248648649 150.440163747L430.726289926 150.268103315
L431.203931204 150.093262132L431.681572482 149.915648265
L432.159213759 149.735269909L432.636855037 149.552135387
L433.114496314 149.366253148L433.592137592 149.177631769
L434.06977887 148.986279953L434.547420147 148.792206528
L435.025061425 148.59542045L435.502702703 148.395930798
L435.98034398 148.193746776L436.457985258 147.988877713
L436.935626536 147.781333062L437.413267813 147.571122398
L437.890909091 147.358255421L438.368550369 147.142741952
L438.846191646 146.924591936L439.323832924 146.703815436
L439.801474201 146.480422641L440.279115479 146.254423857
L440.756756757 146.025829512L441.234398034 145.794650153
L441.712039312 145.560896446L442.18968059 145.324579177
L442.667321867 145.08570925L443.144963145 144.844297685
L443.622604423 144.600355622L444.1002457 144.353894316
L444.577886978 144.104925139L445.055528256 143.853459577
L445.533169533 143.599509234L446.010810811 143.343085827
L446.488452088 143.084201186L446.966093366 142.822867257
L447.443734644 142.559096098L447.921375921 142.29289988
L448.399017199 142.024290883L448.876658477 141.753281502
L449.354299754 141.479884241L449.831941032 141.204111714
L450.30958231 140.925976646L450.787223587 140.64549187
L451.264864865 140.362670327L451.742506143 140.077525066
L452.22014742 139.790069244L452.697788698 139.500316124
L453.175429975 139.208279075L453.653071253 138.913971572
L454.130712531 138.617407193L454.608353808 138.318599623
L455.085995086 138.017562648L455.563636364 137.714310158
L456.041277641 137.408856145L456.518918919 137.101214703
L456.996560197 136.791400025L457.474201474 136.479426407
L457.951842752 136.165308243L458.429484029 135.849060026
L458.907125307 135.530696348L459.384766585 135.210231898
L459.862407862 134.887681463L460.34004914 134.563059924
L460.817690418 134.23638226L461.295331695 133.907663543
L461.772972973 133.576918941L462.250614251 133.244163713
L462.728255528 132.909413213L463.205896806 132.572682887
L463.683538084 132.23398827L464.161179361 131.893344991
L464.638820639 131.550768766L465.116461916 131.206275402
L465.594103194 130.859880793L466.071744472 130.511600923
L466.549385749 130.16145186L467.027027027 129.80944976
L467.504668305 129.455610865L467.982309582 129.099951501
L468.45995086 128.742488077L468.937592138 128.383237087
L469.415233415 128.022215107L469.892874693 127.659438794
L470.370515971 127.294924886L470.848157248 126.928690202
L471.325798526 126.560751641L471.803439803 126.191126178
L472.281081081 125.819830867L472.758722359 125.446882841
L473.236363636 125.072299308L473.714004914 124.696097549
L474.191646192 124.318294924L474.669287469 123.938908863
L475.146928747 123.557956872L475.624570025 123.175456527
L476.102211302 122.791425478L476.57985258 122.405881442
L477.057493857 122.018842209L477.535135135 121.630325637
L478.012776413 121.240349652L478.49041769 120.848932247
L478.968058968 120.456091483L479.445700246 120.061845483
L479.923341523 119.66621244L480.400982801 119.269210607
L480.878624079 118.870858302L481.356265356 118.471173905
L481.833906634 118.070175857L482.311547912 117.66788266
L482.789189189 117.264312875L483.266830467 116.859485124
L483.744471744 116.453418085L484.222113022 116.046130493
L484.6997543 115.637641142L485.177395577 115.227968877
L485.655036855 114.817132602L486.132678133 114.405151273
L486.61031941 113.992043897L487.087960688 113.577829537
L487.565601966 113.162527302L488.043243243 112.746156357
L488.520884521 112.32873591L488.998525799 111.910285223
L489.476167076 111.490823602L489.953808354 111.070370402
L490.431449631 110.648945021L490.909090909 110.226566905
L491.386732187 109.803255541L491.864373464 109.379030461
L492.342014742 108.953911239L492.81965602 108.527917489
L493.297297297 108.101068867L493.774938575 107.673385068
L494.252579853 107.244885824L494.73022113 106.815590907
L495.207862408 106.385520124L495.685503686 105.954693318
L496.163144963 105.523130367L496.640786241 105.090851185
L497.118427518 104.657875715L497.596068796 104.224223935
L498.073710074 103.789915854L498.551351351 103.354971511
L499.028992629 102.919410974L499.506633907 102.483254339
L499.984275184 102.046521731L500.461916462 101.6092333
L500.93955774 101.171409223L501.417199017 100.7330697
L501.894840295 100.294234957L502.372481572 99.8549252419
L502.85012285 99.4151608231L503.327764128 98.9749619918
L503.805405405 98.5343490586L504.283046683 98.0933423533
L504.760687961 97.6519622237L505.238329238 97.210229035
L505.715970516 96.7681631687L506.193611794 96.3257850214
L506.671253071 95.8831150044L507.148894349 95.4401735424
L507.626535627 94.9969810724L508.104176904 94.5535580434
L508.581818182 94.1099249146"/>
</g>
<g id="line2d3">
<defs><path id="m20ae8964a0d076a3bfa1ef94eb082b41" d="M0.0 3.0
C0.7956093 3.0 1.55873961235 2.68390107476 2.12132034356 2.12132034356
C2.68390107476 1.55873961235 3.0 0.7956093 3.0 0.0
C3.0 -0.7956093 2.68390107476 -1.55873961235 2.12132034356 -2.12132034356
C1.55873961235 -2.68390107476 0.7956093 -3.0 0.0 -3.0
C-0.7956093 -3.0 -1.55873961235 -2.68390107476 -2.12132034356 -2.12132034356
C-2.68390107476 -1.55873961235 -3.0 -0.7956093 -3.0 0.0
C-3.0 0.7956093 -2.68390107476 1.55873961235 -2.12132034356 2.12132034356
C-1.55873961235 2.68390107476 -0.7956093 3.0 0.0 3.0z"/></defs>
<g clip-path="url(#p12632432c599d5a3f93cdf6d5a4d19e3)"><use style="fill: #000000; stroke: #000000; stroke-width: 0.5; stroke-linejoin: miter; stroke-linecap: butt;  opacity: 1.0" xlink:href="#m20ae8964a0d076a3bfa1ef94eb082b41" x="49.090909" y="110.226567"/>
<use style="fill: #000000; stroke: #000000; stroke-width: 0.5; stroke-linejoin: miter; stroke-linecap: butt;  opacity: 1.0" xlink:href="#m20ae8964a0d076a3bfa1ef94eb082b41" x="93.272727" y="69.773550"/>
<use style="fill: #000000; stroke: #000000; stroke-width: 0.5; stroke-linejoin: miter; stroke-linecap: butt;  opacity: 1.0" xlink:href="#m20ae8964a0d076a3bfa1ef94eb082b41" x="137.454545" y="37.046160"/>
<use style="fill: #000000; stroke: #000000; stroke-width: 0.5; stroke-linejoin: miter; stroke-linecap: butt;  opacity: 1.0" xlink:href="#m20ae8964a0d076a3bfa1ef94eb082b41" x="181.636364" y="24.545832"/>
<use style="fill: #000000; stroke: #000000; stroke-width: 0.5; stroke-linejoin: miter; stroke-linecap: butt;  opacity: 1.0" xlink:href="#m20ae8964a0d076a3bfa1ef94eb082b41" x="225.818182" y="37.046160"/>
<use style="fill: #000000; stroke: #000000; stroke-width: 0.5; stroke-linejoin: miter; stroke-linecap: butt;  opacity: 1.0" xlink:href="#m20ae8964a0d076a3bfa1ef94eb082b41" x="270.000000" y="69.773550"/>
<use style="fill: #000000; stroke: #000000; stroke-width: 0.5; stroke-linejoin: miter; stroke-linecap: butt;  opacity: 1.0" xlink:href="#m20ae8964a0d076a3bfa1ef94eb082b41" x="314.181818" y="110.226567"/>
<use style="fill: #000000; stroke: #000000; stroke-width: 0.5; stroke-linejoin: miter; stroke-linecap: butt;  opacity: 1.0" xlink:href="#m20ae8964a0d076a3bfa1ef94eb082b41" x="358.363636" y="142.953534"/>
<use style="fill: #000000; stroke: #000000; stroke-width: 0.5; stroke-linejoin: miter; stroke-linecap: butt;  opacity: 1.0" xlink:href="#m20ae8964a0d076a3bfa1ef94eb082b41" x="402.545455" y="155.454545"/>
<use style="fill: #000000; stroke: #000000; stroke-width: 0.5; stroke-linejoin: miter; stroke-linecap: butt;  opacity: 1.0" xlink:href="#m20ae8964a0d076a3bfa1ef94eb082b41" x="446.727273" y="142.953534"/>
<use style="fill: #000000; stroke: #000000; stroke-width: 0.5; stroke-linejoin: miter; stroke-linecap: butt;  opacity: 1.0" xlink:href="#m20ae8964a0d076a3bfa1ef94eb082b41" x="490.909091" y="110.226567"/>
</g></g>
<g id="matplotlib.axis1">
<g id="xtick1">
<g id="line2d4">
<defs><path id="mbb4d72b17a25ab293ce52cb6f0e28856" d="M0.0 0.0L0.0 -8.0"/></defs>
<g ><use style="fill: none; stroke: #000000; stroke-width: 0.5; stroke-linejoin: miter; stroke-linecap: butt;  opacity: 1.0" xlink:href="#mbb4d72b17a25ab293ce52cb6f0e28856" x="49.090909" y="162.000000"/>
</g></g>
<g id="line2d5">
<defs><path id="m81afda4dfa59fd7ecfb3ce9eb746a50d" d="M0.0 0.0L0.0 8.0"/></defs>
<g ><use style="fill: none; stroke: #000000; stroke-width: 0.5; stroke-linejoin: miter; stroke-linecap: butt;  opacity: 1.0" xlink:href="#m81afda4dfa59fd7ecfb3ce9eb746a50d" x="49.090909" y="18.000000"/>
</g></g>
<text style="font-size: 18.000000; font-family: Bitstream Vera Sans; font-style: normal; fill: #000000; opacity: 1.0" x="44.5518465909" y="179.359375" >0</text>
</g>
<g id="xtick2">
<g id="line2d6">
<g ><use style="fill: none; stroke: #000000; stroke-width: 0.5; stroke-linejoin: miter; stroke-linecap: butt;  opacity: 1.0" xlink:href="#mbb4d72b17a25ab293ce52cb6f0e28856" x="93.272727" y="162.000000"/>
</g></g>
<g id="line2d7">
<g ><use style="fill: none; stroke: #000000; stroke-width: 0.5; stroke-linejoin: miter; stroke-linecap: butt;  opacity: 1.0" xlink:href="#m81afda4dfa59fd7ecfb3ce9eb746a50d" x="93.272727" y="18.000000"/>
</g></g>
<text style="font-size: 18.000000; font-family: Bitstream Vera Sans; font-style: normal; fill: #000000; opacity: 1.0" x="89.3664772727" y="179.125" >1</text>
</g>
<g id="xtick3">
<g id="line2d8">
<g ><use style="fill: none; stroke: #000000; stroke-width: 0.5; stroke-linejoin: miter; stroke-linecap: butt;  opacity: 1.0" xlink:href="#mbb4d72b17a25ab293ce52cb6f0e28856" x="137.454545" y="162.000000"/>
</g></g>
<g id="line2d9">
<g ><use style="fill: none; stroke: #000000; stroke-width: 0.5; stroke-linejoin: miter; stroke-linecap: butt;  opacity: 1.0" xlink:href="#m81afda4dfa59fd7ecfb3ce9eb746a50d" x="137.454545" y="18.000000"/>
</g></g>
<text style="font-size: 18.000000; font-family: Bitstream Vera Sans; font-style: normal; fill: #000000; opacity: 1.0" x="133.282670455" y="179.359375" >2</text>
</g>
<g id="xtick4">
<g id="line2d10">
<g ><use style="fill: none; stroke: #000000; stroke-width: 0.5; stroke-linejoin: miter; stroke-linecap: butt;  opacity: 1.0" xlink:href="#mbb4d72b17a25ab293ce52cb6f0e28856" x="181.636364" y="162.000000"/>
</g></g>
<g id="line2d11">
<g ><use style="fill: none; stroke: #000000; stroke-width: 0.5; stroke-linejoin: miter; stroke-linecap: butt;  opacity: 1.0" xlink:href="#m81afda4dfa59fd7ecfb3ce9eb746a50d" x="181.636364" y="18.000000"/>
</g></g>
<text style="font-size: 18.000000; font-family: Bitstream Vera Sans; font-style: normal; fill: #000000; opacity: 1.0" x="177.316051136" y="179.359375" >3</text>
</g>
<g id="xtick5">
<g id="line2d12">
<g ><use style="fill: none; stroke: #000000; stroke-width: 0.5; stroke-linejoin: miter; stroke-linecap: butt;  opacity: 1.0" xlink:href="#mbb4d72b17a25ab293ce52cb6f0e28856" x="225.818182" y="162.000000"/>
</g></g>
<g id="line2d13">
<g ><use style="fill: none; stroke: #000000; stroke-width: 0.5; stroke-linejoin: miter; stroke-linecap: butt;  opacity: 1.0" xlink:href="#m81afda4dfa59fd7ecfb3ce9eb746a50d" x="225.818182" y="18.000000"/>
</g></g>
<text style="font-size: 18.000000; font-family: Bitstream Vera Sans; font-style: normal; fill: #000000; opacity: 1.0" x="221.036931818" y="179.125" >4</text>
</g>
<g id="xtick6">
<g id="line2d14">
<g ><use style="fill: none; stroke: #000000; stroke-width: 0.5; stroke-linejoin: miter; stroke-linecap: butt;  opacity: 1.0" xlink:href="#mbb4d72b17a25ab293ce52cb6f0e28856" x="270.000000" y="162.000000"/>
</g></g>
<g id="line2d15">
<g ><use style="fill: none; stroke: #000000; stroke-width: 0.5; stroke-linejoin: miter; stroke-linecap: butt;  opacity: 1.0" xlink:href="#m81afda4dfa59fd7ecfb3ce9eb746a50d" x="270.000000" y="18.000000"/>
</g></g>
<text style="font-size: 18.000000; font-family: Bitstream Vera Sans; font-style: normal; fill: #000000; opacity: 1.0" x="265.7578125" y="179.125" >5</text>
</g>
<g id="xtick7">
<g id="line2d16">
<g ><use style="fill: none; stroke: #000000; stroke-width: 0.5; stroke-linejoin: miter; stroke-linecap: butt;  opacity: 1.0" xlink:href="#mbb4d72b17a25ab293ce52cb6f0e28856" x="314.181818" y="162.000000"/>
</g></g>
<g id="line2d17">
<g ><use style="fill: none; stroke: #000000; stroke-width: 0.5; stroke-linejoin: miter; stroke-linecap: butt;  opacity: 1.0" xlink:href="#m81afda4dfa59fd7ecfb3ce9eb746a50d" x="314.181818" y="18.000000"/>
</g></g>
<text style="font-size: 18.000000; font-family: Bitstream Vera Sans; font-style: normal; fill: #000000; opacity: 1.0" x="309.658380682" y="179.359375" >6</text>
</g>
<g id="xtick8">
<g id="line2d18">
<g ><use style="fill: none; stroke: #000000; stroke-width: 0.5; stroke-linejoin: miter; stroke-linecap: butt;  opacity: 1.0" xlink:href="#mbb4d72b17a25ab293ce52cb6f0e28856" x="358.363636" y="162.000000"/>
</g></g>
<g id="line2d19">
<g ><use style="fill: none; stroke: #000000; stroke-width: 0.5; stroke-linejoin: miter; stroke-linecap: butt;  opacity: 1.0" xlink:href="#m81afda4dfa59fd7ecfb3ce9eb746a50d" x="358.363636" y="18.000000"/>
</g></g>
<text style="font-size: 18.000000; font-family: Bitstream Vera Sans; font-style: normal; fill: #000000; opacity: 1.0" x="354.144886364" y="179.125" >7</text>
</g>
<g id="xtick9">
<g id="line2d20">
<g ><use style="fill: none; stroke: #000000; stroke-width: 0.5; stroke-linejoin: miter; stroke-linecap: butt;  opacity: 1.0" xlink:href="#mbb4d72b17a25ab293ce52cb6f0e28856" x="402.545455" y="162.000000"/>
</g></g>
<g id="line2d21">
<g ><use style="fill: none; stroke: #000000; stroke-width: 0.5; stroke-linejoin: miter; stroke-linecap: butt;  opacity: 1.0" xlink:href="#m81afda4dfa59fd7ecfb3ce9eb746a50d" x="402.545455" y="18.000000"/>
</g></g>
<text style="font-size: 18.000000; font-family: Bitstream Vera Sans; font-style: normal; fill: #000000; opacity: 1.0" x="398.045454545" y="179.359375" >8</text>
</g>
<g id="xtick10">
<g id="line2d22">
<g ><use style="fill: none; stroke: #000000; stroke-width: 0.5; stroke-linejoin: miter; stroke-linecap: butt;  opacity: 1.0" xlink:href="#mbb4d72b17a25ab293ce52cb6f0e28856" x="446.727273" y="162.000000"/>
</g></g>
<g id="line2d23">
<g ><use style="fill: none; stroke: #000000; stroke-width: 0.5; stroke-linejoin: miter; stroke-linecap: butt;  opacity: 1.0" xlink:href="#m81afda4dfa59fd7ecfb3ce9eb746a50d" x="446.727273" y="18.000000"/>
</g></g>
<text style="font-size: 18.000000; font-family: Bitstream Vera Sans; font-style: normal; fill: #000000; opacity: 1.0" x="442.203835227" y="179.359375" >9</text>
</g>
<g id="xtick11">
<g id="line2d24">
<g ><use style="fill: none; stroke: #000000; stroke-width: 0.5; stroke-linejoin: miter; stroke-linecap: butt;  opacity: 1.0" xlink:href="#mbb4d72b17a25ab293ce52cb6f0e28856" x="490.909091" y="162.000000"/>
</g></g>
<g id="line2d25">
<g ><use style="fill: none; stroke: #000000; stroke-width: 0.5; stroke-linejoin: miter; stroke-linecap: butt;  opacity: 1.0" xlink:href="#m81afda4dfa59fd7ecfb3ce9eb746a50d" x="490.909091" y="18.000000"/>
</g></g>
<text style="font-size: 18.000000; font-family: Bitstream Vera Sans; font-style: normal; fill: #000000; opacity: 1.0" x="481.041903409" y="179.359375" >10</text>
</g>
</g>
<g id="matplotlib.axis2">
<g id="ytick1">
<g id="line2d26">
<defs><path id="md71f613830d87ebd401278d310a1df9e" d="M0.0 0.0L8.0 0.0"/></defs>
<g ><use style="fill: none; stroke: #000000; stroke-width: 0.5; stroke-linejoin: miter; stroke-linecap: butt;  opacity: 1.0" xlink:href="#md71f613830d87ebd401278d310a1df9e" x="27.000000" y="155.454545"/>
</g></g>
<g id="line2d27">
<defs><path id="m147042a36e52bd08778901eccf16f479" d="M0.0 0.0L-8.0 0.0"/></defs>
<g ><use style="fill: none; stroke: #000000; stroke-width: 0.5; stroke-linejoin: miter; stroke-linecap: butt;  opacity: 1.0" xlink:href="#m147042a36e52bd08778901eccf16f479" x="513.000000" y="155.454545"/>
</g></g>
</g>
<g id="ytick2">
<g id="line2d28">
<g ><use style="fill: none; stroke: #000000; stroke-width: 0.5; stroke-linejoin: miter; stroke-linecap: butt;  opacity: 1.0" xlink:href="#md71f613830d87ebd401278d310a1df9e" x="27.000000" y="90.000000"/>
</g></g>
<g id="line2d29">
<g ><use style="fill: none; stroke: #000000; stroke-width: 0.5; stroke-linejoin: miter; stroke-linecap: butt;  opacity: 1.0" xlink:href="#m147042a36e52bd08778901eccf16f479" x="513.000000" y="90.000000"/>
</g></g>
<text style="font-size: 18.000000; font-family: Bitstream Vera Sans; font-style: normal; fill: #000000; opacity: 1.0" x="13.921875" y="96.5546875" >0</text>
</g>
<g id="ytick3">
<g id="line2d30">
<g ><use style="fill: none; stroke: #000000; stroke-width: 0.5; stroke-linejoin: miter; stroke-linecap: butt;  opacity: 1.0" xlink:href="#md71f613830d87ebd401278d310a1df9e" x="27.000000" y="24.545455"/>
</g></g>
<g id="line2d31">
<g ><use style="fill: none; stroke: #000000; stroke-width: 0.5; stroke-linejoin: miter; stroke-linecap: butt;  opacity: 1.0" xlink:href="#m147042a36e52bd08778901eccf16f479" x="513.000000" y="24.545455"/>
</g></g>
</g>
</g>
<path style="fill: none; stroke: #000000; stroke-width: 1.0; stroke-linejoin: miter; stroke-linecap: square;  opacity: 1.0"  d="M27.0 162.0L513.0 162.0L513.0 18.0L27.0 18.0L27.0 162.0"/>
</g>
</g>
</svg>
